999
dxfrw 0.6.3
  0
SECTION
  2
HEADER
  9
$ACADVER
  1
AC1021
  9
$DWGCODEPAGE
  3
ANSI_1252
  9
$INSBASE
 10
0
 20
0
 30
0
  9
$EXTMIN
 10
0
 20
0
 30
0
  9
$EXTMAX
 10
10.32999928792317
 20
6.969999949137369
 30
0
  9
$LIMMIN
 10
0
 20
0
  9
$LIMMAX
 10
12
 20
9
  9
$ORTHOMODE
 70
    0
  9
$REGENMODE
 70
    1
  9
$FILLMODE
 70
    1
  9
$QTEXTMODE
 70
    0
  9
$MIRRTEXT
 70
    0
  9
$LTSCALE
 40
1
  9
$ATTMODE
 70
    1
  9
$TEXTSIZE
 40
0.2
  9
$TRACEWID
 40
0.05
  9
$TEXTSTYLE
  7
Standard
  9
$CLAYER
  8
schematic
  9
$CELTYPE
  6
ByLayer
  9
$CECOLOR
 62
  256
  9
$CELTSCALE
 40
1
  9
$DISPSILH
 70
    0
  9
$DIMSCALE
 40
1
  9
$DIMASZ
 40
0.18
  9
$DIMEXO
 40
0.0625
  9
$DIMDLI
 40
0.38
  9
$DIMRND
 40
0
  9
$DIMDLE
 40
0
  9
$DIMEXE
 40
0.18
  9
$DIMTP
 40
0
  9
$DIMTM
 40
0
  9
$DIMTXT
 40
0.18
  9
$DIMCEN
 40
0.09
  9
$DIMTSZ
 40
0
  9
$DIMTOL
 70
    0
  9
$DIMLIM
 70
    0
  9
$DIMTIH
 70
    1
  9
$DIMTOH
 70
    1
  9
$DIMSE1
 70
    0
  9
$DIMSE2
 70
    0
  9
$DIMTAD
 70
    0
  9
$DIMZIN
 70
    0
  9
$DIMBLK
  1

  9
$DIMASO
 70
    1
  9
$DIMSHO
 70
    1
  9
$DIMPOST
  1

  9
$DIMAPOST
  1

  9
$DIMALT
 70
    0
  9
$DIMALTD
 70
    2
  9
$DIMALTF
 40
25.4
  9
$DIMLFAC
 40
1
  9
$DIMTOFL
 70
    0
  9
$DIMTVP
 40
0
  9
$DIMTIX
 70
    0
  9
$DIMSOXD
 70
    0
  9
$DIMSAH
 70
    0
  9
$DIMBLK1
  1

  9
$DIMBLK2
  1

  9
$DIMSTYLE
  2
Standard
  9
$DIMCLRD
 70
    0
  9
$DIMCLRE
 70
    0
  9
$DIMCLRT
 70
    0
  9
$DIMTFAC
 40
1
  9
$DIMGAP
 40
0.09
  9
$DIMJUST
 70
    0
  9
$DIMSD1
 70
    0
  9
$DIMSD2
 70
    0
  9
$DIMTOLJ
 70
    1
  9
$DIMTZIN
 70
    0
  9
$DIMALTZ
 70
    0
  9
$DIMALTTZ
 70
    0
  9
$DIMUPT
 70
    0
  9
$DIMDEC
 70
    4
  9
$DIMTDEC
 70
    4
  9
$DIMALTU
 70
    2
  9
$DIMALTTD
 70
    2
  9
$DIMTXSTY
  7
Standard
  9
$DIMAUNIT
 70
    0
  9
$DIMADEC
 70
    0
  9
$DIMALTRND
 40
0
  9
$DIMAZIN
 70
    0
  9
$DIMDSEP
 70
   46
  9
$DIMATFIT
 70
    3
  9
$DIMFRAC
 70
    0
  9
$DIMLDRBLK
  1

  9
$DIMLUNIT
 70
    2
  9
$DIMLWD
 70
   -2
  9
$DIMLWE
 70
   -2
  9
$DIMTMOVE
 70
    0
  9
$DIMFXL
 40
1
  9
$DIMFXLON
 70
    0
  9
$DIMJOGANG
 40
0.7853981633974483
  9
$DIMTFILL
 70
    0
  9
$DIMTFILLCLR
 70
    0
  9
$DIMARCSYM
 70
    0
  9
$DIMLTYPE
  6

  9
$DIMLTEX1
  6

  9
$DIMLTEX2
  6

  9
$LUNITS
 70
    2
  9
$LUPREC
 70
    4
  9
$SKETCHINC
 40
0.1
  9
$FILLETRAD
 40
0
  9
$AUNITS
 70
    0
  9
$AUPREC
 70
    0
  9
$MENU
  1
.
  9
$ELEVATION
 40
0
  9
$PELEVATION
 40
0
  9
$THICKNESS
 40
0
  9
$LIMCHECK
 70
    0
  9
$CHAMFERA
 40
0
  9
$CHAMFERB
 40
0
  9
$CHAMFERC
 40
0
  9
$CHAMFERD
 40
0
  9
$SKPOLY
 70
    0
  9
$USRTIMER
 70
    1
  9
$ANGBASE
 50
0
  9
$ANGDIR
 70
    0
  9
$PDMODE
 70
    0
  9
$PDSIZE
 40
0
  9
$PLINEWID
 40
0
  9
$SPLFRAME
 70
    0
  9
$SPLINETYPE
 70
    6
  9
$SPLINESEGS
 70
    8
  9
$HANDSEED
  5
20000
  9
$SURFTAB1
 70
    6
  9
$SURFTAB2
 70
    6
  9
$SURFTYPE
 70
    6
  9
$SURFU
 70
    6
  9
$SURFV
 70
    6
  9
$UCSBASE
  2

  9
$UCSNAME
  2

  9
$UCSORG
 10
0
 20
0
 30
0
  9
$UCSXDIR
 10
1
 20
0
 30
0
  9
$UCSYDIR
 10
0
 20
1
 30
0
  9
$UCSORTHOREF
  2

  9
$UCSORTHOVIEW
 70
    0
  9
$UCSORGTOP
 10
0
 20
0
 30
0
  9
$UCSORGBOTTOM
 10
0
 20
0
 30
0
  9
$UCSORGLEFT
 10
0
 20
0
 30
0
  9
$UCSORGRIGHT
 10
0
 20
0
 30
0
  9
$UCSORGFRONT
 10
0
 20
0
 30
0
  9
$UCSORGBACK
 10
0
 20
0
 30
0
  9
$PUCSBASE
  2

  9
$PUCSNAME
  2

  9
$PUCSORG
 10
0
 20
0
 30
0
  9
$PUCSXDIR
 10
1
 20
0
 30
0
  9
$PUCSYDIR
 10
0
 20
1
 30
0
  9
$PUCSORTHOREF
  2

  9
$PUCSORTHOVIEW
 70
    0
  9
$PUCSORGTOP
 10
0
 20
0
 30
0
  9
$PUCSORGBOTTOM
 10
0
 20
0
 30
0
  9
$PUCSORGLEFT
 10
0
 20
0
 30
0
  9
$PUCSORGRIGHT
 10
0
 20
0
 30
0
  9
$PUCSORGFRONT
 10
0
 20
0
 30
0
  9
$PUCSORGBACK
 10
0
 20
0
 30
0
  9
$USERI1
 70
    0
  9
$USERI2
 70
    0
  9
$USERI3
 70
    0
  9
$USERI4
 70
    0
  9
$USERI5
 70
    0
  9
$USERR1
 40
0
  9
$USERR2
 40
0
  9
$USERR3
 40
0
  9
$USERR4
 40
0
  9
$USERR5
 40
0
  9
$WORLDVIEW
 70
    1
  9
$SHADEDGE
 70
    3
  9
$SHADEDIF
 70
   70
  9
$TILEMODE
 70
    1
  9
$MAXACTVP
 70
   64
  9
$PINSBASE
 10
0
 20
0
 30
0
  9
$PLIMCHECK
 70
    0
  9
$PEXTMIN
 10
1e+20
 20
1e+20
 30
1e+20
  9
$PEXTMAX
 10
-1e+20
 20
-1e+20
 30
-1e+20
  9
$GRIDMODE
 70
    0
  9
$SNAPSTYLE
 70
    0
  9
$PLIMMIN
 10
0
 20
0
  9
$PLIMMAX
 10
12
 20
9
  9
$UNITMODE
 70
    0
  9
$VISRETAIN
 70
    1
  9
$PLINEGEN
 70
    0
  9
$PSLTSCALE
 70
    1
  9
$TREEDEPTH
 70
 3020
  9
$CMLSTYLE
  2
Standard
  9
$CMLJUST
 70
    0
  9
$CMLSCALE
 40
1
  9
$PROXYGRAPHICS
 70
    1
  9
$MEASUREMENT
 70
    0
  9
$CELWEIGHT
370
   -1
  9
$ENDCAPS
280
    0
  9
$JOINSTYLE
280
    0
  9
$LWDISPLAY
290
    1
  9
$INSUNITS
 70
    1
  9
$HYPERLINKBASE
  1

  9
$STYLESHEET
  1

  9
$XEDIT
290
    1
  9
$CEPSNTYPE
380
    0
  9
$PSTYLEMODE
290
    1
  9
$EXTNAMES
290
    1
  9
$PSVPSCALE
 40
0
  9
$OLESTARTUP
290
    0
  9
$SORTENTS
280
  127
  9
$INDEXCTL
280
    0
  9
$HIDETEXT
280
    1
  9
$XCLIPFRAME
290
    2
  9
$HALOGAP
280
    0
  9
$OBSCOLOR
 70
  257
  9
$OBSLTYPE
280
    0
  9
$INTERSECTIONDISPLAY
280
    0
  9
$INTERSECTIONCOLOR
 70
  257
  9
$DIMASSOC
280
    2
  9
$PROJECTNAME
  1

  9
$CAMERADISPLAY
290
    0
  9
$LENSLENGTH
 40
50
  9
$CAMERAHEIGHT
 40
0
  9
$STEPSPERSEC
 40
2
  9
$STEPSIZE
 40
6
  9
$3DDWFPREC
 40
2
  9
$PSOLWIDTH
 40
0.25
  9
$PSOLHEIGHT
 40
4
  9
$LOFTANG1
 40
1.570796326794896
  9
$LOFTANG2
 40
1.570796326794896
  9
$LOFTMAG1
 40
0
  9
$LOFTMAG2
 40
0
  9
$LOFTPARAM
 70
    7
  9
$LOFTNORMALS
280
    1
  9
$LATITUDE
 40
37.795
  9
$LONGITUDE
 40
-122.394
  9
$NORTHDIRECTION
 40
0
  9
$TIMEZONE
 70
-8000
  9
$LIGHTGLYPHDISPLAY
280
    1
  9
$TILEMODELIGHTSYNCH
280
    1
  9
$SOLIDHIST
280
    0
  9
$SHOWHIST
280
    1
  9
$DWFFRAME
280
    2
  9
$DGNFRAME
280
    0
  9
$REALWORLDSCALE
290
    1
  9
$INTERFERECOLOR
 62
    1
  9
$CSHADOW
280
    0
  9
$SHADOWPLANELOCATION
 40
0
  0
ENDSEC
  0
SECTION
  2
CLASSES
  0
ENDSEC
  0
SECTION
  2
TABLES
  0
TABLE
  2
VPORT
  5
8
330
0
100
AcDbSymbolTable
 70
    1
  0
VPORT
  5
31
330
2
100
AcDbSymbolTableRecord
100
AcDbViewportTableRecord
  2
*ACTIVE
 70
    0
 10
0
 20
0
 11
1
 21
1
 12
5.257136995289783
 22
3.590739209399641
 13
0
 23
0
 14
10
 24
10
 15
10
 25
10
 16
0
 26
0
 36
1
 17
0
 27
0
 37
0
 40
6.706534578103321
 41
1.476190476190476
 42
50
 43
0
 44
0
 50
0
 51
0
 71
    0
 72
  100
 73
    1
 74
    3
 75
    0
 76
    0
 77
    0
 78
    0
281
    0
 65
    1
110
0
120
0
130
0
111
1
121
0
131
0
112
0
122
1
132
0
 79
    0
146
0
348
10020
 60
    7
 61
    5
292
1
282
    1
141
0
142
0
 63
  250
421
3358443
  0
ENDTAB
  0
TABLE
  2
LTYPE
  5
5
330
0
100
AcDbSymbolTable
 70
    4
  0
LTYPE
  5
14
330
5
100
AcDbSymbolTableRecord
100
AcDbLinetypeTableRecord
  2
ByBlock
 70
    0
  3

 72
   65
 73
    0
 40
0
  0
LTYPE
  5
15
330
5
100
AcDbSymbolTableRecord
100
AcDbLinetypeTableRecord
  2
ByLayer
 70
    0
  3

 72
   65
 73
    0
 40
0
  0
LTYPE
  5
16
330
5
100
AcDbSymbolTableRecord
100
AcDbLinetypeTableRecord
  2
Continuous
 70
    0
  3
Solid line
 72
   65
 73
    0
 40
0
  0
LTYPE
  5
32
330
5
100
AcDbSymbolTableRecord
100
AcDbLinetypeTableRecord
  2
DOT
 70
    0
  3
Dot . . . . . . . . . . . . . . . . . . . . . .
 72
   65
 73
    2
 40
6.35
 49
0
 74
    0
 49
-6.35
 74
    0
  0
LTYPE
  5
33
330
5
100
AcDbSymbolTableRecord
100
AcDbLinetypeTableRecord
  2
DOTTINY
 70
    0
  3
Dot (.15x) .....................................
 72
   65
 73
    2
 40
0.9525
 49
0
 74
    0
 49
-0.9525
 74
    0
  0
LTYPE
  5
34
330
5
100
AcDbSymbolTableRecord
100
AcDbLinetypeTableRecord
  2
DOT2
 70
    0
  3
Dot (.5x) .....................................
 72
   65
 73
    2
 40
3.175
 49
0
 74
    0
 49
-3.175
 74
    0
  0
LTYPE
  5
35
330
5
100
AcDbSymbolTableRecord
100
AcDbLinetypeTableRecord
  2
DOTX2
 70
    0
  3
Dot (2x) .  .  .  .  .  .  .  .  .  .  .  .  .
 72
   65
 73
    2
 40
12.7
 49
0
 74
    0
 49
-12.7
 74
    0
  0
LTYPE
  5
36
330
5
100
AcDbSymbolTableRecord
100
AcDbLinetypeTableRecord
  2
DASHED
 70
    0
  3
Dashed _ _ _ _ _ _ _ _ _ _ _ _ _ _ _ _ _
 72
   65
 73
    2
 40
19.05
 49
12.7
 74
    0
 49
-6.35
 74
    0
  0
LTYPE
  5
37
330
5
100
AcDbSymbolTableRecord
100
AcDbLinetypeTableRecord
  2
DASHEDTINY
 70
    0
  3
Dashed (.15x) _ _ _ _ _ _ _ _ _ _ _ _ _ _ _ _ _
 72
   65
 73
    2
 40
2.8575
 49
1.905
 74
    0
 49
-0.9525
 74
    0
  0
LTYPE
  5
38
330
5
100
AcDbSymbolTableRecord
100
AcDbLinetypeTableRecord
  2
DASHED2
 70
    0
  3
Dashed (.5x) _ _ _ _ _ _ _ _ _ _ _ _ _ _ _ _ _
 72
   65
 73
    2
 40
9.524999999999999
 49
6.35
 74
    0
 49
-3.175
 74
    0
  0
LTYPE
  5
39
330
5
100
AcDbSymbolTableRecord
100
AcDbLinetypeTableRecord
  2
DASHEDX2
 70
    0
  3
Dashed (2x) ____  ____  ____  ____  ____  ___
 72
   65
 73
    2
 40
38.09999999999999
 49
25.4
 74
    0
 49
-12.7
 74
    0
  0
LTYPE
  5
3A
330
5
100
AcDbSymbolTableRecord
100
AcDbLinetypeTableRecord
  2
DASHDOT
 70
    0
  3
Dash dot __ . __ . __ . __ . __ . __ . __ . __
 72
   65
 73
    4
 40
25.4
 49
12.7
 74
    0
 49
-6.35
 74
    0
 49
0
 74
    0
 49
-6.35
 74
    0
  0
LTYPE
  5
3B
330
5
100
AcDbSymbolTableRecord
100
AcDbLinetypeTableRecord
  2
DASHDOTTINY
 70
    0
  3
Dash dot (.15x) _._._._._._._._._._._._._._._.
 72
   65
 73
    4
 40
3.81
 49
1.905
 74
    0
 49
-0.9525
 74
    0
 49
0
 74
    0
 49
-0.9525
 74
    0
  0
LTYPE
  5
3C
330
5
100
AcDbSymbolTableRecord
100
AcDbLinetypeTableRecord
  2
DASHDOT2
 70
    0
  3
Dash dot (.5x) _._._._._._._._._._._._._._._.
 72
   65
 73
    4
 40
12.7
 49
6.35
 74
    0
 49
-3.175
 74
    0
 49
0
 74
    0
 49
-3.175
 74
    0
  0
LTYPE
  5
3D
330
5
100
AcDbSymbolTableRecord
100
AcDbLinetypeTableRecord
  2
DASHDOTX2
 70
    0
  3
Dash dot (2x) ____  .  ____  .  ____  .  ___
 72
   65
 73
    4
 40
50.8
 49
25.4
 74
    0
 49
-12.7
 74
    0
 49
0
 74
    0
 49
-12.7
 74
    0
  0
LTYPE
  5
3E
330
5
100
AcDbSymbolTableRecord
100
AcDbLinetypeTableRecord
  2
DIVIDE
 70
    0
  3
Divide ____ . . ____ . . ____ . . ____ . . ____
 72
   65
 73
    6
 40
31.75
 49
12.7
 74
    0
 49
-6.35
 74
    0
 49
0
 74
    0
 49
-6.35
 74
    0
 49
0
 74
    0
 49
-6.35
 74
    0
  0
LTYPE
  5
3F
330
5
100
AcDbSymbolTableRecord
100
AcDbLinetypeTableRecord
  2
DIVIDETINY
 70
    0
  3
Divide (.15x) __..__..__..__..__..__..__..__.._
 72
   65
 73
    6
 40
4.7625
 49
1.905
 74
    0
 49
-0.9525
 74
    0
 49
0
 74
    0
 49
-0.9525
 74
    0
 49
0
 74
    0
 49
-0.9525
 74
    0
  0
LTYPE
  5
40
330
5
100
AcDbSymbolTableRecord
100
AcDbLinetypeTableRecord
  2
DIVIDE2
 70
    0
  3
Divide (.5x) __..__..__..__..__..__..__..__.._
 72
   65
 73
    6
 40
15.875
 49
6.35
 74
    0
 49
-3.175
 74
    0
 49
0
 74
    0
 49
-3.175
 74
    0
 49
0
 74
    0
 49
-3.175
 74
    0
  0
LTYPE
  5
41
330
5
100
AcDbSymbolTableRecord
100
AcDbLinetypeTableRecord
  2
DIVIDEX2
 70
    0
  3
Divide (2x) ________  .  .  ________  .  .  _
 72
   65
 73
    6
 40
63.5
 49
25.4
 74
    0
 49
-12.7
 74
    0
 49
0
 74
    0
 49
-12.7
 74
    0
 49
0
 74
    0
 49
-12.7
 74
    0
  0
LTYPE
  5
42
330
5
100
AcDbSymbolTableRecord
100
AcDbLinetypeTableRecord
  2
BORDER
 70
    0
  3
Border __ __ . __ __ . __ __ . __ __ . __ __ .
 72
   65
 73
    6
 40
44.45
 49
12.7
 74
    0
 49
-6.35
 74
    0
 49
12.7
 74
    0
 49
-6.35
 74
    0
 49
0
 74
    0
 49
-6.35
 74
    0
  0
LTYPE
  5
43
330
5
100
AcDbSymbolTableRecord
100
AcDbLinetypeTableRecord
  2
BORDERTINY
 70
    0
  3
Border (.15x) __.__.__.__.__.__.__.__.__.__.__.
 72
   65
 73
    6
 40
6.6675
 49
1.905
 74
    0
 49
-0.9525
 74
    0
 49
1.905
 74
    0
 49
-0.9525
 74
    0
 49
0
 74
    0
 49
-0.9525
 74
    0
  0
LTYPE
  5
44
330
5
100
AcDbSymbolTableRecord
100
AcDbLinetypeTableRecord
  2
BORDER2
 70
    0
  3
Border (.5x) __.__.__.__.__.__.__.__.__.__.__.
 72
   65
 73
    6
 40
22.225
 49
6.35
 74
    0
 49
-3.175
 74
    0
 49
6.35
 74
    0
 49
-3.175
 74
    0
 49
0
 74
    0
 49
-3.175
 74
    0
  0
LTYPE
  5
45
330
5
100
AcDbSymbolTableRecord
100
AcDbLinetypeTableRecord
  2
BORDERX2
 70
    0
  3
Border (2x) ____  ____  .  ____  ____  .  ___
 72
   65
 73
    6
 40
88.89999999999999
 49
25.4
 74
    0
 49
-12.7
 74
    0
 49
25.4
 74
    0
 49
-12.7
 74
    0
 49
0
 74
    0
 49
-12.7
 74
    0
  0
LTYPE
  5
46
330
5
100
AcDbSymbolTableRecord
100
AcDbLinetypeTableRecord
  2
CENTER
 70
    0
  3
Center ____ _ ____ _ ____ _ ____ _ ____ _ ____
 72
   65
 73
    4
 40
50.8
 49
31.75
 74
    0
 49
-6.35
 74
    0
 49
6.35
 74
    0
 49
-6.35
 74
    0
  0
LTYPE
  5
47
330
5
100
AcDbSymbolTableRecord
100
AcDbLinetypeTableRecord
  2
CENTERTINY
 70
    0
  3
Center (.15x) ___ _ ___ _ ___ _ ___ _ ___ _ ___
 72
   65
 73
    4
 40
7.62
 49
4.7625
 74
    0
 49
-0.9525
 74
    0
 49
0.9525
 74
    0
 49
-0.9525
 74
    0
  0
LTYPE
  5
48
330
5
100
AcDbSymbolTableRecord
100
AcDbLinetypeTableRecord
  2
CENTER2
 70
    0
  3
Center (.5x) ___ _ ___ _ ___ _ ___ _ ___ _ ___
 72
   65
 73
    4
 40
28.575
 49
19.05
 74
    0
 49
-3.175
 74
    0
 49
3.175
 74
    0
 49
-3.175
 74
    0
  0
LTYPE
  5
49
330
5
100
AcDbSymbolTableRecord
100
AcDbLinetypeTableRecord
  2
CENTERX2
 70
    0
  3
Center (2x) ________  __  ________  __  _____
 72
   65
 73
    4
 40
101.6
 49
63.5
 74
    0
 49
-12.7
 74
    0
 49
12.7
 74
    0
 49
-12.7
 74
    0
  0
ENDTAB
  0
TABLE
  2
LAYER
  5
2
330
0
100
AcDbSymbolTable
 70
    1
  0
LAYER
  5
10
330
2
100
AcDbSymbolTableRecord
100
AcDbLayerTableRecord
  2
0
 70
    1
 62
    7
  6
CONTINUOUS
370
   -3
390
F
  0
LAYER
  5
4A
330
2
100
AcDbSymbolTableRecord
100
AcDbLayerTableRecord
  2
Layer 1
 70
    1
 62
    7
  6
CONTINUOUS
370
    0
390
F
  0
LAYER
  5
4B
330
2
100
AcDbSymbolTableRecord
100
AcDbLayerTableRecord
  2
noname
 70
    1
 62
    7
  6
CONTINUOUS
370
    0
390
F
  0
LAYER
  5
4C
330
2
100
AcDbSymbolTableRecord
100
AcDbLayerTableRecord
  2
schematic
 70
    0
 62
    7
  6
CONTINUOUS
370
    0
390
F
  0
ENDTAB
  0
TABLE
  2
STYLE
  5
3
330
0
100
AcDbSymbolTable
 70
    3
  0
STYLE
  5
4D
330
2
100
AcDbSymbolTableRecord
100
AcDbTextStyleTableRecord
  2
STANDARD
 70
    0
 40
0
 41
1
 50
0
 71
    0
 42
1
  3
STANDARD
  4

  0
ENDTAB
  0
TABLE
  2
VIEW
  5
6
330
0
100
AcDbSymbolTable
 70
    0
  0
ENDTAB
  0
TABLE
  2
UCS
  5
7
330
0
100
AcDbSymbolTable
 70
    0
  0
ENDTAB
  0
TABLE
  2
APPID
  5
9
330
0
100
AcDbSymbolTable
 70
    1
  0
APPID
  5
12
330
9
100
AcDbSymbolTableRecord
100
AcDbRegAppTableRecord
  2
ACAD
 70
    0
  0
APPID
  5
4E
330
9
100
AcDbSymbolTableRecord
100
AcDbRegAppTableRecord
  2
LibreCad
 70
    0
  0
ENDTAB
  0
TABLE
  2
DIMSTYLE
  5
A
330
0
100
AcDbSymbolTable
 70
    1
100
AcDbDimStyleTable
 71
    1
  0
DIMSTYLE
105
4F
330
A
100
AcDbSymbolTableRecord
100
AcDbDimStyleTableRecord
  2
Standard
 70
    0
 40
1
 41
0.18
 42
0.0625
 43
0.38
 44
0.18
 45
0
 46
0
 47
0
 48
0
 49
1
140
0.18
141
0.09
142
0
143
25.4
144
1
145
0
146
1
147
0.09
148
0
 71
    0
 72
    0
 73
    1
 74
    1
 75
    0
 76
    0
 77
    0
 78
    0
 79
    0
170
    0
171
    2
172
    0
173
    0
174
    0
175
    0
176
    0
177
    0
178
    0
179
    0
271
    4
272
    4
273
    2
274
    2
275
    0
276
    0
277
    2
278
   46
279
    0
280
    0
281
    0
282
    0
283
    1
284
    0
285
    0
286
    0
288
    0
289
    3
340
Standard
341

371
   -2
372
   -2
  0
ENDTAB
  0
TABLE
  2
BLOCK_RECORD
  5
1
330
0
100
AcDbSymbolTable
 70
    2
  0
BLOCK_RECORD
  5
1F
330
1
100
AcDbSymbolTableRecord
100
AcDbBlockTableRecord
  2
*Model_Space
 70
    0
280
    1
281
    0
  0
BLOCK_RECORD
  5
1E
330
1
100
AcDbSymbolTableRecord
100
AcDbBlockTableRecord
  2
*Paper_Space
 70
    0
280
    1
281
    0
  0
BLOCK_RECORD
  5
50
330
1
100
AcDbSymbolTableRecord
100
AcDbBlockTableRecord
  2
Block_0
 70
    0
280
    1
281
    0
  0
BLOCK_RECORD
  5
53
330
1
100
AcDbSymbolTableRecord
100
AcDbBlockTableRecord
  2
Block_1
 70
    0
280
    1
281
    0
  0
BLOCK_RECORD
  5
56
330
1
100
AcDbSymbolTableRecord
100
AcDbBlockTableRecord
  2
Block_2
 70
    0
280
    1
281
    0
  0
BLOCK_RECORD
  5
59
330
1
100
AcDbSymbolTableRecord
100
AcDbBlockTableRecord
  2
Block_3
 70
    0
280
    1
281
    0
  0
BLOCK_RECORD
  5
5C
330
1
100
AcDbSymbolTableRecord
100
AcDbBlockTableRecord
  2
Block_4
 70
    0
280
    1
281
    0
  0
BLOCK_RECORD
  5
5F
330
1
100
AcDbSymbolTableRecord
100
AcDbBlockTableRecord
  2
Block_5
 70
    0
280
    1
281
    0
  0
ENDTAB
  0
ENDSEC
  0
SECTION
  2
BLOCKS
  0
BLOCK
  5
20
330
1F
100
AcDbEntity
  8
0
100
AcDbBlockBegin
  2
*Model_Space
 70
    0
 10
0
 20
0
 30
0
  3
*Model_Space
  1

  0
ENDBLK
  5
21
330
1F
100
AcDbEntity
  8
0
100
AcDbBlockEnd
  0
BLOCK
  5
1C
330
1B
100
AcDbEntity
  8
0
100
AcDbBlockBegin
  2
*Paper_Space
 70
    0
 10
0
 20
0
 30
0
  3
*Paper_Space
  1

  0
ENDBLK
  5
1D
330
1F
100
AcDbEntity
  8
0
100
AcDbBlockEnd
  0
BLOCK
  5
51
330
50
100
AcDbEntity
  8
0
100
AcDbBlockBegin
  2
Block_0
 70
    0
 10
0
 20
0
  3
Block_0
  1

  0
LINE
  5
62
100
AcDbEntity
  8
Layer 1
  6
ByLayer
 62
  255
370
    5
100
AcDbLine
 10
1.003333303663465
 20
6.969999949137369
 11
10.33000013563368
 21
1.396666632758246
  0
LINE
  5
63
100
AcDbEntity
  8
Layer 1
  6
ByLayer
 62
  255
370
    5
100
AcDbLine
 10
10.33000013563368
 20
6.969999949137369
 11
1.003333303663465
 21
1.396666632758246
  0
LWPOLYLINE
  5
64
100
AcDbEntity
  8
Layer 1
  6
ByLayer
 62
  256
370
   -1
100
AcDbPolyline
 90
    4
 70
    1
 43
0
 10
1.003333303663465
 20
6.969999949137369
 10
10.32999928792317
 20
6.969999949137369
 10
10.32999928792317
 20
1.396666632758246
 10
1.003333303663465
 20
1.396666632758246
  0
ENDBLK
  5
52
330
50
100
AcDbEntity
  8
0
100
AcDbBlockEnd
  0
BLOCK
  5
54
330
53
100
AcDbEntity
  8
0
100
AcDbBlockBegin
  2
Block_1
 70
    0
 10
0
 20
0
  3
Block_1
  1

  0
LINE
  5
65
100
AcDbEntity
  8
schematic
  6
ByLayer
 62
   30
420
16088080
370
   25
100
AcDbLine
 10
2.328333324856228
 20
5.1000001695421
 11
3.528333452012803
 21
5.1000001695421
  0
LINE
  5
66
100
AcDbEntity
  8
schematic
  6
ByLayer
 62
   30
420
16088080
370
   25
100
AcDbLine
 10
3.528333452012803
 20
5.1000001695421
 11
3.528333452012803
 21
3.101666768391926
  0
LINE
  5
67
100
AcDbEntity
  8
schematic
  6
ByLayer
 62
   30
420
16088080
370
   25
100
AcDbLine
 10
3.528333452012803
 20
3.101666768391926
 11
2.328333324856228
 21
3.101666768391926
  0
LINE
  5
68
100
AcDbEntity
  8
schematic
  6
ByLayer
 62
   30
420
16088080
370
   25
100
AcDbLine
 10
2.328333324856228
 20
3.101666768391926
 11
2.328333324856228
 21
5.1000001695421
  0
LINE
  5
69
100
AcDbEntity
  8
schematic
  6
ByLayer
 62
   30
420
16088080
370
   15
100
AcDbLine
 10
2.128333409627278
 20
5
 11
2.328333324856228
 21
5
  0
LINE
  5
6A
100
AcDbEntity
  8
schematic
  6
ByLayer
 62
   30
420
16088080
370
   15
100
AcDbLine
 10
2.128333409627278
 20
4.899999830457899
 11
2.328333324856228
 21
4.899999830457899
  0
LINE
  5
6B
100
AcDbEntity
  8
schematic
  6
ByLayer
 62
   30
420
16088080
370
   15
100
AcDbLine
 10
2.128333409627278
 20
4.799999660915798
 11
2.328333324856228
 21
4.799999660915798
  0
LINE
  5
6C
100
AcDbEntity
  8
schematic
  6
ByLayer
 62
   30
420
16088080
370
   15
100
AcDbLine
 10
2.128333409627278
 20
4.7000003390842
 11
2.328333324856228
 21
4.7000003390842
  0
LINE
  5
6D
100
AcDbEntity
  8
schematic
  6
ByLayer
 62
   30
420
16088080
370
   15
100
AcDbLine
 10
2.128333409627278
 20
4.6000001695421
 11
2.328333324856228
 21
4.6000001695421
  0
LINE
  5
6E
100
AcDbEntity
  8
schematic
  6
ByLayer
 62
   30
420
16088080
370
   15
100
AcDbLine
 10
2.128333409627278
 20
4.5
 11
2.328333324856228
 21
4.5
  0
LINE
  5
6F
100
AcDbEntity
  8
schematic
  6
ByLayer
 62
   30
420
16088080
370
   15
100
AcDbLine
 10
2.128333409627278
 20
4.399999830457899
 11
2.328333324856228
 21
4.399999830457899
  0
LINE
  5
70
100
AcDbEntity
  8
schematic
  6
ByLayer
 62
   30
420
16088080
370
   15
100
AcDbLine
 10
2.128333409627278
 20
4.299999660915798
 11
2.328333324856228
 21
4.299999660915798
  0
LINE
  5
71
100
AcDbEntity
  8
schematic
  6
ByLayer
 62
   30
420
16088080
370
   15
100
AcDbLine
 10
2.128333409627278
 20
4.2000003390842
 11
2.328333324856228
 21
4.2000003390842
  0
LINE
  5
72
100
AcDbEntity
  8
schematic
  6
ByLayer
 62
   30
420
16088080
370
   15
100
AcDbLine
 10
2.128333409627278
 20
4.1000001695421
 11
2.328333324856228
 21
4.1000001695421
  0
LINE
  5
73
100
AcDbEntity
  8
schematic
  6
ByLayer
 62
   30
420
16088080
370
   15
100
AcDbLine
 10
2.128333409627278
 20
4
 11
2.328333324856228
 21
4
  0
LINE
  5
74
100
AcDbEntity
  8
schematic
  6
ByLayer
 62
   30
420
16088080
370
   15
100
AcDbLine
 10
2.128333409627278
 20
3.899999830457899
 11
2.328333324856228
 21
3.899999830457899
  0
LINE
  5
75
100
AcDbEntity
  8
schematic
  6
ByLayer
 62
   30
420
16088080
370
   15
100
AcDbLine
 10
2.128333409627278
 20
3.801666683620876
 11
2.328333324856228
 21
3.801666683620876
  0
LINE
  5
76
100
AcDbEntity
  8
schematic
  6
ByLayer
 62
   30
420
16088080
370
   15
100
AcDbLine
 10
2.128333409627278
 20
3.701666514078775
 11
2.328333324856228
 21
3.701666514078775
  0
LINE
  5
77
100
AcDbEntity
  8
schematic
  6
ByLayer
 62
   30
420
16088080
370
   15
100
AcDbLine
 10
2.128333409627278
 20
3.601666768391926
 11
2.328333324856228
 21
3.601666768391926
  0
LINE
  5
78
100
AcDbEntity
  8
schematic
  6
ByLayer
 62
   30
420
16088080
370
   15
100
AcDbLine
 10
2.128333409627278
 20
3.501666598849826
 11
2.328333324856228
 21
3.501666598849826
  0
LINE
  5
79
100
AcDbEntity
  8
schematic
  6
ByLayer
 62
   30
420
16088080
370
   15
100
AcDbLine
 10
2.128333409627278
 20
3.401666429307725
 11
2.328333324856228
 21
3.401666429307725
  0
LINE
  5
7A
100
AcDbEntity
  8
schematic
  6
ByLayer
 62
   30
420
16088080
370
   15
100
AcDbLine
 10
2.128333409627278
 20
3.301666683620876
 11
2.328333324856228
 21
3.301666683620876
  0
LINE
  5
7B
100
AcDbEntity
  8
schematic
  6
ByLayer
 62
   30
420
16088080
370
   15
100
AcDbLine
 10
2.128333409627278
 20
3.201666514078775
 11
2.328333324856228
 21
3.201666514078775
  0
LINE
  5
7C
100
AcDbEntity
  8
schematic
  6
ByLayer
 62
   30
420
16088080
370
   15
100
AcDbLine
 10
3.528333452012803
 20
3.161666870117187
 11
3.450000127156575
 21
3.201666514078775
  0
LINE
  5
7D
100
AcDbEntity
  8
schematic
  6
ByLayer
 62
   30
420
16088080
370
   15
100
AcDbLine
 10
3.450000127156575
 20
3.201666514078775
 11
3.528333452012803
 21
3.239999983045789
  0
LINE
  5
7E
100
AcDbEntity
  8
schematic
  6
ByLayer
 62
   30
420
16088080
370
   15
100
AcDbLine
 10
3.726666768391926
 20
3.201666514078775
 11
3.528333452012803
 21
3.201666514078775
  0
LINE
  5
7F
100
AcDbEntity
  8
schematic
  6
ByLayer
 62
   30
420
16088080
370
   15
100
AcDbLine
 10
3.726666768391926
 20
3.301666683620876
 11
3.528333452012803
 21
3.301666683620876
  0
LINE
  5
80
100
AcDbEntity
  8
schematic
  6
ByLayer
 62
   30
420
16088080
370
   15
100
AcDbLine
 10
3.726666768391926
 20
3.401666429307725
 11
3.528333452012803
 21
3.401666429307725
  0
LINE
  5
81
100
AcDbEntity
  8
schematic
  6
ByLayer
 62
   30
420
16088080
370
   15
100
AcDbLine
 10
3.726666768391926
 20
3.501666598849826
 11
3.528333452012803
 21
3.501666598849826
  0
LINE
  5
82
100
AcDbEntity
  8
schematic
  6
ByLayer
 62
   30
420
16088080
370
   15
100
AcDbLine
 10
3.726666768391926
 20
3.601666768391926
 11
3.528333452012803
 21
3.601666768391926
  0
LINE
  5
83
100
AcDbEntity
  8
schematic
  6
ByLayer
 62
   30
420
16088080
370
   15
100
AcDbLine
 10
3.726666768391926
 20
3.701666514078775
 11
3.528333452012803
 21
3.701666514078775
  0
LINE
  5
84
100
AcDbEntity
  8
schematic
  6
ByLayer
 62
   30
420
16088080
370
   15
100
AcDbLine
 10
3.726666768391926
 20
3.801666683620876
 11
3.528333452012803
 21
3.801666683620876
  0
LINE
  5
85
100
AcDbEntity
  8
schematic
  6
ByLayer
 62
   30
420
16088080
370
   15
100
AcDbLine
 10
3.726666768391926
 20
3.899999830457899
 11
3.528333452012803
 21
3.899999830457899
  0
LINE
  5
86
100
AcDbEntity
  8
schematic
  6
ByLayer
 62
   30
420
16088080
370
   15
100
AcDbLine
 10
3.726666768391926
 20
4
 11
3.528333452012803
 21
4
  0
LINE
  5
87
100
AcDbEntity
  8
schematic
  6
ByLayer
 62
   30
420
16088080
370
   15
100
AcDbLine
 10
3.726666768391926
 20
4.1000001695421
 11
3.528333452012803
 21
4.1000001695421
  0
LINE
  5
88
100
AcDbEntity
  8
schematic
  6
ByLayer
 62
   30
420
16088080
370
   15
100
AcDbLine
 10
3.726666768391926
 20
4.2000003390842
 11
3.528333452012803
 21
4.2000003390842
  0
LINE
  5
89
100
AcDbEntity
  8
schematic
  6
ByLayer
 62
   30
420
16088080
370
   15
100
AcDbLine
 10
3.726666768391926
 20
4.299999660915798
 11
3.528333452012803
 21
4.299999660915798
  0
LINE
  5
8A
100
AcDbEntity
  8
schematic
  6
ByLayer
 62
   30
420
16088080
370
   15
100
AcDbLine
 10
3.726666768391926
 20
4.399999830457899
 11
3.528333452012803
 21
4.399999830457899
  0
LINE
  5
8B
100
AcDbEntity
  8
schematic
  6
ByLayer
 62
   30
420
16088080
370
   15
100
AcDbLine
 10
3.726666768391926
 20
4.5
 11
3.528333452012803
 21
4.5
  0
LINE
  5
8C
100
AcDbEntity
  8
schematic
  6
ByLayer
 62
   30
420
16088080
370
   15
100
AcDbLine
 10
3.726666768391926
 20
4.6000001695421
 11
3.528333452012803
 21
4.6000001695421
  0
LINE
  5
8D
100
AcDbEntity
  8
schematic
  6
ByLayer
 62
   30
420
16088080
370
   15
100
AcDbLine
 10
3.726666768391926
 20
4.7000003390842
 11
3.528333452012803
 21
4.7000003390842
  0
LINE
  5
8E
100
AcDbEntity
  8
schematic
  6
ByLayer
 62
   30
420
16088080
370
   15
100
AcDbLine
 10
3.726666768391926
 20
4.799999660915798
 11
3.528333452012803
 21
4.799999660915798
  0
LINE
  5
8F
100
AcDbEntity
  8
schematic
  6
ByLayer
 62
   30
420
16088080
370
   15
100
AcDbLine
 10
3.726666768391926
 20
4.899999830457899
 11
3.528333452012803
 21
4.899999830457899
  0
LINE
  5
90
100
AcDbEntity
  8
schematic
  6
ByLayer
 62
   30
420
16088080
370
   15
100
AcDbLine
 10
3.726666768391926
 20
5
 11
3.528333452012803
 21
5
  0
LINE
  5
91
100
AcDbEntity
  8
schematic
  6
ByLayer
 62
   30
420
16088080
370
   15
100
AcDbLine
 10
5.126666598849825
 20
4.5
 11
9.424999660915798
 21
4.5
  0
LINE
  5
92
100
AcDbEntity
  8
schematic
  6
ByLayer
 62
   30
420
16088080
370
   15
100
AcDbLine
 10
9.424999660915798
 20
4.5
 11
9.424999660915798
 21
2.101666768391926
  0
LINE
  5
93
100
AcDbEntity
  8
schematic
  6
ByLayer
 62
   30
420
16088080
370
   15
100
AcDbLine
 10
9.424999660915798
 20
2.101666768391926
 11
5.126666598849825
 21
2.101666768391926
  0
LINE
  5
94
100
AcDbEntity
  8
schematic
  6
ByLayer
 62
   30
420
16088080
370
   15
100
AcDbLine
 10
5.126666598849825
 20
2.101666768391926
 11
5.126666598849825
 21
4.5
  0
LINE
  5
95
100
AcDbEntity
  8
schematic
  6
ByLayer
 62
   30
420
16088080
370
   15
100
AcDbLine
 10
4.926666683620876
 20
3.301666683620876
 11
5.126666598849825
 21
3.301666683620876
  0
LINE
  5
96
100
AcDbEntity
  8
schematic
  6
ByLayer
 62
   30
420
16088080
370
   15
100
AcDbLine
 10
4.926666683620876
 20
3.201666514078775
 11
5.126666598849825
 21
3.201666514078775
  0
LINE
  5
97
100
AcDbEntity
  8
schematic
  6
ByLayer
 62
   30
420
16088080
370
   15
100
AcDbLine
 10
4.926666683620876
 20
3.401666429307725
 11
5.126666598849825
 21
3.401666429307725
  0
LINE
  5
98
100
AcDbEntity
  8
schematic
  6
ByLayer
 62
   30
420
16088080
370
   15
100
AcDbLine
 10
4.926666683620876
 20
3.501666598849826
 11
5.126666598849825
 21
3.501666598849826
  0
LINE
  5
99
100
AcDbEntity
  8
schematic
  6
ByLayer
 62
   30
420
16088080
370
   15
100
AcDbLine
 10
4.926666683620876
 20
3.601666768391926
 11
5.126666598849825
 21
3.601666768391926
  0
LINE
  5
9A
100
AcDbEntity
  8
schematic
  6
ByLayer
 62
   30
420
16088080
370
   15
100
AcDbLine
 10
4.926666683620876
 20
3.701666514078775
 11
5.126666598849825
 21
3.701666514078775
  0
LINE
  5
9B
100
AcDbEntity
  8
schematic
  6
ByLayer
 62
   30
420
16088080
370
   15
100
AcDbLine
 10
4.926666683620876
 20
3.801666683620876
 11
5.126666598849825
 21
3.801666683620876
  0
LINE
  5
9C
100
AcDbEntity
  8
schematic
  6
ByLayer
 62
   30
420
16088080
370
   15
100
AcDbLine
 10
4.926666683620876
 20
3.899999830457899
 11
5.126666598849825
 21
3.899999830457899
  0
LINE
  5
9D
100
AcDbEntity
  8
schematic
  6
ByLayer
 62
   30
420
16088080
370
   15
100
AcDbLine
 10
4.926666683620876
 20
4
 11
5.126666598849825
 21
4
  0
LINE
  5
9E
100
AcDbEntity
  8
schematic
  6
ByLayer
 62
   30
420
16088080
370
   15
100
AcDbLine
 10
4.926666683620876
 20
3.101666768391926
 11
5.126666598849825
 21
3.101666768391926
  0
LINE
  5
9F
100
AcDbEntity
  8
schematic
  6
ByLayer
 62
   30
420
16088080
370
   15
100
AcDbLine
 10
4.926666683620876
 20
3.001666598849826
 11
5.126666598849825
 21
3.001666598849826
  0
LINE
  5
A0
100
AcDbEntity
  8
schematic
  6
ByLayer
 62
   30
420
16088080
370
   15
100
AcDbLine
 10
4.926666683620876
 20
2.901666429307725
 11
5.126666598849825
 21
2.901666429307725
  0
LINE
  5
A1
100
AcDbEntity
  8
schematic
  6
ByLayer
 62
   30
420
16088080
370
   15
100
AcDbLine
 10
4.926666683620876
 20
2.801667107476128
 11
5.126666598849825
 21
2.801667107476128
  0
LINE
  5
A2
100
AcDbEntity
  8
schematic
  6
ByLayer
 62
   30
420
16088080
370
   15
100
AcDbLine
 10
4.926666683620876
 20
2.701666514078775
 11
5.126666598849825
 21
2.701666514078775
  0
LINE
  5
A3
100
AcDbEntity
  8
schematic
  6
ByLayer
 62
   30
420
16088080
370
   15
100
AcDbLine
 10
9.625
 20
3.201666514078775
 11
9.424999660915798
 21
3.201666514078775
  0
LINE
  5
A4
100
AcDbEntity
  8
schematic
  6
ByLayer
 62
   30
420
16088080
370
   15
100
AcDbLine
 10
9.625
 20
3.301666683620876
 11
9.424999660915798
 21
3.301666683620876
  0
LINE
  5
A5
100
AcDbEntity
  8
schematic
  6
ByLayer
 62
   30
420
16088080
370
   15
100
AcDbLine
 10
9.625
 20
3.101666768391926
 11
9.424999660915798
 21
3.101666768391926
  0
LINE
  5
A6
100
AcDbEntity
  8
schematic
  6
ByLayer
 62
   30
420
16088080
370
   15
100
AcDbLine
 10
9.625
 20
3.001666598849826
 11
9.424999660915798
 21
3.001666598849826
  0
LINE
  5
A7
100
AcDbEntity
  8
schematic
  6
ByLayer
 62
   30
420
16088080
370
   15
100
AcDbLine
 10
4.526666429307725
 20
5.399999830457899
 11
4.526666429307725
 21
5.6000001695421
  0
LINE
  5
A8
100
AcDbEntity
  8
schematic
  6
ByLayer
 62
   30
420
16088080
370
   15
100
AcDbLine
 10
4.426666683620876
 20
5.399999830457899
 11
4.426666683620876
 21
5.6000001695421
  0
LINE
  5
A9
100
AcDbEntity
  8
schematic
  6
ByLayer
 62
   30
420
16088080
370
   15
100
AcDbLine
 10
4.626666598849825
 20
5.399999830457899
 11
4.626666598849825
 21
5.6000001695421
  0
LINE
  5
AA
100
AcDbEntity
  8
schematic
  6
ByLayer
 62
   30
420
16088080
370
   15
100
AcDbLine
 10
4.326666514078775
 20
5.399999830457899
 11
4.326666514078775
 21
5.6000001695421
  0
LINE
  5
AB
100
AcDbEntity
  8
schematic
  6
ByLayer
 62
   30
420
16088080
370
   15
100
AcDbLine
 10
4.226666768391926
 20
5.399999830457899
 11
4.226666768391926
 21
5.6000001695421
  0
LINE
  5
AC
100
AcDbEntity
  8
schematic
  6
ByLayer
 62
   30
420
16088080
370
   15
100
AcDbLine
 10
4.126666598849825
 20
5.399999830457899
 11
4.126666598849825
 21
5.6000001695421
  0
LINE
  5
AD
100
AcDbEntity
  8
schematic
  6
ByLayer
 62
   30
420
16088080
370
   15
100
AcDbLine
 10
4.726666768391926
 20
5.399999830457899
 11
4.726666768391926
 21
5.6000001695421
  0
LINE
  5
AE
100
AcDbEntity
  8
schematic
  6
ByLayer
 62
   30
420
16088080
370
   15
100
AcDbLine
 10
4.826666514078775
 20
5.399999830457899
 11
4.826666514078775
 21
5.6000001695421
  0
LINE
  5
AF
100
AcDbEntity
  8
schematic
  6
ByLayer
 62
   30
420
16088080
370
   15
100
AcDbLine
 10
4.926666683620876
 20
5.399999830457899
 11
4.926666683620876
 21
5.6000001695421
  0
LINE
  5
B0
100
AcDbEntity
  8
schematic
  6
ByLayer
 62
   30
420
16088080
370
   15
100
AcDbLine
 10
4.026666429307725
 20
5.6000001695421
 11
5.026666429307725
 21
5.6000001695421
  0
LINE
  5
B1
100
AcDbEntity
  8
schematic
  6
ByLayer
 62
   30
420
16088080
370
   15
100
AcDbLine
 10
5.026666429307725
 20
5.6000001695421
 11
5.026666429307725
 21
6.199999915228949
  0
LINE
  5
B2
100
AcDbEntity
  8
schematic
  6
ByLayer
 62
   30
420
16088080
370
   15
100
AcDbLine
 10
5.026666429307725
 20
6.199999915228949
 11
4.026666429307725
 21
6.199999915228949
  0
LINE
  5
B3
100
AcDbEntity
  8
schematic
  6
ByLayer
 62
   30
420
16088080
370
   15
100
AcDbLine
 10
4.026666429307725
 20
6.199999915228949
 11
4.026666429307725
 21
5.6000001695421
  0
LINE
  5
B4
100
AcDbEntity
  8
schematic
  6
ByLayer
 62
   30
420
16088080
370
   15
100
AcDbLine
 10
5.726666768391926
 20
6.800000084771049
 11
5.726666768391926
 21
6.6000001695421
  0
LINE
  5
B5
100
AcDbEntity
  8
schematic
  6
ByLayer
 62
   30
420
16088080
370
   15
100
AcDbLine
 10
5.626666598849825
 20
6.800000084771049
 11
5.626666598849825
 21
6.6000001695421
  0
LINE
  5
B6
100
AcDbEntity
  8
schematic
  6
ByLayer
 62
   30
420
16088080
370
   15
100
AcDbLine
 10
5.526666429307725
 20
6.800000084771049
 11
5.526666429307725
 21
6.6000001695421
  0
LINE
  5
B7
100
AcDbEntity
  8
schematic
  6
ByLayer
 62
   30
420
16088080
370
   15
100
AcDbLine
 10
5.426667107476128
 20
6.800000084771049
 11
5.426667107476128
 21
6.6000001695421
  0
LINE
  5
B8
100
AcDbEntity
  8
schematic
  6
ByLayer
 62
   30
420
16088080
370
   15
100
AcDbLine
 10
5.326666514078775
 20
6.800000084771049
 11
5.326666514078775
 21
6.6000001695421
  0
LINE
  5
B9
100
AcDbEntity
  8
schematic
  6
ByLayer
 62
   30
420
16088080
370
   15
100
AcDbLine
 10
5.226666768391926
 20
6.800000084771049
 11
5.226666768391926
 21
6.6000001695421
  0
LINE
  5
BA
100
AcDbEntity
  8
schematic
  6
ByLayer
 62
   30
420
16088080
370
   15
100
AcDbLine
 10
5.626666598849825
 20
5.5
 11
5.626666598849825
 21
5.7000003390842
  0
LINE
  5
BB
100
AcDbEntity
  8
schematic
  6
ByLayer
 62
   30
420
16088080
370
   15
100
AcDbLine
 10
5.526666429307725
 20
5.5
 11
5.526666429307725
 21
5.7000003390842
  0
LINE
  5
BC
100
AcDbEntity
  8
schematic
  6
ByLayer
 62
   30
420
16088080
370
   15
100
AcDbLine
 10
5.426667107476128
 20
5.5
 11
5.426667107476128
 21
5.7000003390842
  0
LINE
  5
BD
100
AcDbEntity
  8
schematic
  6
ByLayer
 62
   30
420
16088080
370
   15
100
AcDbLine
 10
5.326666514078775
 20
5.5
 11
5.326666514078775
 21
5.7000003390842
  0
LINE
  5
BE
100
AcDbEntity
  8
schematic
  6
ByLayer
 62
   30
420
16088080
370
   15
100
AcDbLine
 10
5.826666514078775
 20
6.6000001695421
 11
5.126666598849825
 21
6.6000001695421
  0
LINE
  5
BF
100
AcDbEntity
  8
schematic
  6
ByLayer
 62
   30
420
16088080
370
   15
100
AcDbLine
 10
5.126666598849825
 20
6.6000001695421
 11
5.126666598849825
 21
5.7000003390842
  0
LINE
  5
C0
100
AcDbEntity
  8
schematic
  6
ByLayer
 62
   30
420
16088080
370
   15
100
AcDbLine
 10
5.126666598849825
 20
5.7000003390842
 11
5.826666514078775
 21
5.7000003390842
  0
LINE
  5
C1
100
AcDbEntity
  8
schematic
  6
ByLayer
 62
   30
420
16088080
370
   15
100
AcDbLine
 10
5.826666514078775
 20
5.7000003390842
 11
5.826666514078775
 21
6.6000001695421
  0
LINE
  5
C2
100
AcDbEntity
  8
schematic
  6
ByLayer
 62
   30
420
16088080
370
   15
100
AcDbLine
 10
1.52833334604899
 20
3.201666514078775
 11
1.428333282470703
 21
3.201666514078775
  0
LINE
  5
C3
100
AcDbEntity
  8
schematic
  6
ByLayer
 62
   30
420
16088080
370
   15
100
AcDbLine
 10
1.52833334604899
 20
3.301666683620876
 11
1.428333282470703
 21
3.301666683620876
  0
LINE
  5
C4
100
AcDbEntity
  8
schematic
  6
ByLayer
 62
   30
420
16088080
370
   15
100
AcDbLine
 10
1.428333282470703
 20
3.401666429307725
 11
1.428333282470703
 21
3.101666768391926
  0
LINE
  5
C5
100
AcDbEntity
  8
schematic
  6
ByLayer
 62
   30
420
16088080
370
   15
100
AcDbLine
 10
1.428333282470703
 20
3.101666768391926
 11
1.228333367241753
 21
3.101666768391926
  0
LINE
  5
C6
100
AcDbEntity
  8
schematic
  6
ByLayer
 62
   30
420
16088080
370
   15
100
AcDbLine
 10
1.228333367241753
 20
3.101666768391926
 11
1.228333367241753
 21
3.401666429307725
  0
LINE
  5
C7
100
AcDbEntity
  8
schematic
  6
ByLayer
 62
   30
420
16088080
370
   15
100
AcDbLine
 10
1.228333367241753
 20
3.401666429307725
 11
1.428333282470703
 21
3.401666429307725
  0
LINE
  5
C8
100
AcDbEntity
  8
schematic
  6
ByLayer
 62
   30
420
16088080
370
   15
100
AcDbLine
 10
1.428333282470703
 20
3.651666429307725
 11
1.228333367241753
 21
3.651666429307725
  0
LINE
  5
C9
100
AcDbEntity
  8
schematic
  6
ByLayer
 62
   30
420
16088080
370
   15
100
AcDbLine
 10
1.228333367241753
 20
3.651666429307725
 11
1.228333367241753
 21
4.049999660915798
  0
LINE
  5
CA
100
AcDbEntity
  8
schematic
  6
ByLayer
 62
   30
420
16088080
370
   15
100
AcDbLine
 10
1.228333367241753
 20
4.049999660915798
 11
1.428333282470703
 21
4.049999660915798
  0
LINE
  5
CB
100
AcDbEntity
  8
schematic
  6
ByLayer
 62
   30
420
16088080
370
   15
100
AcDbLine
 10
1.428333282470703
 20
4.049999660915798
 11
1.428333282470703
 21
3.651666429307725
  0
LINE
  5
CC
100
AcDbEntity
  8
schematic
  6
ByLayer
 62
   30
420
16088080
370
   15
100
AcDbLine
 10
1.52833334604899
 20
3.701666514078775
 11
1.428333282470703
 21
3.701666514078775
  0
LINE
  5
CD
100
AcDbEntity
  8
schematic
  6
ByLayer
 62
   30
420
16088080
370
   15
100
AcDbLine
 10
1.52833334604899
 20
3.801666683620876
 11
1.428333282470703
 21
3.801666683620876
  0
LINE
  5
CE
100
AcDbEntity
  8
schematic
  6
ByLayer
 62
   30
420
16088080
370
   15
100
AcDbLine
 10
1.52833334604899
 20
3.899999830457899
 11
1.428333282470703
 21
3.899999830457899
  0
LINE
  5
CF
100
AcDbEntity
  8
schematic
  6
ByLayer
 62
   30
420
16088080
370
   15
100
AcDbLine
 10
1.52833334604899
 20
4
 11
1.428333282470703
 21
4
  0
LINE
  5
D0
100
AcDbEntity
  8
schematic
  6
ByLayer
 62
   30
420
16088080
370
   25
100
AcDbLine
 10
1.778333452012803
 20
3.051667107476128
 11
1.878333409627278
 21
3.101666768391926
  0
LINE
  5
D1
100
AcDbEntity
  8
schematic
  6
ByLayer
 62
   30
420
16088080
370
   25
100
AcDbLine
 10
1.878333409627278
 20
3.101666768391926
 11
1.778333452012803
 21
3.151666429307725
  0
LINE
  5
D2
100
AcDbEntity
  8
schematic
  6
ByLayer
 62
   30
420
16088080
370
   25
100
AcDbLine
 10
1.878333409627278
 20
3.151666429307725
 11
1.878333409627278
 21
3.101666768391926
  0
LINE
  5
D3
100
AcDbEntity
  8
schematic
  6
ByLayer
 62
   30
420
16088080
370
   25
100
AcDbLine
 10
1.778333452012803
 20
3.151666429307725
 11
1.778333452012803
 21
3.101666768391926
  0
LINE
  5
D4
100
AcDbEntity
  8
schematic
  6
ByLayer
 62
   30
420
16088080
370
   25
100
AcDbLine
 10
1.778333452012803
 20
3.101666768391926
 11
1.778333452012803
 21
3.051667107476128
  0
LINE
  5
D5
100
AcDbEntity
  8
schematic
  6
ByLayer
 62
   30
420
16088080
370
   25
100
AcDbLine
 10
1.878333409627278
 20
3.101666768391926
 11
1.878333409627278
 21
3.051667107476128
  0
LINE
  5
D6
100
AcDbEntity
  8
schematic
  6
ByLayer
 62
   30
420
16088080
370
   25
100
AcDbLine
 10
1.878333409627278
 20
3.051667107476128
 11
1.853333367241753
 21
3.051667107476128
  0
LINE
  5
D7
100
AcDbEntity
  8
schematic
  6
ByLayer
 62
   30
420
16088080
370
   25
100
AcDbLine
 10
1.778333452012803
 20
3.101666768391926
 11
1.728333367241753
 21
3.101666768391926
  0
LINE
  5
D8
100
AcDbEntity
  8
schematic
  6
ByLayer
 62
   30
420
16088080
370
   25
100
AcDbLine
 10
1.878333409627278
 20
3.101666768391926
 11
1.928333282470703
 21
3.101666768391926
  0
LINE
  5
D9
100
AcDbEntity
  8
schematic
  6
ByLayer
 62
  134
420
37522
370
   15
100
AcDbLine
 10
1.52833334604899
 20
3.301666683620876
 11
1.928333282470703
 21
3.301666683620876
  0
LINE
  5
DA
100
AcDbEntity
  8
schematic
  6
ByLayer
 62
  134
420
37522
370
   15
100
AcDbLine
 10
1.928333282470703
 20
3.301666683620876
 11
1.928333282470703
 21
3.701666514078775
  0
LINE
  5
DB
100
AcDbEntity
  8
schematic
  6
ByLayer
 62
  134
420
37522
370
   15
100
AcDbLine
 10
1.928333282470703
 20
3.701666514078775
 11
2.128333409627278
 21
3.701666514078775
  0
LINE
  5
DC
100
AcDbEntity
  8
schematic
  6
ByLayer
 62
  134
420
37522
370
   15
100
AcDbLine
 10
1.52833334604899
 20
3.701666514078775
 11
1.928333282470703
 21
3.701666514078775
  0
SPLINE
  5
DD
100
AcDbEntity
  8
schematic
  6
ByLayer
 62
  256
370
   -1
100
AcDbSpline
210
0
220
0
230
0
 70
   11
 71
    3
 72
   17
 73
   13
 74
    0
 42
1e-07
 43
1e-07
 40
0
 40
0
 40
0
 40
0
 40
1
 40
1
 40
1
 40
2
 40
2
 40
2
 40
3
 40
3
 40
3
 40
4
 40
4
 40
4
 40
4
 10
1.948333316379123
 20
3.701666514078775
 30
0
 10
1.948333316379123
 20
3.689999898274739
 30
0
 10
1.939999898274739
 20
3.681666904025607
 30
0
 10
1.928333070543077
 20
3.681666904025607
 30
0
 10
1.91666645473904
 20
3.681666904025607
 30
0
 10
1.908333248562282
 20
3.689999898274739
 30
0
 10
1.908333248562282
 20
3.701666514078775
 30
0
 10
1.908333248562282
 20
3.713333553738063
 30
0
 10
1.91666645473904
 20
3.721666547987195
 30
0
 10
1.928333070543077
 20
3.721666547987195
 30
0
 10
1.939999898274739
 20
3.721666547987195
 30
0
 10
1.948333316379123
 20
3.713333553738063
 30
0
 10
1.948333316379123
 20
3.701666514078775
 30
0
  0
SPLINE
  5
DE
100
AcDbEntity
  8
schematic
  6
ByLayer
 62
  134
420
37522
370
    5
100
AcDbSpline
210
0
220
0
230
0
 70
   11
 71
    3
 72
   17
 73
   13
 74
    0
 42
1e-07
 43
1e-07
 40
0
 40
0
 40
0
 40
0
 40
1
 40
1
 40
1
 40
2
 40
2
 40
2
 40
3
 40
3
 40
3
 40
4
 40
4
 40
4
 40
4
 10
1.948333316379123
 20
3.701666514078775
 30
0
 10
1.948333316379123
 20
3.689999898274739
 30
0
 10
1.939999898274739
 20
3.681666904025607
 30
0
 10
1.928333070543077
 20
3.681666904025607
 30
0
 10
1.91666645473904
 20
3.681666904025607
 30
0
 10
1.908333248562282
 20
3.689999898274739
 30
0
 10
1.908333248562282
 20
3.701666514078775
 30
0
 10
1.908333248562282
 20
3.713333553738063
 30
0
 10
1.91666645473904
 20
3.721666547987195
 30
0
 10
1.928333070543077
 20
3.721666547987195
 30
0
 10
1.939999898274739
 20
3.721666547987195
 30
0
 10
1.948333316379123
 20
3.713333553738063
 30
0
 10
1.948333316379123
 20
3.701666514078775
 30
0
  0
LINE
  5
DF
100
AcDbEntity
  8
schematic
  6
ByLayer
 62
  134
420
37522
370
   15
100
AcDbLine
 10
1.52833334604899
 20
3.801666683620876
 11
2.128333409627278
 21
3.801666683620876
  0
LINE
  5
E0
100
AcDbEntity
  8
schematic
  6
ByLayer
 62
  134
420
37522
370
   15
100
AcDbLine
 10
1.52833334604899
 20
3.899999830457899
 11
2.128333409627278
 21
3.899999830457899
  0
LINE
  5
E1
100
AcDbEntity
  8
schematic
  6
ByLayer
 62
  134
420
37522
370
   15
100
AcDbLine
 10
1.52833334604899
 20
4
 11
1.928333282470703
 21
4
  0
LINE
  5
E2
100
AcDbEntity
  8
schematic
  6
ByLayer
 62
  134
420
37522
370
   15
100
AcDbLine
 10
1.928333282470703
 20
4
 11
1.928333282470703
 21
4.1000001695421
  0
LINE
  5
E3
100
AcDbEntity
  8
schematic
  6
ByLayer
 62
  134
420
37522
370
   15
100
AcDbLine
 10
1.928333282470703
 20
4.1000001695421
 11
2.128333409627278
 21
4.1000001695421
  0
LINE
  5
E4
100
AcDbEntity
  8
schematic
  6
ByLayer
 62
  134
420
37522
370
   15
100
AcDbLine
 10
3.726666768391926
 20
5
 11
4.226666768391926
 21
5
  0
LINE
  5
E5
100
AcDbEntity
  8
schematic
  6
ByLayer
 62
  134
420
37522
370
   15
100
AcDbLine
 10
4.226666768391926
 20
5
 11
4.626666598849825
 21
5
  0
LINE
  5
E6
100
AcDbEntity
  8
schematic
  6
ByLayer
 62
  134
420
37522
370
   15
100
AcDbLine
 10
4.226666768391926
 20
5
 11
4.226666768391926
 21
5.399999830457899
  0
LINE
  5
E7
100
AcDbEntity
  8
schematic
  6
ByLayer
 62
  134
420
37522
370
   15
100
AcDbLine
 10
5.326666514078775
 20
5.5
 11
5.326666514078775
 21
5
  0
LINE
  5
E8
100
AcDbEntity
  8
schematic
  6
ByLayer
 62
  134
420
37522
370
   15
100
AcDbLine
 10
5.326666514078775
 20
5
 11
4.626666598849825
 21
5
  0
LINE
  5
E9
100
AcDbEntity
  8
schematic
  6
ByLayer
 62
  134
420
37522
370
   15
100
AcDbLine
 10
4.926666683620876
 20
3.899999830457899
 11
4.626666598849825
 21
3.899999830457899
  0
LINE
  5
EA
100
AcDbEntity
  8
schematic
  6
ByLayer
 62
  134
420
37522
370
   15
100
AcDbLine
 10
4.626666598849825
 20
3.899999830457899
 11
4.626666598849825
 21
5
  0
SPLINE
  5
EB
100
AcDbEntity
  8
schematic
  6
ByLayer
 62
  256
370
   -1
100
AcDbSpline
210
0
220
0
230
0
 70
   11
 71
    3
 72
   17
 73
   13
 74
    0
 42
1e-07
 43
1e-07
 40
0
 40
0
 40
0
 40
0
 40
1
 40
1
 40
1
 40
2
 40
2
 40
2
 40
3
 40
3
 40
3
 40
4
 40
4
 40
4
 40
4
 10
4.246666802300347
 20
5
 30
0
 10
4.246666802300347
 20
4.988333384195962
 30
0
 10
4.238332960340711
 20
4.979999966091579
 30
0
 10
4.226666344536675
 20
4.979999966091579
 30
0
 10
4.214999728732638
 20
4.979999966091579
 30
0
 10
4.206666310628254
 20
4.988333384195962
 30
0
 10
4.206666310628254
 20
5
 30
0
 10
4.206666310628254
 20
5.011667039659287
 30
0
 10
4.214999728732638
 20
5.020000033908419
 30
0
 10
4.226666344536675
 20
5.020000033908419
 30
0
 10
4.238332960340711
 20
5.020000033908419
 30
0
 10
4.246666802300347
 20
5.011667039659287
 30
0
 10
4.246666802300347
 20
5
 30
0
  0
SPLINE
  5
EC
100
AcDbEntity
  8
schematic
  6
ByLayer
 62
  134
420
37522
370
    5
100
AcDbSpline
210
0
220
0
230
0
 70
   11
 71
    3
 72
   17
 73
   13
 74
    0
 42
1e-07
 43
1e-07
 40
0
 40
0
 40
0
 40
0
 40
1
 40
1
 40
1
 40
2
 40
2
 40
2
 40
3
 40
3
 40
3
 40
4
 40
4
 40
4
 40
4
 10
4.246666802300347
 20
5
 30
0
 10
4.246666802300347
 20
4.988333384195962
 30
0
 10
4.238332960340711
 20
4.979999966091579
 30
0
 10
4.226666344536675
 20
4.979999966091579
 30
0
 10
4.214999728732638
 20
4.979999966091579
 30
0
 10
4.206666310628254
 20
4.988333384195962
 30
0
 10
4.206666310628254
 20
5
 30
0
 10
4.206666310628254
 20
5.011667039659287
 30
0
 10
4.214999728732638
 20
5.020000033908419
 30
0
 10
4.226666344536675
 20
5.020000033908419
 30
0
 10
4.238332960340711
 20
5.020000033908419
 30
0
 10
4.246666802300347
 20
5.011667039659287
 30
0
 10
4.246666802300347
 20
5
 30
0
  0
SPLINE
  5
ED
100
AcDbEntity
  8
schematic
  6
ByLayer
 62
  256
370
   -1
100
AcDbSpline
210
0
220
0
230
0
 70
   11
 71
    3
 72
   17
 73
   13
 74
    0
 42
1e-07
 43
1e-07
 40
0
 40
0
 40
0
 40
0
 40
1
 40
1
 40
1
 40
2
 40
2
 40
2
 40
3
 40
3
 40
3
 40
4
 40
4
 40
4
 40
4
 10
4.646666632758246
 20
5
 30
0
 10
4.646666632758246
 20
4.988333384195962
 30
0
 10
4.63833279079861
 20
4.979999966091579
 30
0
 10
4.626666598849825
 20
4.979999966091579
 30
0
 10
4.614999559190537
 20
4.979999966091579
 30
0
 10
4.606666141086154
 20
4.988333384195962
 30
0
 10
4.606666141086154
 20
5
 30
0
 10
4.606666141086154
 20
5.011667039659287
 30
0
 10
4.614999559190537
 20
5.020000033908419
 30
0
 10
4.626666598849825
 20
5.020000033908419
 30
0
 10
4.63833279079861
 20
5.020000033908419
 30
0
 10
4.646666632758246
 20
5.011667039659287
 30
0
 10
4.646666632758246
 20
5
 30
0
  0
SPLINE
  5
EE
100
AcDbEntity
  8
schematic
  6
ByLayer
 62
  134
420
37522
370
    5
100
AcDbSpline
210
0
220
0
230
0
 70
   11
 71
    3
 72
   17
 73
   13
 74
    0
 42
1e-07
 43
1e-07
 40
0
 40
0
 40
0
 40
0
 40
1
 40
1
 40
1
 40
2
 40
2
 40
2
 40
3
 40
3
 40
3
 40
4
 40
4
 40
4
 40
4
 10
4.646666632758246
 20
5
 30
0
 10
4.646666632758246
 20
4.988333384195962
 30
0
 10
4.63833279079861
 20
4.979999966091579
 30
0
 10
4.626666598849825
 20
4.979999966091579
 30
0
 10
4.614999559190537
 20
4.979999966091579
 30
0
 10
4.606666141086154
 20
4.988333384195962
 30
0
 10
4.606666141086154
 20
5
 30
0
 10
4.606666141086154
 20
5.011667039659287
 30
0
 10
4.614999559190537
 20
5.020000033908419
 30
0
 10
4.626666598849825
 20
5.020000033908419
 30
0
 10
4.63833279079861
 20
5.020000033908419
 30
0
 10
4.646666632758246
 20
5.011667039659287
 30
0
 10
4.646666632758246
 20
5
 30
0
  0
LINE
  5
EF
100
AcDbEntity
  8
schematic
  6
ByLayer
 62
  134
420
37522
370
   15
100
AcDbLine
 10
2.128333409627278
 20
5
 11
1.928333282470703
 21
5
  0
LINE
  5
F0
100
AcDbEntity
  8
schematic
  6
ByLayer
 62
  134
420
37522
370
   15
100
AcDbLine
 10
1.928333282470703
 20
5
 11
1.928333282470703
 21
5.2000003390842
  0
LINE
  5
F1
100
AcDbEntity
  8
schematic
  6
ByLayer
 62
  134
420
37522
370
   15
100
AcDbLine
 10
1.928333282470703
 20
5.2000003390842
 11
4.126666598849825
 21
5.2000003390842
  0
LINE
  5
F2
100
AcDbEntity
  8
schematic
  6
ByLayer
 62
  134
420
37522
370
   15
100
AcDbLine
 10
4.126666598849825
 20
5.2000003390842
 11
4.726666768391926
 21
5.2000003390842
  0
LINE
  5
F3
100
AcDbEntity
  8
schematic
  6
ByLayer
 62
  134
420
37522
370
   15
100
AcDbLine
 10
4.126666598849825
 20
5.2000003390842
 11
4.126666598849825
 21
5.399999830457899
  0
LINE
  5
F4
100
AcDbEntity
  8
schematic
  6
ByLayer
 62
  134
420
37522
370
   15
100
AcDbLine
 10
4.726666768391926
 20
5.2000003390842
 11
5.426667107476128
 21
5.2000003390842
  0
LINE
  5
F5
100
AcDbEntity
  8
schematic
  6
ByLayer
 62
  134
420
37522
370
   15
100
AcDbLine
 10
5.426667107476128
 20
5.2000003390842
 11
5.426667107476128
 21
5.5
  0
LINE
  5
F6
100
AcDbEntity
  8
schematic
  6
ByLayer
 62
  134
420
37522
370
   15
100
AcDbLine
 10
4.926666683620876
 20
3.301666683620876
 11
4.726666768391926
 21
3.301666683620876
  0
LINE
  5
F7
100
AcDbEntity
  8
schematic
  6
ByLayer
 62
  134
420
37522
370
   15
100
AcDbLine
 10
4.726666768391926
 20
3.301666683620876
 11
4.726666768391926
 21
4
  0
LINE
  5
F8
100
AcDbEntity
  8
schematic
  6
ByLayer
 62
  134
420
37522
370
   15
100
AcDbLine
 10
4.726666768391926
 20
4
 11
4.726666768391926
 21
5.2000003390842
  0
LINE
  5
F9
100
AcDbEntity
  8
schematic
  6
ByLayer
 62
  134
420
37522
370
   15
100
AcDbLine
 10
4.926666683620876
 20
4
 11
4.726666768391926
 21
4
  0
SPLINE
  5
FA
100
AcDbEntity
  8
schematic
  6
ByLayer
 62
  256
370
   -1
100
AcDbSpline
210
0
220
0
230
0
 70
   11
 71
    3
 72
   17
 73
   13
 74
    0
 42
1e-07
 43
1e-07
 40
0
 40
0
 40
0
 40
0
 40
1
 40
1
 40
1
 40
2
 40
2
 40
2
 40
3
 40
3
 40
3
 40
4
 40
4
 40
4
 40
4
 10
4.146666632758246
 20
5.2000003390842
 30
0
 10
4.146666632758246
 20
5.188333299424912
 30
0
 10
4.13833279079861
 20
5.180000305175781
 30
0
 10
4.126666598849825
 20
5.180000305175781
 30
0
 10
4.114999559190538
 20
5.180000305175781
 30
0
 10
4.106666141086154
 20
5.188333299424912
 30
0
 10
4.106666141086154
 20
5.2000003390842
 30
0
 10
4.106666141086154
 20
5.211666954888237
 30
0
 10
4.114999559190538
 20
5.220000372992621
 30
0
 10
4.126666598849825
 20
5.220000372992621
 30
0
 10
4.13833279079861
 20
5.220000372992621
 30
0
 10
4.146666632758246
 20
5.211666954888237
 30
0
 10
4.146666632758246
 20
5.2000003390842
 30
0
  0
SPLINE
  5
FB
100
AcDbEntity
  8
schematic
  6
ByLayer
 62
  134
420
37522
370
    5
100
AcDbSpline
210
0
220
0
230
0
 70
   11
 71
    3
 72
   17
 73
   13
 74
    0
 42
1e-07
 43
1e-07
 40
0
 40
0
 40
0
 40
0
 40
1
 40
1
 40
1
 40
2
 40
2
 40
2
 40
3
 40
3
 40
3
 40
4
 40
4
 40
4
 40
4
 10
4.146666632758246
 20
5.2000003390842
 30
0
 10
4.146666632758246
 20
5.188333299424912
 30
0
 10
4.13833279079861
 20
5.180000305175781
 30
0
 10
4.126666598849825
 20
5.180000305175781
 30
0
 10
4.114999559190538
 20
5.180000305175781
 30
0
 10
4.106666141086154
 20
5.188333299424912
 30
0
 10
4.106666141086154
 20
5.2000003390842
 30
0
 10
4.106666141086154
 20
5.211666954888237
 30
0
 10
4.114999559190538
 20
5.220000372992621
 30
0
 10
4.126666598849825
 20
5.220000372992621
 30
0
 10
4.13833279079861
 20
5.220000372992621
 30
0
 10
4.146666632758246
 20
5.211666954888237
 30
0
 10
4.146666632758246
 20
5.2000003390842
 30
0
  0
SPLINE
  5
FC
100
AcDbEntity
  8
schematic
  6
ByLayer
 62
  256
370
   -1
100
AcDbSpline
210
0
220
0
230
0
 70
   11
 71
    3
 72
   17
 73
   13
 74
    0
 42
1e-07
 43
1e-07
 40
0
 40
0
 40
0
 40
0
 40
1
 40
1
 40
1
 40
2
 40
2
 40
2
 40
3
 40
3
 40
3
 40
4
 40
4
 40
4
 40
4
 10
4.746666802300347
 20
5.2000003390842
 30
0
 10
4.746666802300347
 20
5.188333299424912
 30
0
 10
4.738332960340711
 20
5.180000305175781
 30
0
 10
4.726666344536675
 20
5.180000305175781
 30
0
 10
4.714999728732638
 20
5.180000305175781
 30
0
 10
4.706666310628254
 20
5.188333299424912
 30
0
 10
4.706666310628254
 20
5.2000003390842
 30
0
 10
4.706666310628254
 20
5.211666954888237
 30
0
 10
4.714999728732638
 20
5.220000372992621
 30
0
 10
4.726666344536675
 20
5.220000372992621
 30
0
 10
4.738332960340711
 20
5.220000372992621
 30
0
 10
4.746666802300347
 20
5.211666954888237
 30
0
 10
4.746666802300347
 20
5.2000003390842
 30
0
  0
SPLINE
  5
FD
100
AcDbEntity
  8
schematic
  6
ByLayer
 62
  134
420
37522
370
    5
100
AcDbSpline
210
0
220
0
230
0
 70
   11
 71
    3
 72
   17
 73
   13
 74
    0
 42
1e-07
 43
1e-07
 40
0
 40
0
 40
0
 40
0
 40
1
 40
1
 40
1
 40
2
 40
2
 40
2
 40
3
 40
3
 40
3
 40
4
 40
4
 40
4
 40
4
 10
4.746666802300347
 20
5.2000003390842
 30
0
 10
4.746666802300347
 20
5.188333299424912
 30
0
 10
4.738332960340711
 20
5.180000305175781
 30
0
 10
4.726666344536675
 20
5.180000305175781
 30
0
 10
4.714999728732638
 20
5.180000305175781
 30
0
 10
4.706666310628254
 20
5.188333299424912
 30
0
 10
4.706666310628254
 20
5.2000003390842
 30
0
 10
4.706666310628254
 20
5.211666954888237
 30
0
 10
4.714999728732638
 20
5.220000372992621
 30
0
 10
4.726666344536675
 20
5.220000372992621
 30
0
 10
4.738332960340711
 20
5.220000372992621
 30
0
 10
4.746666802300347
 20
5.211666954888237
 30
0
 10
4.746666802300347
 20
5.2000003390842
 30
0
  0
SPLINE
  5
FE
100
AcDbEntity
  8
schematic
  6
ByLayer
 62
  256
370
   -1
100
AcDbSpline
210
0
220
0
230
0
 70
   11
 71
    3
 72
   17
 73
   13
 74
    0
 42
1e-07
 43
1e-07
 40
0
 40
0
 40
0
 40
0
 40
1
 40
1
 40
1
 40
2
 40
2
 40
2
 40
3
 40
3
 40
3
 40
4
 40
4
 40
4
 40
4
 10
4.746666802300347
 20
4
 30
0
 10
4.746666802300347
 20
3.988333384195963
 30
0
 10
4.738332960340711
 20
3.979999966091579
 30
0
 10
4.726666344536675
 20
3.979999966091579
 30
0
 10
4.714999728732638
 20
3.979999966091579
 30
0
 10
4.706666310628254
 20
3.988333384195963
 30
0
 10
4.706666310628254
 20
4
 30
0
 10
4.706666310628254
 20
4.011667039659288
 30
0
 10
4.714999728732638
 20
4.020000033908419
 30
0
 10
4.726666344536675
 20
4.020000033908419
 30
0
 10
4.738332960340711
 20
4.020000033908419
 30
0
 10
4.746666802300347
 20
4.011667039659288
 30
0
 10
4.746666802300347
 20
4
 30
0
  0
SPLINE
  5
FF
100
AcDbEntity
  8
schematic
  6
ByLayer
 62
  134
420
37522
370
    5
100
AcDbSpline
210
0
220
0
230
0
 70
   11
 71
    3
 72
   17
 73
   13
 74
    0
 42
1e-07
 43
1e-07
 40
0
 40
0
 40
0
 40
0
 40
1
 40
1
 40
1
 40
2
 40
2
 40
2
 40
3
 40
3
 40
3
 40
4
 40
4
 40
4
 40
4
 10
4.746666802300347
 20
4
 30
0
 10
4.746666802300347
 20
3.988333384195963
 30
0
 10
4.738332960340711
 20
3.979999966091579
 30
0
 10
4.726666344536675
 20
3.979999966091579
 30
0
 10
4.714999728732638
 20
3.979999966091579
 30
0
 10
4.706666310628254
 20
3.988333384195963
 30
0
 10
4.706666310628254
 20
4
 30
0
 10
4.706666310628254
 20
4.011667039659288
 30
0
 10
4.714999728732638
 20
4.020000033908419
 30
0
 10
4.726666344536675
 20
4.020000033908419
 30
0
 10
4.738332960340711
 20
4.020000033908419
 30
0
 10
4.746666802300347
 20
4.011667039659288
 30
0
 10
4.746666802300347
 20
4
 30
0
  0
LINE
  5
100
100
AcDbEntity
  8
schematic
  6
ByLayer
 62
  134
420
37522
370
   15
100
AcDbLine
 10
1.52833334604899
 20
3.201666514078775
 11
1.728333367241753
 21
3.201666514078775
  0
LINE
  5
101
100
AcDbEntity
  8
schematic
  6
ByLayer
 62
  134
420
37522
370
   15
100
AcDbLine
 10
1.728333367241753
 20
3.201666514078775
 11
1.728333367241753
 21
3.101666768391926
  0
LINE
  5
102
100
AcDbEntity
  8
schematic
  6
ByLayer
 62
  134
420
37522
370
   15
100
AcDbLine
 10
1.928333282470703
 20
3.101666768391926
 11
1.928333282470703
 21
3.201666514078775
  0
LINE
  5
103
100
AcDbEntity
  8
schematic
  6
ByLayer
 62
  134
420
37522
370
   15
100
AcDbLine
 10
1.928333282470703
 20
3.201666514078775
 11
2.128333409627278
 21
3.201666514078775
  0
LINE
  5
104
100
AcDbEntity
  8
schematic
  6
ByLayer
 62
  134
420
37522
370
   15
100
AcDbLine
 10
3.726666768391926
 20
4.799999660915798
 11
4.326666514078775
 21
4.799999660915798
  0
LINE
  5
105
100
AcDbEntity
  8
schematic
  6
ByLayer
 62
  134
420
37522
370
   15
100
AcDbLine
 10
4.326666514078775
 20
4.799999660915798
 11
4.326666514078775
 21
5.399999830457899
  0
LINE
  5
106
100
AcDbEntity
  8
schematic
  6
ByLayer
 62
  134
420
37522
370
   15
100
AcDbLine
 10
5.626666598849825
 20
5.5
 11
5.626666598849825
 21
4.799999660915798
  0
LINE
  5
107
100
AcDbEntity
  8
schematic
  6
ByLayer
 62
  134
420
37522
370
   15
100
AcDbLine
 10
5.626666598849825
 20
4.799999660915798
 11
4.326666514078775
 21
4.799999660915798
  0
SPLINE
  5
108
100
AcDbEntity
  8
schematic
  6
ByLayer
 62
  256
370
   -1
100
AcDbSpline
210
0
220
0
230
0
 70
   11
 71
    3
 72
   17
 73
   13
 74
    0
 42
1e-07
 43
1e-07
 40
0
 40
0
 40
0
 40
0
 40
1
 40
1
 40
1
 40
2
 40
2
 40
2
 40
3
 40
3
 40
3
 40
4
 40
4
 40
4
 40
4
 10
4.346666547987195
 20
4.799999660915798
 30
0
 10
4.346666547987195
 20
4.788333468967013
 30
0
 10
4.338333129882812
 20
4.780000050862629
 30
0
 10
4.326666514078775
 20
4.780000050862629
 30
0
 10
4.314999898274739
 20
4.780000050862629
 30
0
 10
4.306666480170355
 20
4.788333468967013
 30
0
 10
4.306666480170355
 20
4.799999660915798
 30
0
 10
4.306666480170355
 20
4.811666700575086
 30
0
 10
4.314999898274739
 20
4.82000011867947
 30
0
 10
4.326666514078775
 20
4.82000011867947
 30
0
 10
4.338333129882812
 20
4.82000011867947
 30
0
 10
4.346666547987195
 20
4.811666700575086
 30
0
 10
4.346666547987195
 20
4.799999660915798
 30
0
  0
SPLINE
  5
109
100
AcDbEntity
  8
schematic
  6
ByLayer
 62
  134
420
37522
370
    5
100
AcDbSpline
210
0
220
0
230
0
 70
   11
 71
    3
 72
   17
 73
   13
 74
    0
 42
1e-07
 43
1e-07
 40
0
 40
0
 40
0
 40
0
 40
1
 40
1
 40
1
 40
2
 40
2
 40
2
 40
3
 40
3
 40
3
 40
4
 40
4
 40
4
 40
4
 10
4.346666547987195
 20
4.799999660915798
 30
0
 10
4.346666547987195
 20
4.788333468967013
 30
0
 10
4.338333129882812
 20
4.780000050862629
 30
0
 10
4.326666514078775
 20
4.780000050862629
 30
0
 10
4.314999898274739
 20
4.780000050862629
 30
0
 10
4.306666480170355
 20
4.788333468967013
 30
0
 10
4.306666480170355
 20
4.799999660915798
 30
0
 10
4.306666480170355
 20
4.811666700575086
 30
0
 10
4.314999898274739
 20
4.82000011867947
 30
0
 10
4.326666514078775
 20
4.82000011867947
 30
0
 10
4.338333129882812
 20
4.82000011867947
 30
0
 10
4.346666547987195
 20
4.811666700575086
 30
0
 10
4.346666547987195
 20
4.799999660915798
 30
0
  0
LINE
  5
10A
100
AcDbEntity
  8
schematic
  6
ByLayer
 62
  134
420
37522
370
   15
100
AcDbLine
 10
3.726666768391926
 20
4.5
 11
4.426666683620876
 21
4.5
  0
LINE
  5
10B
100
AcDbEntity
  8
schematic
  6
ByLayer
 62
  134
420
37522
370
   15
100
AcDbLine
 10
4.426666683620876
 20
4.5
 11
4.426666683620876
 21
4.7000003390842
  0
LINE
  5
10C
100
AcDbEntity
  8
schematic
  6
ByLayer
 62
  134
420
37522
370
   15
100
AcDbLine
 10
4.426666683620876
 20
4.7000003390842
 11
4.426666683620876
 21
5.399999830457899
  0
LINE
  5
10D
100
AcDbEntity
  8
schematic
  6
ByLayer
 62
  134
420
37522
370
   15
100
AcDbLine
 10
5.526666429307725
 20
5.5
 11
5.526666429307725
 21
4.7000003390842
  0
LINE
  5
10E
100
AcDbEntity
  8
schematic
  6
ByLayer
 62
  134
420
37522
370
   15
100
AcDbLine
 10
5.526666429307725
 20
4.7000003390842
 11
4.426666683620876
 21
4.7000003390842
  0
SPLINE
  5
10F
100
AcDbEntity
  8
schematic
  6
ByLayer
 62
  256
370
   -1
100
AcDbSpline
210
0
220
0
230
0
 70
   11
 71
    3
 72
   17
 73
   13
 74
    0
 42
1e-07
 43
1e-07
 40
0
 40
0
 40
0
 40
0
 40
1
 40
1
 40
1
 40
2
 40
2
 40
2
 40
3
 40
3
 40
3
 40
4
 40
4
 40
4
 40
4
 10
4.446666717529296
 20
4.7000003390842
 30
0
 10
4.446666717529296
 20
4.688333299424912
 30
0
 10
4.438333299424913
 20
4.680000305175781
 30
0
 10
4.426666683620876
 20
4.680000305175781
 30
0
 10
4.41500006781684
 20
4.680000305175781
 30
0
 10
4.406666225857204
 20
4.688333299424912
 30
0
 10
4.406666225857204
 20
4.7000003390842
 30
0
 10
4.406666225857204
 20
4.711666954888237
 30
0
 10
4.41500006781684
 20
4.720000372992621
 30
0
 10
4.426666683620876
 20
4.720000372992621
 30
0
 10
4.438333299424913
 20
4.720000372992621
 30
0
 10
4.446666717529296
 20
4.711666954888237
 30
0
 10
4.446666717529296
 20
4.7000003390842
 30
0
  0
SPLINE
  5
110
100
AcDbEntity
  8
schematic
  6
ByLayer
 62
  134
420
37522
370
    5
100
AcDbSpline
210
0
220
0
230
0
 70
   11
 71
    3
 72
   17
 73
   13
 74
    0
 42
1e-07
 43
1e-07
 40
0
 40
0
 40
0
 40
0
 40
1
 40
1
 40
1
 40
2
 40
2
 40
2
 40
3
 40
3
 40
3
 40
4
 40
4
 40
4
 40
4
 10
4.446666717529296
 20
4.7000003390842
 30
0
 10
4.446666717529296
 20
4.688333299424912
 30
0
 10
4.438333299424913
 20
4.680000305175781
 30
0
 10
4.426666683620876
 20
4.680000305175781
 30
0
 10
4.41500006781684
 20
4.680000305175781
 30
0
 10
4.406666225857204
 20
4.688333299424912
 30
0
 10
4.406666225857204
 20
4.7000003390842
 30
0
 10
4.406666225857204
 20
4.711666954888237
 30
0
 10
4.41500006781684
 20
4.720000372992621
 30
0
 10
4.426666683620876
 20
4.720000372992621
 30
0
 10
4.438333299424913
 20
4.720000372992621
 30
0
 10
4.446666717529296
 20
4.711666954888237
 30
0
 10
4.446666717529296
 20
4.7000003390842
 30
0
  0
LINE
  5
111
100
AcDbEntity
  8
schematic
  6
ByLayer
 62
  134
420
37522
370
   15
100
AcDbLine
 10
4.926666683620876
 20
3.501666598849826
 11
4.326666514078775
 21
3.501666598849826
  0
LINE
  5
112
100
AcDbEntity
  8
schematic
  6
ByLayer
 62
  134
420
37522
370
   15
100
AcDbLine
 10
4.326666514078775
 20
3.501666598849826
 11
4.326666514078775
 21
1.501666598849826
  0
LINE
  5
113
100
AcDbEntity
  8
schematic
  6
ByLayer
 62
  134
420
37522
370
   15
100
AcDbLine
 10
4.326666514078775
 20
1.501666598849826
 11
10.22499932183159
 21
1.501666598849826
  0
LINE
  5
114
100
AcDbEntity
  8
schematic
  6
ByLayer
 62
  134
420
37522
370
   15
100
AcDbLine
 10
10.22499932183159
 20
1.501666598849826
 11
10.22499932183159
 21
3.101666768391926
  0
LINE
  5
115
100
AcDbEntity
  8
schematic
  6
ByLayer
 62
  134
420
37522
370
   15
100
AcDbLine
 10
10.22499932183159
 20
3.101666768391926
 11
9.625
 21
3.101666768391926
  0
LINE
  5
116
100
AcDbEntity
  8
schematic
  6
ByLayer
 62
  134
420
37522
370
   15
100
AcDbLine
 10
4.326666514078775
 20
3.501666598849826
 11
4.326666514078775
 21
4.2000003390842
  0
LINE
  5
117
100
AcDbEntity
  8
schematic
  6
ByLayer
 62
  134
420
37522
370
   15
100
AcDbLine
 10
4.326666514078775
 20
4.2000003390842
 11
4.226666768391926
 21
4.2000003390842
  0
LINE
  5
118
100
AcDbEntity
  8
schematic
  6
ByLayer
 62
  134
420
37522
370
   15
100
AcDbLine
 10
4.226666768391926
 20
4.2000003390842
 11
4.226666768391926
 21
4.899999830457899
  0
LINE
  5
119
100
AcDbEntity
  8
schematic
  6
ByLayer
 62
  134
420
37522
370
   15
100
AcDbLine
 10
4.226666768391926
 20
4.899999830457899
 11
3.726666768391926
 21
4.899999830457899
  0
SPLINE
  5
11A
100
AcDbEntity
  8
schematic
  6
ByLayer
 62
  256
370
   -1
100
AcDbSpline
210
0
220
0
230
0
 70
   11
 71
    3
 72
   17
 73
   13
 74
    0
 42
1e-07
 43
1e-07
 40
0
 40
0
 40
0
 40
0
 40
1
 40
1
 40
1
 40
2
 40
2
 40
2
 40
3
 40
3
 40
3
 40
4
 40
4
 40
4
 40
4
 10
4.346666547987195
 20
3.501666598849826
 30
0
 10
4.346666547987195
 20
3.489999983045789
 30
0
 10
4.338333129882812
 20
3.481666988796657
 30
0
 10
4.326666514078775
 20
3.481666988796657
 30
0
 10
4.314999898274739
 20
3.481666988796657
 30
0
 10
4.306666480170355
 20
3.489999983045789
 30
0
 10
4.306666480170355
 20
3.501666598849826
 30
0
 10
4.306666480170355
 20
3.513333638509114
 30
0
 10
4.314999898274739
 20
3.521666632758246
 30
0
 10
4.326666514078775
 20
3.521666632758246
 30
0
 10
4.338333129882812
 20
3.521666632758246
 30
0
 10
4.346666547987195
 20
3.513333638509114
 30
0
 10
4.346666547987195
 20
3.501666598849826
 30
0
  0
SPLINE
  5
11B
100
AcDbEntity
  8
schematic
  6
ByLayer
 62
  134
420
37522
370
    5
100
AcDbSpline
210
0
220
0
230
0
 70
   11
 71
    3
 72
   17
 73
   13
 74
    0
 42
1e-07
 43
1e-07
 40
0
 40
0
 40
0
 40
0
 40
1
 40
1
 40
1
 40
2
 40
2
 40
2
 40
3
 40
3
 40
3
 40
4
 40
4
 40
4
 40
4
 10
4.346666547987195
 20
3.501666598849826
 30
0
 10
4.346666547987195
 20
3.489999983045789
 30
0
 10
4.338333129882812
 20
3.481666988796657
 30
0
 10
4.326666514078775
 20
3.481666988796657
 30
0
 10
4.314999898274739
 20
3.481666988796657
 30
0
 10
4.306666480170355
 20
3.489999983045789
 30
0
 10
4.306666480170355
 20
3.501666598849826
 30
0
 10
4.306666480170355
 20
3.513333638509114
 30
0
 10
4.314999898274739
 20
3.521666632758246
 30
0
 10
4.326666514078775
 20
3.521666632758246
 30
0
 10
4.338333129882812
 20
3.521666632758246
 30
0
 10
4.346666547987195
 20
3.513333638509114
 30
0
 10
4.346666547987195
 20
3.501666598849826
 30
0
  0
LINE
  5
11C
100
AcDbEntity
  8
schematic
  6
ByLayer
 62
  134
420
37522
370
   15
100
AcDbLine
 10
4.926666683620876
 20
3.401666429307725
 11
4.426666683620876
 21
3.401666429307725
  0
LINE
  5
11D
100
AcDbEntity
  8
schematic
  6
ByLayer
 62
  134
420
37522
370
   15
100
AcDbLine
 10
4.426666683620876
 20
3.401666429307725
 11
4.426666683620876
 21
1.601666768391926
  0
LINE
  5
11E
100
AcDbEntity
  8
schematic
  6
ByLayer
 62
  134
420
37522
370
   15
100
AcDbLine
 10
4.426666683620876
 20
1.601666768391926
 11
10.125
 21
1.601666768391926
  0
LINE
  5
11F
100
AcDbEntity
  8
schematic
  6
ByLayer
 62
  134
420
37522
370
   15
100
AcDbLine
 10
10.125
 20
1.601666768391926
 11
10.125
 21
3.001666598849826
  0
LINE
  5
120
100
AcDbEntity
  8
schematic
  6
ByLayer
 62
  134
420
37522
370
   15
100
AcDbLine
 10
10.125
 20
3.001666598849826
 11
9.625
 21
3.001666598849826
  0
LINE
  5
121
100
AcDbEntity
  8
schematic
  6
ByLayer
 62
  134
420
37522
370
   15
100
AcDbLine
 10
4.426666683620876
 20
3.401666429307725
 11
3.926666683620876
 21
3.401666429307725
  0
LINE
  5
122
100
AcDbEntity
  8
schematic
  6
ByLayer
 62
  134
420
37522
370
   15
100
AcDbLine
 10
3.926666683620876
 20
3.401666429307725
 11
3.926666683620876
 21
4.2000003390842
  0
LINE
  5
123
100
AcDbEntity
  8
schematic
  6
ByLayer
 62
  134
420
37522
370
   15
100
AcDbLine
 10
3.926666683620876
 20
4.2000003390842
 11
3.726666768391926
 21
4.2000003390842
  0
SPLINE
  5
124
100
AcDbEntity
  8
schematic
  6
ByLayer
 62
  256
370
   -1
100
AcDbSpline
210
0
220
0
230
0
 70
   11
 71
    3
 72
   17
 73
   13
 74
    0
 42
1e-07
 43
1e-07
 40
0
 40
0
 40
0
 40
0
 40
1
 40
1
 40
1
 40
2
 40
2
 40
2
 40
3
 40
3
 40
3
 40
4
 40
4
 40
4
 40
4
 10
4.446666717529296
 20
3.401666429307725
 30
0
 10
4.446666717529296
 20
3.39000023735894
 30
0
 10
4.438333299424913
 20
3.381666819254557
 30
0
 10
4.426666683620876
 20
3.381666819254557
 30
0
 10
4.41500006781684
 20
3.381666819254557
 30
0
 10
4.406666225857204
 20
3.39000023735894
 30
0
 10
4.406666225857204
 20
3.401666429307725
 30
0
 10
4.406666225857204
 20
3.413333468967013
 30
0
 10
4.41500006781684
 20
3.421666887071397
 30
0
 10
4.426666683620876
 20
3.421666887071397
 30
0
 10
4.438333299424913
 20
3.421666887071397
 30
0
 10
4.446666717529296
 20
3.413333468967013
 30
0
 10
4.446666717529296
 20
3.401666429307725
 30
0
  0
SPLINE
  5
125
100
AcDbEntity
  8
schematic
  6
ByLayer
 62
  134
420
37522
370
    5
100
AcDbSpline
210
0
220
0
230
0
 70
   11
 71
    3
 72
   17
 73
   13
 74
    0
 42
1e-07
 43
1e-07
 40
0
 40
0
 40
0
 40
0
 40
1
 40
1
 40
1
 40
2
 40
2
 40
2
 40
3
 40
3
 40
3
 40
4
 40
4
 40
4
 40
4
 10
4.446666717529296
 20
3.401666429307725
 30
0
 10
4.446666717529296
 20
3.39000023735894
 30
0
 10
4.438333299424913
 20
3.381666819254557
 30
0
 10
4.426666683620876
 20
3.381666819254557
 30
0
 10
4.41500006781684
 20
3.381666819254557
 30
0
 10
4.406666225857204
 20
3.39000023735894
 30
0
 10
4.406666225857204
 20
3.401666429307725
 30
0
 10
4.406666225857204
 20
3.413333468967013
 30
0
 10
4.41500006781684
 20
3.421666887071397
 30
0
 10
4.426666683620876
 20
3.421666887071397
 30
0
 10
4.438333299424913
 20
3.421666887071397
 30
0
 10
4.446666717529296
 20
3.413333468967013
 30
0
 10
4.446666717529296
 20
3.401666429307725
 30
0
  0
LINE
  5
126
100
AcDbEntity
  8
schematic
  6
ByLayer
 62
  134
420
37522
370
   15
100
AcDbLine
 10
4.926666683620876
 20
3.201666514078775
 11
4.526666429307725
 21
3.201666514078775
  0
LINE
  5
127
100
AcDbEntity
  8
schematic
  6
ByLayer
 62
  134
420
37522
370
   15
100
AcDbLine
 10
4.526666429307725
 20
3.201666514078775
 11
4.526666429307725
 21
1.701666514078775
  0
LINE
  5
128
100
AcDbEntity
  8
schematic
  6
ByLayer
 62
  134
420
37522
370
   15
100
AcDbLine
 10
4.526666429307725
 20
1.701666514078775
 11
10.0250006781684
 21
1.701666514078775
  0
LINE
  5
129
100
AcDbEntity
  8
schematic
  6
ByLayer
 62
  134
420
37522
370
   15
100
AcDbLine
 10
10.0250006781684
 20
1.701666514078775
 11
10.0250006781684
 21
3.201666514078775
  0
LINE
  5
12A
100
AcDbEntity
  8
schematic
  6
ByLayer
 62
  134
420
37522
370
   15
100
AcDbLine
 10
10.0250006781684
 20
3.201666514078775
 11
9.625
 21
3.201666514078775
  0
LINE
  5
12B
100
AcDbEntity
  8
schematic
  6
ByLayer
 62
  134
420
37522
370
   15
100
AcDbLine
 10
3.726666768391926
 20
4.299999660915798
 11
4.526666429307725
 21
4.299999660915798
  0
LINE
  5
12C
100
AcDbEntity
  8
schematic
  6
ByLayer
 62
  134
420
37522
370
   15
100
AcDbLine
 10
4.526666429307725
 20
4.299999660915798
 11
4.526666429307725
 21
3.201666514078775
  0
SPLINE
  5
12D
100
AcDbEntity
  8
schematic
  6
ByLayer
 62
  256
370
   -1
100
AcDbSpline
210
0
220
0
230
0
 70
   11
 71
    3
 72
   17
 73
   13
 74
    0
 42
1e-07
 43
1e-07
 40
0
 40
0
 40
0
 40
0
 40
1
 40
1
 40
1
 40
2
 40
2
 40
2
 40
3
 40
3
 40
3
 40
4
 40
4
 40
4
 40
4
 10
4.546666887071396
 20
3.201666514078775
 30
0
 10
4.546666887071396
 20
3.189999898274739
 30
0
 10
4.538333468967013
 20
3.181666904025607
 30
0
 10
4.526666429307725
 20
3.181666904025607
 30
0
 10
4.515000237358941
 20
3.181666904025607
 30
0
 10
4.506666395399305
 20
3.189999898274739
 30
0
 10
4.506666395399305
 20
3.201666514078775
 30
0
 10
4.506666395399305
 20
3.213333553738063
 30
0
 10
4.515000237358941
 20
3.221666547987195
 30
0
 10
4.526666429307725
 20
3.221666547987195
 30
0
 10
4.538333468967013
 20
3.221666547987195
 30
0
 10
4.546666887071396
 20
3.213333553738063
 30
0
 10
4.546666887071396
 20
3.201666514078775
 30
0
  0
SPLINE
  5
12E
100
AcDbEntity
  8
schematic
  6
ByLayer
 62
  134
420
37522
370
    5
100
AcDbSpline
210
0
220
0
230
0
 70
   11
 71
    3
 72
   17
 73
   13
 74
    0
 42
1e-07
 43
1e-07
 40
0
 40
0
 40
0
 40
0
 40
1
 40
1
 40
1
 40
2
 40
2
 40
2
 40
3
 40
3
 40
3
 40
4
 40
4
 40
4
 40
4
 10
4.546666887071396
 20
3.201666514078775
 30
0
 10
4.546666887071396
 20
3.189999898274739
 30
0
 10
4.538333468967013
 20
3.181666904025607
 30
0
 10
4.526666429307725
 20
3.181666904025607
 30
0
 10
4.515000237358941
 20
3.181666904025607
 30
0
 10
4.506666395399305
 20
3.189999898274739
 30
0
 10
4.506666395399305
 20
3.201666514078775
 30
0
 10
4.506666395399305
 20
3.213333553738063
 30
0
 10
4.515000237358941
 20
3.221666547987195
 30
0
 10
4.526666429307725
 20
3.221666547987195
 30
0
 10
4.538333468967013
 20
3.221666547987195
 30
0
 10
4.546666887071396
 20
3.213333553738063
 30
0
 10
4.546666887071396
 20
3.201666514078775
 30
0
  0
LINE
  5
12F
100
AcDbEntity
  8
schematic
  6
ByLayer
 62
  134
420
37522
370
   15
100
AcDbLine
 10
3.726666768391926
 20
3.501666598849826
 11
4.126666598849825
 21
3.501666598849826
  0
LINE
  5
130
100
AcDbEntity
  8
schematic
  6
ByLayer
 62
  134
420
37522
370
   15
100
AcDbLine
 10
4.126666598849825
 20
3.501666598849826
 11
4.126666598849825
 21
3.801666683620876
  0
LINE
  5
131
100
AcDbEntity
  8
schematic
  6
ByLayer
 62
  134
420
37522
370
   15
100
AcDbLine
 10
4.126666598849825
 20
3.801666683620876
 11
4.926666683620876
 21
3.801666683620876
  0
LINE
  5
132
100
AcDbEntity
  8
schematic
  6
ByLayer
 62
  134
420
37522
370
   15
100
AcDbLine
 10
3.726666768391926
 20
3.801666683620876
 11
4.026666429307725
 21
3.801666683620876
  0
LINE
  5
133
100
AcDbEntity
  8
schematic
  6
ByLayer
 62
  134
420
37522
370
   15
100
AcDbLine
 10
4.026666429307725
 20
3.801666683620876
 11
4.026666429307725
 21
3.701666514078775
  0
LINE
  5
134
100
AcDbEntity
  8
schematic
  6
ByLayer
 62
  134
420
37522
370
   15
100
AcDbLine
 10
4.926666683620876
 20
3.701666514078775
 11
4.026666429307725
 21
3.701666514078775
  0
LINE
  5
135
100
AcDbEntity
  8
schematic
  6
ByLayer
 62
  134
420
37522
370
   15
100
AcDbLine
 10
3.726666768391926
 20
3.601666768391926
 11
4.926666683620876
 21
3.601666768391926
  0
LINE
  5
136
100
AcDbEntity
  8
schematic
  6
ByLayer
 62
  134
420
37522
370
   15
100
AcDbLine
 10
3.726666768391926
 20
4.1000001695421
 11
4.226666768391926
 21
4.1000001695421
  0
LWPOLYLINE
  5
137
100
AcDbEntity
  8
schematic
  6
ByLayer
 62
  256
370
   -1
100
AcDbPolyline
 90
    4
 70
    1
 43
0
 10
1.003333303663465
 20
6.969999949137369
 10
1.003333303663465
 20
1.396666632758246
 10
10.32999928792317
 20
1.396666632758246
 10
10.32999928792317
 20
6.969999949137369
  0
ENDBLK
  5
55
330
53
100
AcDbEntity
  8
0
100
AcDbBlockEnd
  0
BLOCK
  5
57
330
56
100
AcDbEntity
  8
0
100
AcDbBlockBegin
  2
Block_2
 70
    0
 10
0
 20
0
  3
Block_2
  1

  0
LINE
  5
138
100
AcDbEntity
  8
Layer 1
  6
ByLayer
 62
  134
420
37522
370
   15
100
AcDbLine
 10
4.226666768391926
 20
4.1000001695421
 11
4.226666768391926
 21
1.401666429307725
  0
LWPOLYLINE
  5
139
100
AcDbEntity
  8
Layer 1
  6
ByLayer
 62
  256
370
   -1
100
AcDbPolyline
 90
    4
 70
    1
 43
0
 10
4.221666547987195
 20
4.104999542236328
 10
4.233333163791232
 20
4.104999542236328
 10
4.233333163791232
 20
1.396666632758246
 10
4.221666547987195
 20
1.396666632758246
  0
ENDBLK
  5
58
330
56
100
AcDbEntity
  8
0
100
AcDbBlockEnd
  0
BLOCK
  5
5A
330
59
100
AcDbEntity
  8
0
100
AcDbBlockBegin
  2
Block_3
 70
    0
 10
0
 20
0
  3
Block_3
  1

  0
LINE
  5
13A
100
AcDbEntity
  8
Layer 1
  6
ByLayer
 62
  134
420
37522
370
   15
100
AcDbLine
 10
4.226666768391926
 20
1.401666429307725
 11
10.3250003390842
 21
1.401666429307725
  0
LWPOLYLINE
  5
13B
100
AcDbEntity
  8
Layer 1
  6
ByLayer
 62
  256
370
   -1
100
AcDbPolyline
 90
    4
 70
    1
 43
0
 10
4.221666547987195
 20
1.406666225857204
 10
10.32999928792317
 20
1.406666225857204
 10
10.32999928792317
 20
1.396666632758246
 10
4.221666547987195
 20
1.396666632758246
  0
ENDBLK
  5
5B
330
59
100
AcDbEntity
  8
0
100
AcDbBlockEnd
  0
BLOCK
  5
5D
330
5C
100
AcDbEntity
  8
0
100
AcDbBlockBegin
  2
Block_4
 70
    0
 10
0
 20
0
  3
Block_4
  1

  0
LINE
  5
13C
100
AcDbEntity
  8
Layer 1
  6
ByLayer
 62
  134
420
37522
370
   15
100
AcDbLine
 10
10.3250003390842
 20
1.401666429307725
 11
10.3250003390842
 21
3.301666683620876
  0
LWPOLYLINE
  5
13D
100
AcDbEntity
  8
Layer 1
  6
ByLayer
 62
  256
370
   -1
100
AcDbPolyline
 90
    4
 70
    1
 43
0
 10
10.31999969482422
 20
3.306666480170355
 10
10.32999928792317
 20
3.306666480170355
 10
10.32999928792317
 20
1.396666632758246
 10
10.31999969482422
 20
1.396666632758246
  0
ENDBLK
  5
5E
330
5C
100
AcDbEntity
  8
0
100
AcDbBlockEnd
  0
BLOCK
  5
60
330
5F
100
AcDbEntity
  8
0
100
AcDbBlockBegin
  2
Block_5
 70
    0
 10
0
 20
0
  3
Block_5
  1

  0
LINE
  5
13E
100
AcDbEntity
  8
Layer 1
  6
ByLayer
 62
  134
420
37522
370
   15
100
AcDbLine
 10
10.3250003390842
 20
3.301666683620876
 11
9.625
 21
3.301666683620876
  0
LWPOLYLINE
  5
13F
100
AcDbEntity
  8
Layer 1
  6
ByLayer
 62
  256
370
   -1
100
AcDbPolyline
 90
    4
 70
    1
 43
0
 10
9.62000020345052
 20
3.306666480170355
 10
10.32999928792317
 20
3.306666480170355
 10
10.32999928792317
 20
3.294999864366319
 10
9.62000020345052
 20
3.294999864366319
  0
ENDBLK
  5
61
330
5F
100
AcDbEntity
  8
0
100
AcDbBlockEnd
  0
ENDSEC
  0
SECTION
  2
ENTITIES
  0
MTEXT
  5
140
100
AcDbEntity
  8
Layer 1
  6
ByLayer
 62
  256
370
   -1
100
AcDbMText
 10
0.3316786024305555
 20
0.0382758246527778
 30
0
 40
0.2
 41
11.08888882426632
 71
    7
 72
    1
  1
\C18;\c0;\FCIDFont+F1|b0|i0|c1;\H0.099121;\W1.000000;4/5/2025 5:19 PM   (Sheet: 1/1)
  7
STANDARD
210
0
220
0
230
1
 50
0
 73
    1
 44
1
  0
MTEXT
  5
141
100
AcDbEntity
  8
Layer 1
  6
ByLayer
 62
  256
370
   -1
100
AcDbMText
 10
2.326707628038194
 20
2.999932183159721
 30
0
 40
0.2
 41
10.2111110687108
 71
    7
 72
    1
  1
\C8;\c7697781;\FCIDFont+F1|b0|i0|c1;\H0.069621;\W1.000000;ESP32-DEVKITC-32D
  7
STANDARD
210
0
220
0
230
1
 50
0
 73
    1
 44
1
  0
MTEXT
  5
142
100
AcDbEntity
  8
Layer 1
  6
ByLayer
 62
  256
370
   -1
100
AcDbMText
 10
1.033331976996527
 20
3.411607530381944
 30
0
 40
0.2
 41
9.233333290932984
 71
    7
 72
    1
  1
\C8;\c7697781;\FCIDFont+F1|b0|i0|c1;\H0.069621;\W1.000000;JST-XH-2PIN
  7
STANDARD
210
0
220
0
230
1
 50
0
 73
    1
 44
1
  0
MTEXT
  5
143
100
AcDbEntity
  8
Layer 1
  6
ByLayer
 62
  256
370
   -1
100
AcDbMText
 10
1.033331976996527
 20
4.05996365017361
 30
0
 40
0.2
 41
9.255555513155207
 71
    7
 72
    1
  1
\C8;\c7697781;\FCIDFont+F1|b0|i0|c1;\H0.069621;\W1.000000;JST-XH-4PIN
  7
STANDARD
210
0
220
0
230
1
 50
0
 73
    1
 44
1
  0
MTEXT
  5
144
100
AcDbEntity
  8
Layer 1
  6
ByLayer
 62
  256
370
   -1
100
AcDbMText
 10
2.326707628038194
 20
5.12661404079861
 30
0
 40
0.2
 41
7.766666666666735
 71
    7
 72
    1
  1
\C8;\c7697781;\FCIDFont+F1|b0|i0|c1;\H0.069621;\W1.000000;U1
  7
STANDARD
210
0
220
0
230
1
 50
0
 73
    1
 44
1
  0
MTEXT
  5
145
100
AcDbEntity
  8
Layer 1
  6
ByLayer
 62
  256
370
   -1
100
AcDbMText
 10
2.419996473524305
 20
4.970018174913193
 30
0
 40
0.2
 41
8.033333333333415
 71
    7
 72
    1
  1
\C8;\c7697781;\FCIDFont+F1|b0|i0|c1;\H0.059000;\W1.000000;3V3
  7
STANDARD
210
0
220
0
230
1
 50
0
 73
    1
 44
1
  0
MTEXT
  5
146
100
AcDbEntity
  8
Layer 1
  6
ByLayer
 62
  256
370
   -1
100
AcDbMText
 10
2.073316786024305
 20
5.013353135850693
 30
0
 40
0.2
 41
8.077777777777847
 71
    7
 72
    1
  1
\C8;\c7697781;\FCIDFont+F1|b0|i0|c1;\H0.059000;\W1.000000;J2-1
  7
STANDARD
210
0
220
0
230
1
 50
0
 73
    1
 44
1
  0
MTEXT
  5
147
100
AcDbEntity
  8
Layer 1
  6
ByLayer
 62
  256
370
   -1
100
AcDbMText
 10
2.419996473524305
 20
4.8699951171875
 30
0
 40
0.2
 41
7.855555555555611
 71
    7
 72
    1
  1
\C8;\c7697781;\FCIDFont+F1|b0|i0|c1;\H0.059000;\W1.000000;EN
  7
STANDARD
210
0
220
0
230
1
 50
0
 73
    1
 44
1
  0
MTEXT
  5
148
100
AcDbEntity
  8
Layer 1
  6
ByLayer
 62
  256
370
   -1
100
AcDbMText
 10
2.073316786024305
 20
4.914998372395833
 30
0
 40
0.2
 41
8.122222222222291
 71
    7
 72
    1
  1
\C8;\c7697781;\FCIDFont+F1|b0|i0|c1;\H0.059000;\W1.000000;J2-2
  7
STANDARD
210
0
220
0
230
1
 50
0
 73
    1
 44
1
  0
MTEXT
  5
149
100
AcDbEntity
  8
Layer 1
  6
ByLayer
 62
  256
370
   -1
100
AcDbMText
 10
2.419996473524305
 20
4.770026312934027
 30
0
 40
0.2
 41
9.255555470754752
 71
    7
 72
    1
  1
\C8;\c7697781;\FCIDFont+F1|b0|i0|c1;\H0.059000;\W1.000000;SENSOR_VP
  7
STANDARD
210
0
220
0
230
1
 50
0
 73
    1
 44
1
  0
MTEXT
  5
14A
100
AcDbEntity
  8
Layer 1
  6
ByLayer
 62
  256
370
   -1
100
AcDbMText
 10
2.073316786024305
 20
4.814988878038193
 30
0
 40
0.2
 41
8.122222222222305
 71
    7
 72
    1
  1
\C8;\c7697781;\FCIDFont+F1|b0|i0|c1;\H0.059000;\W1.000000;J2-3
  7
STANDARD
210
0
220
0
230
1
 50
0
 73
    1
 44
1
  0
MTEXT
  5
14B
100
AcDbEntity
  8
Layer 1
  6
ByLayer
 62
  256
370
   -1
100
AcDbMText
 10
2.419996473524305
 20
4.670003255208333
 30
0
 40
0.2
 41
9.255555470754752
 71
    7
 72
    1
  1
\C8;\c7697781;\FCIDFont+F1|b0|i0|c1;\H0.059000;\W1.000000;SENSOR_VN
  7
STANDARD
210
0
220
0
230
1
 50
0
 73
    1
 44
1
  0
MTEXT
  5
14C
100
AcDbEntity
  8
Layer 1
  6
ByLayer
 62
  256
370
   -1
100
AcDbMText
 10
2.073316786024305
 20
4.715020073784722
 30
0
 40
0.2
 41
8.144444444444513
 71
    7
 72
    1
  1
\C8;\c7697781;\FCIDFont+F1|b0|i0|c1;\H0.059000;\W1.000000;J2-4
  7
STANDARD
210
0
220
0
230
1
 50
0
 73
    1
 44
1
  0
MTEXT
  5
14D
100
AcDbEntity
  8
Layer 1
  6
ByLayer
 62
  256
370
   -1
100
AcDbMText
 10
2.419996473524305
 20
4.57000732421875
 30
0
 40
0.2
 41
8.100000000000069
 71
    7
 72
    1
  1
\C8;\c7697781;\FCIDFont+F1|b0|i0|c1;\H0.059000;\W1.000000;IO34
  7
STANDARD
210
0
220
0
230
1
 50
0
 73
    1
 44
1
  0
MTEXT
  5
14E
100
AcDbEntity
  8
Layer 1
  6
ByLayer
 62
  256
370
   -1
100
AcDbMText
 10
2.073316786024305
 20
4.614997016059027
 30
0
 40
0.2
 41
8.122222222222305
 71
    7
 72
    1
  1
\C8;\c7697781;\FCIDFont+F1|b0|i0|c1;\H0.059000;\W1.000000;J2-5
  7
STANDARD
210
0
220
0
230
1
 50
0
 73
    1
 44
1
  0
MTEXT
  5
14F
100
AcDbEntity
  8
Layer 1
  6
ByLayer
 62
  256
370
   -1
100
AcDbMText
 10
2.419996473524305
 20
4.470011393229166
 30
0
 40
0.2
 41
8.077777777777859
 71
    7
 72
    1
  1
\C8;\c7697781;\FCIDFont+F1|b0|i0|c1;\H0.059000;\W1.000000;IO35
  7
STANDARD
210
0
220
0
230
1
 50
0
 73
    1
 44
1
  0
MTEXT
  5
150
100
AcDbEntity
  8
Layer 1
  6
ByLayer
 62
  256
370
   -1
100
AcDbMText
 10
2.073316786024305
 20
4.515028211805555
 30
0
 40
0.2
 41
8.122222222222305
 71
    7
 72
    1
  1
\C8;\c7697781;\FCIDFont+F1|b0|i0|c1;\H0.059000;\W1.000000;J2-6
  7
STANDARD
210
0
220
0
230
1
 50
0
 73
    1
 44
1
  0
MTEXT
  5
151
100
AcDbEntity
  8
Layer 1
  6
ByLayer
 62
  256
370
   -1
100
AcDbMText
 10
2.419996473524305
 20
4.370015462239583
 30
0
 40
0.2
 41
8.077777777777847
 71
    7
 72
    1
  1
\C8;\c7697781;\FCIDFont+F1|b0|i0|c1;\H0.059000;\W1.000000;IO32
  7
STANDARD
210
0
220
0
230
1
 50
0
 73
    1
 44
1
  0
MTEXT
  5
152
100
AcDbEntity
  8
Layer 1
  6
ByLayer
 62
  256
370
   -1
100
AcDbMText
 10
2.073316786024305
 20
4.41500515407986
 30
0
 40
0.2
 41
8.122222222222291
 71
    7
 72
    1
  1
\C8;\c7697781;\FCIDFont+F1|b0|i0|c1;\H0.059000;\W1.000000;J2-7
  7
STANDARD
210
0
220
0
230
1
 50
0
 73
    1
 44
1
  0
MTEXT
  5
153
100
AcDbEntity
  8
Layer 1
  6
ByLayer
 62
  256
370
   -1
100
AcDbMText
 10
2.419996473524305
 20
4.27001953125
 30
0
 40
0.2
 41
8.077777777777859
 71
    7
 72
    1
  1
\C8;\c7697781;\FCIDFont+F1|b0|i0|c1;\H0.059000;\W1.000000;IO33
  7
STANDARD
210
0
220
0
230
1
 50
0
 73
    1
 44
1
  0
MTEXT
  5
154
100
AcDbEntity
  8
Layer 1
  6
ByLayer
 62
  256
370
   -1
100
AcDbMText
 10
2.073316786024305
 20
4.314982096354166
 30
0
 40
0.2
 41
8.122222222222291
 71
    7
 72
    1
  1
\C8;\c7697781;\FCIDFont+F1|b0|i0|c1;\H0.059000;\W1.000000;J2-8
  7
STANDARD
210
0
220
0
230
1
 50
0
 73
    1
 44
1
  0
MTEXT
  5
155
100
AcDbEntity
  8
Layer 1
  6
ByLayer
 62
  256
370
   -1
100
AcDbMText
 10
2.419996473524305
 20
4.170016818576388
 30
0
 40
0.2
 41
8.077777777777847
 71
    7
 72
    1
  1
\C8;\c7697781;\FCIDFont+F1|b0|i0|c1;\H0.059000;\W1.000000;IO25
  7
STANDARD
210
0
220
0
230
1
 50
0
 73
    1
 44
1
  0
MTEXT
  5
156
100
AcDbEntity
  8
Layer 1
  6
ByLayer
 62
  256
370
   -1
100
AcDbMText
 10
2.073316786024305
 20
4.215006510416666
 30
0
 40
0.2
 41
8.122222222222293
 71
    7
 72
    1
  1
\C8;\c7697781;\FCIDFont+F1|b0|i0|c1;\H0.059000;\W1.000000;J2-9
  7
STANDARD
210
0
220
0
230
1
 50
0
 73
    1
 44
1
  0
MTEXT
  5
157
100
AcDbEntity
  8
Layer 1
  6
ByLayer
 62
  256
370
   -1
100
AcDbMText
 10
2.419996473524305
 20
4.070014105902777
 30
0
 40
0.2
 41
8.077777777777847
 71
    7
 72
    1
  1
\C8;\c7697781;\FCIDFont+F1|b0|i0|c1;\H0.059000;\W1.000000;IO26
  7
STANDARD
210
0
220
0
230
1
 50
0
 73
    1
 44
1
  0
MTEXT
  5
158
100
AcDbEntity
  8
Layer 1
  6
ByLayer
 62
  256
370
   -1
100
AcDbMText
 10
2.026645236545138
 20
4.114990234375
 30
0
 40
0.2
 41
8.233333333333402
 71
    7
 72
    1
  1
\C8;\c7697781;\FCIDFont+F1|b0|i0|c1;\H0.059000;\W1.000000;J2-10
  7
STANDARD
210
0
220
0
230
1
 50
0
 73
    1
 44
1
  0
MTEXT
  5
159
100
AcDbEntity
  8
Layer 1
  6
ByLayer
 62
  256
370
   -1
100
AcDbMText
 10
2.419996473524305
 20
3.970024956597221
 30
0
 40
0.2
 41
8.077777777777834
 71
    7
 72
    1
  1
\C8;\c7697781;\FCIDFont+F1|b0|i0|c1;\H0.059000;\W1.000000;IO27
  7
STANDARD
210
0
220
0
230
1
 50
0
 73
    1
 44
1
  0
MTEXT
  5
15A
100
AcDbEntity
  8
Layer 1
  6
ByLayer
 62
  256
370
   -1
100
AcDbMText
 10
2.033318413628472
 20
4.0150146484375
 30
0
 40
0.2
 41
8.188888888888957
 71
    7
 72
    1
  1
\C8;\c7697781;\FCIDFont+F1|b0|i0|c1;\H0.059000;\W1.000000;J2-11
  7
STANDARD
210
0
220
0
230
1
 50
0
 73
    1
 44
1
  0
MTEXT
  5
15B
100
AcDbEntity
  8
Layer 1
  6
ByLayer
 62
  256
370
   -1
100
AcDbMText
 10
2.419996473524305
 20
3.87002224392361
 30
0
 40
0.2
 41
8.055555555555612
 71
    7
 72
    1
  1
\C8;\c7697781;\FCIDFont+F1|b0|i0|c1;\H0.059000;\W1.000000;IO14
  7
STANDARD
210
0
220
0
230
1
 50
0
 73
    1
 44
1
  0
MTEXT
  5
15C
100
AcDbEntity
  8
Layer 1
  6
ByLayer
 62
  256
370
   -1
100
AcDbMText
 10
2.026645236545138
 20
3.914998372395833
 30
0
 40
0.2
 41
8.233333333333402
 71
    7
 72
    1
  1
\C8;\c7697781;\FCIDFont+F1|b0|i0|c1;\H0.059000;\W1.000000;J2-12
  7
STANDARD
210
0
220
0
230
1
 50
0
 73
    1
 44
1
  0
MTEXT
  5
15D
100
AcDbEntity
  8
Layer 1
  6
ByLayer
 62
  256
370
   -1
100
AcDbMText
 10
2.419996473524305
 20
3.770033094618055
 30
0
 40
0.2
 41
8.03333333333339
 71
    7
 72
    1
  1
\C8;\c7697781;\FCIDFont+F1|b0|i0|c1;\H0.059000;\W1.000000;IO12
  7
STANDARD
210
0
220
0
230
1
 50
0
 73
    1
 44
1
  0
MTEXT
  5
15E
100
AcDbEntity
  8
Layer 1
  6
ByLayer
 62
  256
370
   -1
100
AcDbMText
 10
2.026645236545138
 20
3.814995659722221
 30
0
 40
0.2
 41
8.233333333333416
 71
    7
 72
    1
  1
\C8;\c7697781;\FCIDFont+F1|b0|i0|c1;\H0.059000;\W1.000000;J2-13
  7
STANDARD
210
0
220
0
230
1
 50
0
 73
    1
 44
1
  0
MTEXT
  5
15F
100
AcDbEntity
  8
Layer 1
  6
ByLayer
 62
  256
370
   -1
100
AcDbMText
 10
2.419996473524305
 20
3.671671549479166
 30
0
 40
0.2
 41
8.166666666666735
 71
    7
 72
    1
  1
\C8;\c7697781;\FCIDFont+F1|b0|i0|c1;\H0.059000;\W1.000000;GND1
  7
STANDARD
210
0
220
0
230
1
 50
0
 73
    1
 44
1
  0
MTEXT
  5
160
100
AcDbEntity
  8
Layer 1
  6
ByLayer
 62
  256
370
   -1
100
AcDbMText
 10
2.026645236545138
 20
3.715006510416666
 30
0
 40
0.2
 41
8.255555555555624
 71
    7
 72
    1
  1
\C8;\c7697781;\FCIDFont+F1|b0|i0|c1;\H0.059000;\W1.000000;J2-14
  7
STANDARD
210
0
220
0
230
1
 50
0
 73
    1
 44
1
  0
MTEXT
  5
161
100
AcDbEntity
  8
Layer 1
  6
ByLayer
 62
  256
370
   -1
100
AcDbMText
 10
2.419996473524305
 20
3.57168240017361
 30
0
 40
0.2
 41
8.033333333333402
 71
    7
 72
    1
  1
\C8;\c7697781;\FCIDFont+F1|b0|i0|c1;\H0.059000;\W1.000000;IO13
  7
STANDARD
210
0
220
0
230
1
 50
0
 73
    1
 44
1
  0
MTEXT
  5
162
100
AcDbEntity
  8
Layer 1
  6
ByLayer
 62
  256
370
   -1
100
AcDbMText
 10
2.026645236545138
 20
3.61501736111111
 30
0
 40
0.2
 41
8.233333333333416
 71
    7
 72
    1
  1
\C8;\c7697781;\FCIDFont+F1|b0|i0|c1;\H0.059000;\W1.000000;J2-15
  7
STANDARD
210
0
220
0
230
1
 50
0
 73
    1
 44
1
  0
MTEXT
  5
163
100
AcDbEntity
  8
Layer 1
  6
ByLayer
 62
  256
370
   -1
100
AcDbMText
 10
2.419996473524305
 20
3.471693250868055
 30
0
 40
0.2
 41
8.033333290932973
 71
    7
 72
    1
  1
\C8;\c7697781;\FCIDFont+F1|b0|i0|c1;\H0.059000;\W1.000000;SD2
  7
STANDARD
210
0
220
0
230
1
 50
0
 73
    1
 44
1
  0
MTEXT
  5
164
100
AcDbEntity
  8
Layer 1
  6
ByLayer
 62
  256
370
   -1
100
AcDbMText
 10
2.026645236545138
 20
3.515028211805555
 30
0
 40
0.2
 41
8.233333333333416
 71
    7
 72
    1
  1
\C8;\c7697781;\FCIDFont+F1|b0|i0|c1;\H0.059000;\W1.000000;J2-16
  7
STANDARD
210
0
220
0
230
1
 50
0
 73
    1
 44
1
  0
MTEXT
  5
165
100
AcDbEntity
  8
Layer 1
  6
ByLayer
 62
  256
370
   -1
100
AcDbMText
 10
2.419996473524305
 20
3.371690538194444
 30
0
 40
0.2
 41
8.033333290932985
 71
    7
 72
    1
  1
\C8;\c7697781;\FCIDFont+F1|b0|i0|c1;\H0.059000;\W1.000000;SD3
  7
STANDARD
210
0
220
0
230
1
 50
0
 73
    1
 44
1
  0
MTEXT
  5
166
100
AcDbEntity
  8
Layer 1
  6
ByLayer
 62
  256
370
   -1
100
AcDbMText
 10
2.026645236545138
 20
3.415025499131944
 30
0
 40
0.2
 41
8.233333333333402
 71
    7
 72
    1
  1
\C8;\c7697781;\FCIDFont+F1|b0|i0|c1;\H0.059000;\W1.000000;J2-17
  7
STANDARD
210
0
220
0
230
1
 50
0
 73
    1
 44
1
  0
MTEXT
  5
167
100
AcDbEntity
  8
Layer 1
  6
ByLayer
 62
  256
370
   -1
100
AcDbMText
 10
2.419996473524305
 20
3.271674262152777
 30
0
 40
0.2
 41
8.055555555555625
 71
    7
 72
    1
  1
\C8;\c7697781;\FCIDFont+F1|b0|i0|c1;\H0.059000;\W1.000000;CMD
  7
STANDARD
210
0
220
0
230
1
 50
0
 73
    1
 44
1
  0
MTEXT
  5
168
100
AcDbEntity
  8
Layer 1
  6
ByLayer
 62
  256
370
   -1
100
AcDbMText
 10
2.026645236545138
 20
3.315009223090277
 30
0
 40
0.2
 41
8.233333333333402
 71
    7
 72
    1
  1
\C8;\c7697781;\FCIDFont+F1|b0|i0|c1;\H0.059000;\W1.000000;J2-18
  7
STANDARD
210
0
220
0
230
1
 50
0
 73
    1
 44
1
  0
MTEXT
  5
169
100
AcDbEntity
  8
Layer 1
  6
ByLayer
 62
  256
370
   -1
100
AcDbMText
 10
2.419996473524305
 20
3.171698676215277
 30
0
 40
0.2
 41
8.722222222222291
 71
    7
 72
    1
  1
\C8;\c7697781;\FCIDFont+F1|b0|i0|c1;\H0.059000;\W1.000000;EXT_5V
  7
STANDARD
210
0
220
0
230
1
 50
0
 73
    1
 44
1
  0
MTEXT
  5
16A
100
AcDbEntity
  8
Layer 1
  6
ByLayer
 62
  256
370
   -1
100
AcDbMText
 10
2.026645236545138
 20
3.215033637152777
 30
0
 40
0.2
 41
8.233333333333404
 71
    7
 72
    1
  1
\C8;\c7697781;\FCIDFont+F1|b0|i0|c1;\H0.059000;\W1.000000;J2-19
  7
STANDARD
210
0
220
0
230
1
 50
0
 73
    1
 44
1
  0
MTEXT
  5
16B
100
AcDbEntity
  8
Layer 1
  6
ByLayer
 62
  256
370
   -1
100
AcDbMText
 10
3.273308648003471
 20
3.171698676215277
 30
0
 40
0.2
 41
8.011111111111168
 71
    7
 72
    1
  1
\C8;\c7697781;\FCIDFont+F1|b0|i0|c1;\H0.059000;\W1.000000;CLK
  7
STANDARD
210
0
220
0
230
1
 50
0
 73
    1
 44
1
  0
MTEXT
  5
16C
100
AcDbEntity
  8
Layer 1
  6
ByLayer
 62
  256
370
   -1
100
AcDbMText
 10
3.619988335503471
 20
3.215033637152777
 30
0
 40
0.2
 41
8.233333333333416
 71
    7
 72
    1
  1
\C8;\c7697781;\FCIDFont+F1|b0|i0|c1;\H0.059000;\W1.000000;J3-19
  7
STANDARD
210
0
220
0
230
1
 50
0
 73
    1
 44
1
  0
MTEXT
  5
16D
100
AcDbEntity
  8
Layer 1
  6
ByLayer
 62
  256
370
   -1
100
AcDbMText
 10
3.273308648003471
 20
3.271674262152777
 30
0
 40
0.2
 41
8.033333290932973
 71
    7
 72
    1
  1
\C8;\c7697781;\FCIDFont+F1|b0|i0|c1;\H0.059000;\W1.000000;SD0
  7
STANDARD
210
0
220
0
230
1
 50
0
 73
    1
 44
1
  0
MTEXT
  5
16E
100
AcDbEntity
  8
Layer 1
  6
ByLayer
 62
  256
370
   -1
100
AcDbMText
 10
3.619988335503471
 20
3.315009223090277
 30
0
 40
0.2
 41
8.233333333333414
 71
    7
 72
    1
  1
\C8;\c7697781;\FCIDFont+F1|b0|i0|c1;\H0.059000;\W1.000000;J3-18
  7
STANDARD
210
0
220
0
230
1
 50
0
 73
    1
 44
1
  0
MTEXT
  5
16F
100
AcDbEntity
  8
Layer 1
  6
ByLayer
 62
  256
370
   -1
100
AcDbMText
 10
3.273308648003471
 20
3.371690538194444
 30
0
 40
0.2
 41
7.988888846488527
 71
    7
 72
    1
  1
\C8;\c7697781;\FCIDFont+F1|b0|i0|c1;\H0.059000;\W1.000000;SD1
  7
STANDARD
210
0
220
0
230
1
 50
0
 73
    1
 44
1
  0
MTEXT
  5
170
100
AcDbEntity
  8
Layer 1
  6
ByLayer
 62
  256
370
   -1
100
AcDbMText
 10
3.619988335503471
 20
3.415025499131944
 30
0
 40
0.2
 41
8.233333333333414
 71
    7
 72
    1
  1
\C8;\c7697781;\FCIDFont+F1|b0|i0|c1;\H0.059000;\W1.000000;J3-17
  7
STANDARD
210
0
220
0
230
1
 50
0
 73
    1
 44
1
  0
MTEXT
  5
171
100
AcDbEntity
  8
Layer 1
  6
ByLayer
 62
  256
370
   -1
100
AcDbMText
 10
3.253316243489583
 20
3.471693250868055
 30
0
 40
0.2
 41
8.033333333333402
 71
    7
 72
    1
  1
\C8;\c7697781;\FCIDFont+F1|b0|i0|c1;\H0.059000;\W1.000000;IO15
  7
STANDARD
210
0
220
0
230
1
 50
0
 73
    1
 44
1
  0
MTEXT
  5
172
100
AcDbEntity
  8
Layer 1
  6
ByLayer
 62
  256
370
   -1
100
AcDbMText
 10
3.619988335503471
 20
3.515028211805555
 30
0
 40
0.2
 41
8.233333333333428
 71
    7
 72
    1
  1
\C8;\c7697781;\FCIDFont+F1|b0|i0|c1;\H0.059000;\W1.000000;J3-16
  7
STANDARD
210
0
220
0
230
1
 50
0
 73
    1
 44
1
  0
MTEXT
  5
173
100
AcDbEntity
  8
Layer 1
  6
ByLayer
 62
  256
370
   -1
100
AcDbMText
 10
3.300008138020833
 20
3.57168240017361
 30
0
 40
0.2
 41
7.922222222222278
 71
    7
 72
    1
  1
\C8;\c7697781;\FCIDFont+F1|b0|i0|c1;\H0.059000;\W1.000000;IO2
  7
STANDARD
210
0
220
0
230
1
 50
0
 73
    1
 44
1
  0
MTEXT
  5
174
100
AcDbEntity
  8
Layer 1
  6
ByLayer
 62
  256
370
   -1
100
AcDbMText
 10
3.619988335503471
 20
3.61501736111111
 30
0
 40
0.2
 41
8.233333333333428
 71
    7
 72
    1
  1
\C8;\c7697781;\FCIDFont+F1|b0|i0|c1;\H0.059000;\W1.000000;J3-15
  7
STANDARD
210
0
220
0
230
1
 50
0
 73
    1
 44
1
  0
MTEXT
  5
175
100
AcDbEntity
  8
Layer 1
  6
ByLayer
 62
  256
370
   -1
100
AcDbMText
 10
3.300008138020833
 20
3.671671549479166
 30
0
 40
0.2
 41
7.922222222222278
 71
    7
 72
    1
  1
\C8;\c7697781;\FCIDFont+F1|b0|i0|c1;\H0.059000;\W1.000000;IO0
  7
STANDARD
210
0
220
0
230
1
 50
0
 73
    1
 44
1
  0
MTEXT
  5
176
100
AcDbEntity
  8
Layer 1
  6
ByLayer
 62
  256
370
   -1
100
AcDbMText
 10
3.619988335503471
 20
3.715006510416666
 30
0
 40
0.2
 41
8.255555555555636
 71
    7
 72
    1
  1
\C8;\c7697781;\FCIDFont+F1|b0|i0|c1;\H0.059000;\W1.000000;J3-14
  7
STANDARD
210
0
220
0
230
1
 50
0
 73
    1
 44
1
  0
MTEXT
  5
177
100
AcDbEntity
  8
Layer 1
  6
ByLayer
 62
  256
370
   -1
100
AcDbMText
 10
3.300008138020833
 20
3.770033094618055
 30
0
 40
0.2
 41
7.9444444444445
 71
    7
 72
    1
  1
\C8;\c7697781;\FCIDFont+F1|b0|i0|c1;\H0.059000;\W1.000000;IO4
  7
STANDARD
210
0
220
0
230
1
 50
0
 73
    1
 44
1
  0
MTEXT
  5
178
100
AcDbEntity
  8
Layer 1
  6
ByLayer
 62
  256
370
   -1
100
AcDbMText
 10
3.619988335503471
 20
3.814995659722221
 30
0
 40
0.2
 41
8.233333333333428
 71
    7
 72
    1
  1
\C8;\c7697781;\FCIDFont+F1|b0|i0|c1;\H0.059000;\W1.000000;J3-13
  7
STANDARD
210
0
220
0
230
1
 50
0
 73
    1
 44
1
  0
MTEXT
  5
179
100
AcDbEntity
  8
Layer 1
  6
ByLayer
 62
  256
370
   -1
100
AcDbMText
 10
3.253316243489583
 20
3.87002224392361
 30
0
 40
0.2
 41
8.033333333333402
 71
    7
 72
    1
  1
\C8;\c7697781;\FCIDFont+F1|b0|i0|c1;\H0.059000;\W1.000000;IO16
  7
STANDARD
210
0
220
0
230
1
 50
0
 73
    1
 44
1
  0
MTEXT
  5
17A
100
AcDbEntity
  8
Layer 1
  6
ByLayer
 62
  256
370
   -1
100
AcDbMText
 10
3.619988335503471
 20
3.914998372395833
 30
0
 40
0.2
 41
8.233333333333414
 71
    7
 72
    1
  1
\C8;\c7697781;\FCIDFont+F1|b0|i0|c1;\H0.059000;\W1.000000;J3-12
  7
STANDARD
210
0
220
0
230
1
 50
0
 73
    1
 44
1
  0
MTEXT
  5
17B
100
AcDbEntity
  8
Layer 1
  6
ByLayer
 62
  256
370
   -1
100
AcDbMText
 10
3.253316243489583
 20
3.970024956597221
 30
0
 40
0.2
 41
8.03333333333339
 71
    7
 72
    1
  1
\C8;\c7697781;\FCIDFont+F1|b0|i0|c1;\H0.059000;\W1.000000;IO17
  7
STANDARD
210
0
220
0
230
1
 50
0
 73
    1
 44
1
  0
MTEXT
  5
17C
100
AcDbEntity
  8
Layer 1
  6
ByLayer
 62
  256
370
   -1
100
AcDbMText
 10
3.619988335503471
 20
4.0150146484375
 30
0
 40
0.2
 41
8.18888888888897
 71
    7
 72
    1
  1
\C8;\c7697781;\FCIDFont+F1|b0|i0|c1;\H0.059000;\W1.000000;J3-11
  7
STANDARD
210
0
220
0
230
1
 50
0
 73
    1
 44
1
  0
MTEXT
  5
17D
100
AcDbEntity
  8
Layer 1
  6
ByLayer
 62
  256
370
   -1
100
AcDbMText
 10
3.300008138020833
 20
4.070014105902777
 30
0
 40
0.2
 41
7.92222222222229
 71
    7
 72
    1
  1
\C8;\c7697781;\FCIDFont+F1|b0|i0|c1;\H0.059000;\W1.000000;IO5
  7
STANDARD
210
0
220
0
230
1
 50
0
 73
    1
 44
1
  0
MTEXT
  5
17E
100
AcDbEntity
  8
Layer 1
  6
ByLayer
 62
  256
370
   -1
100
AcDbMText
 10
3.619988335503471
 20
4.114990234375
 30
0
 40
0.2
 41
8.233333333333414
 71
    7
 72
    1
  1
\C8;\c7697781;\FCIDFont+F1|b0|i0|c1;\H0.059000;\W1.000000;J3-10
  7
STANDARD
210
0
220
0
230
1
 50
0
 73
    1
 44
1
  0
MTEXT
  5
17F
100
AcDbEntity
  8
Layer 1
  6
ByLayer
 62
  256
370
   -1
100
AcDbMText
 10
3.253316243489583
 20
4.170016818576388
 30
0
 40
0.2
 41
8.03333333333339
 71
    7
 72
    1
  1
\C8;\c7697781;\FCIDFont+F1|b0|i0|c1;\H0.059000;\W1.000000;IO18
  7
STANDARD
210
0
220
0
230
1
 50
0
 73
    1
 44
1
  0
MTEXT
  5
180
100
AcDbEntity
  8
Layer 1
  6
ByLayer
 62
  256
370
   -1
100
AcDbMText
 10
3.619988335503471
 20
4.215006510416666
 30
0
 40
0.2
 41
8.122222222222305
 71
    7
 72
    1
  1
\C8;\c7697781;\FCIDFont+F1|b0|i0|c1;\H0.059000;\W1.000000;J3-9
  7
STANDARD
210
0
220
0
230
1
 50
0
 73
    1
 44
1
  0
MTEXT
  5
181
100
AcDbEntity
  8
Layer 1
  6
ByLayer
 62
  256
370
   -1
100
AcDbMText
 10
3.253316243489583
 20
4.27001953125
 30
0
 40
0.2
 41
8.03333333333339
 71
    7
 72
    1
  1
\C8;\c7697781;\FCIDFont+F1|b0|i0|c1;\H0.059000;\W1.000000;IO19
  7
STANDARD
210
0
220
0
230
1
 50
0
 73
    1
 44
1
  0
MTEXT
  5
182
100
AcDbEntity
  8
Layer 1
  6
ByLayer
 62
  256
370
   -1
100
AcDbMText
 10
3.619988335503471
 20
4.314982096354166
 30
0
 40
0.2
 41
8.122222222222304
 71
    7
 72
    1
  1
\C8;\c7697781;\FCIDFont+F1|b0|i0|c1;\H0.059000;\W1.000000;J3-8
  7
STANDARD
210
0
220
0
230
1
 50
0
 73
    1
 44
1
  0
MTEXT
  5
183
100
AcDbEntity
  8
Layer 1
  6
ByLayer
 62
  256
370
   -1
100
AcDbMText
 10
3.203321668836805
 20
4.370015462239583
 30
0
 40
0.2
 41
8.21111111111118
 71
    7
 72
    1
  1
\C8;\c7697781;\FCIDFont+F1|b0|i0|c1;\H0.059000;\W1.000000;GND2
  7
STANDARD
210
0
220
0
230
1
 50
0
 73
    1
 44
1
  0
MTEXT
  5
184
100
AcDbEntity
  8
Layer 1
  6
ByLayer
 62
  256
370
   -1
100
AcDbMText
 10
3.619988335503471
 20
4.41500515407986
 30
0
 40
0.2
 41
8.122222222222304
 71
    7
 72
    1
  1
\C8;\c7697781;\FCIDFont+F1|b0|i0|c1;\H0.059000;\W1.000000;J3-7
  7
STANDARD
210
0
220
0
230
1
 50
0
 73
    1
 44
1
  0
MTEXT
  5
185
100
AcDbEntity
  8
Layer 1
  6
ByLayer
 62
  256
370
   -1
100
AcDbMText
 10
3.253316243489583
 20
4.470011393229166
 30
0
 40
0.2
 41
8.03333333333339
 71
    7
 72
    1
  1
\C8;\c7697781;\FCIDFont+F1|b0|i0|c1;\H0.059000;\W1.000000;IO21
  7
STANDARD
210
0
220
0
230
1
 50
0
 73
    1
 44
1
  0
MTEXT
  5
186
100
AcDbEntity
  8
Layer 1
  6
ByLayer
 62
  256
370
   -1
100
AcDbMText
 10
3.619988335503471
 20
4.515028211805555
 30
0
 40
0.2
 41
8.122222222222318
 71
    7
 72
    1
  1
\C8;\c7697781;\FCIDFont+F1|b0|i0|c1;\H0.059000;\W1.000000;J3-6
  7
STANDARD
210
0
220
0
230
1
 50
0
 73
    1
 44
1
  0
MTEXT
  5
187
100
AcDbEntity
  8
Layer 1
  6
ByLayer
 62
  256
370
   -1
100
AcDbMText
 10
3.213338216145833
 20
4.57000732421875
 30
0
 40
0.2
 41
8.233333333333402
 71
    7
 72
    1
  1
\C8;\c7697781;\FCIDFont+F1|b0|i0|c1;\H0.059000;\W1.000000;RXD0
  7
STANDARD
210
0
220
0
230
1
 50
0
 73
    1
 44
1
  0
MTEXT
  5
188
100
AcDbEntity
  8
Layer 1
  6
ByLayer
 62
  256
370
   -1
100
AcDbMText
 10
3.619988335503471
 20
4.614997016059027
 30
0
 40
0.2
 41
8.122222222222318
 71
    7
 72
    1
  1
\C8;\c7697781;\FCIDFont+F1|b0|i0|c1;\H0.059000;\W1.000000;J3-5
  7
STANDARD
210
0
220
0
230
1
 50
0
 73
    1
 44
1
  0
MTEXT
  5
189
100
AcDbEntity
  8
Layer 1
  6
ByLayer
 62
  256
370
   -1
100
AcDbMText
 10
3.2216796875
 20
4.670003255208333
 30
0
 40
0.2
 41
8.233333333333402
 71
    7
 72
    1
  1
\C8;\c7697781;\FCIDFont+F1|b0|i0|c1;\H0.059000;\W1.000000;TXD0
  7
STANDARD
210
0
220
0
230
1
 50
0
 73
    1
 44
1
  0
MTEXT
  5
18A
100
AcDbEntity
  8
Layer 1
  6
ByLayer
 62
  256
370
   -1
100
AcDbMText
 10
3.619988335503471
 20
4.715020073784722
 30
0
 40
0.2
 41
8.144444444444526
 71
    7
 72
    1
  1
\C8;\c7697781;\FCIDFont+F1|b0|i0|c1;\H0.059000;\W1.000000;J3-4
  7
STANDARD
210
0
220
0
230
1
 50
0
 73
    1
 44
1
  0
MTEXT
  5
18B
100
AcDbEntity
  8
Layer 1
  6
ByLayer
 62
  256
370
   -1
100
AcDbMText
 10
3.253316243489583
 20
4.770026312934027
 30
0
 40
0.2
 41
8.077777777777834
 71
    7
 72
    1
  1
\C8;\c7697781;\FCIDFont+F1|b0|i0|c1;\H0.059000;\W1.000000;IO22
  7
STANDARD
210
0
220
0
230
1
 50
0
 73
    1
 44
1
  0
MTEXT
  5
18C
100
AcDbEntity
  8
Layer 1
  6
ByLayer
 62
  256
370
   -1
100
AcDbMText
 10
3.619988335503471
 20
4.814988878038193
 30
0
 40
0.2
 41
8.122222222222318
 71
    7
 72
    1
  1
\C8;\c7697781;\FCIDFont+F1|b0|i0|c1;\H0.059000;\W1.000000;J3-3
  7
STANDARD
210
0
220
0
230
1
 50
0
 73
    1
 44
1
  0
MTEXT
  5
18D
100
AcDbEntity
  8
Layer 1
  6
ByLayer
 62
  256
370
   -1
100
AcDbMText
 10
3.253316243489583
 20
4.8699951171875
 30
0
 40
0.2
 41
8.077777777777847
 71
    7
 72
    1
  1
\C8;\c7697781;\FCIDFont+F1|b0|i0|c1;\H0.059000;\W1.000000;IO23
  7
STANDARD
210
0
220
0
230
1
 50
0
 73
    1
 44
1
  0
MTEXT
  5
18E
100
AcDbEntity
  8
Layer 1
  6
ByLayer
 62
  256
370
   -1
100
AcDbMText
 10
3.619988335503471
 20
4.914998372395833
 30
0
 40
0.2
 41
8.122222222222304
 71
    7
 72
    1
  1
\C8;\c7697781;\FCIDFont+F1|b0|i0|c1;\H0.059000;\W1.000000;J3-2
  7
STANDARD
210
0
220
0
230
1
 50
0
 73
    1
 44
1
  0
MTEXT
  5
18F
100
AcDbEntity
  8
Layer 1
  6
ByLayer
 62
  256
370
   -1
100
AcDbMText
 10
3.203321668836805
 20
4.970018174913193
 30
0
 40
0.2
 41
8.211111111111194
 71
    7
 72
    1
  1
\C8;\c7697781;\FCIDFont+F1|b0|i0|c1;\H0.059000;\W1.000000;GND3
  7
STANDARD
210
0
220
0
230
1
 50
0
 73
    1
 44
1
  0
MTEXT
  5
190
100
AcDbEntity
  8
Layer 1
  6
ByLayer
 62
  256
370
   -1
100
AcDbMText
 10
3.619988335503471
 20
5.013353135850693
 30
0
 40
0.2
 41
8.077777777777859
 71
    7
 72
    1
  1
\C8;\c7697781;\FCIDFont+F1|b0|i0|c1;\H0.059000;\W1.000000;J3-1
  7
STANDARD
210
0
220
0
230
1
 50
0
 73
    1
 44
1
  0
MTEXT
  5
191
100
AcDbEntity
  8
Layer 1
  6
ByLayer
 62
  256
370
   -1
100
AcDbMText
 10
5.218343098958333
 20
3.271674262152777
 30
0
 40
0.2
 41
8.01111111111118
 71
    7
 72
    1
  1
\C8;\c7697781;\FCIDFont+F1|b0|i0|c1;\H0.059000;\W1.000000;LED
  7
STANDARD
210
0
220
0
230
1
 50
0
 73
    1
 44
1
  0
MTEXT
  5
192
100
AcDbEntity
  8
Layer 1
  6
ByLayer
 62
  256
370
   -1
100
AcDbMText
 10
4.87331814236111
 20
3.315009223090277
 30
0
 40
0.2
 41
8.01111111111118
 71
    7
 72
    1
  1
\C8;\c7697781;\FCIDFont+F1|b0|i0|c1;\H0.059000;\W1.000000;LED
  7
STANDARD
210
0
220
0
230
1
 50
0
 73
    1
 44
1
  0
MTEXT
  5
193
100
AcDbEntity
  8
Layer 1
  6
ByLayer
 62
  256
370
   -1
100
AcDbMText
 10
5.218343098958333
 20
3.171698676215277
 30
0
 40
0.2
 41
8.055555513155195
 71
    7
 72
    1
  1
\C8;\c7697781;\FCIDFont+F1|b0|i0|c1;\H0.059000;\W1.000000;SDO
  7
STANDARD
210
0
220
0
230
1
 50
0
 73
    1
 44
1
  0
MTEXT
  5
194
100
AcDbEntity
  8
Layer 1
  6
ByLayer
 62
  256
370
   -1
100
AcDbMText
 10
4.85498046875
 20
3.215033637152777
 30
0
 40
0.2
 41
8.055555513155195
 71
    7
 72
    1
  1
\C8;\c7697781;\FCIDFont+F1|b0|i0|c1;\H0.059000;\W1.000000;SDO
  7
STANDARD
210
0
220
0
230
1
 50
0
 73
    1
 44
1
  0
MTEXT
  5
195
100
AcDbEntity
  8
Layer 1
  6
ByLayer
 62
  256
370
   -1
100
AcDbMText
 10
5.218343098958333
 20
3.371690538194444
 30
0
 40
0.2
 41
8.03333329093296
 71
    7
 72
    1
  1
\C8;\c7697781;\FCIDFont+F1|b0|i0|c1;\H0.059000;\W1.000000;SCK
  7
STANDARD
210
0
220
0
230
1
 50
0
 73
    1
 44
1
  0
MTEXT
  5
196
100
AcDbEntity
  8
Layer 1
  6
ByLayer
 62
  256
370
   -1
100
AcDbMText
 10
4.864976671006943
 20
3.415025499131944
 30
0
 40
0.2
 41
8.03333329093296
 71
    7
 72
    1
  1
\C8;\c7697781;\FCIDFont+F1|b0|i0|c1;\H0.059000;\W1.000000;SCK
  7
STANDARD
210
0
220
0
230
1
 50
0
 73
    1
 44
1
  0
MTEXT
  5
197
100
AcDbEntity
  8
Layer 1
  6
ByLayer
 62
  256
370
   -1
100
AcDbMText
 10
5.218343098958333
 20
3.471693250868055
 30
0
 40
0.2
 41
7.944444402044083
 71
    7
 72
    1
  1
\C8;\c7697781;\FCIDFont+F1|b0|i0|c1;\H0.059000;\W1.000000;SDI
  7
STANDARD
210
0
220
0
230
1
 50
0
 73
    1
 44
1
  0
MTEXT
  5
198
100
AcDbEntity
  8
Layer 1
  6
ByLayer
 62
  256
370
   -1
100
AcDbMText
 10
4.89663357204861
 20
3.515028211805555
 30
0
 40
0.2
 41
7.944444402044083
 71
    7
 72
    1
  1
\C8;\c7697781;\FCIDFont+F1|b0|i0|c1;\H0.059000;\W1.000000;SDI
  7
STANDARD
210
0
220
0
230
1
 50
0
 73
    1
 44
1
  0
MTEXT
  5
199
100
AcDbEntity
  8
Layer 1
  6
ByLayer
 62
  256
370
   -1
100
AcDbMText
 10
5.218343098958333
 20
3.57168240017361
 30
0
 40
0.2
 41
8.522222179821862
 71
    7
 72
    1
  1
\C8;\c7697781;\FCIDFont+F1|b0|i0|c1;\H0.059000;\W1.000000;DC_RS
  7
STANDARD
210
0
220
0
230
1
 50
0
 73
    1
 44
1
  0
MTEXT
  5
19A
100
AcDbEntity
  8
Layer 1
  6
ByLayer
 62
  256
370
   -1
100
AcDbMText
 10
4.753329806857638
 20
3.61501736111111
 30
0
 40
0.2
 41
8.522222179821862
 71
    7
 72
    1
  1
\C8;\c7697781;\FCIDFont+F1|b0|i0|c1;\H0.059000;\W1.000000;DC_RS
  7
STANDARD
210
0
220
0
230
1
 50
0
 73
    1
 44
1
  0
MTEXT
  5
19B
100
AcDbEntity
  8
Layer 1
  6
ByLayer
 62
  256
370
   -1
100
AcDbMText
 10
5.218343098958333
 20
3.671671549479166
 30
0
 40
0.2
 41
8.366666624266292
 71
    7
 72
    1
  1
\C8;\c7697781;\FCIDFont+F1|b0|i0|c1;\H0.059000;\W1.000000;RESET
  7
STANDARD
210
0
220
0
230
1
 50
0
 73
    1
 44
1
  0
MTEXT
  5
19C
100
AcDbEntity
  8
Layer 1
  6
ByLayer
 62
  256
370
   -1
100
AcDbMText
 10
4.758341471354166
 20
3.715006510416666
 30
0
 40
0.2
 41
8.366666624266292
 71
    7
 72
    1
  1
\C8;\c7697781;\FCIDFont+F1|b0|i0|c1;\H0.059000;\W1.000000;RESET
  7
STANDARD
210
0
220
0
230
1
 50
0
 73
    1
 44
1
  0
MTEXT
  5
19D
100
AcDbEntity
  8
Layer 1
  6
ByLayer
 62
  256
370
   -1
100
AcDbMText
 10
5.218343098958333
 20
3.770033094618055
 30
0
 40
0.2
 41
7.855555513155181
 71
    7
 72
    1
  1
\C8;\c7697781;\FCIDFont+F1|b0|i0|c1;\H0.059000;\W1.000000;CS
  7
STANDARD
210
0
220
0
230
1
 50
0
 73
    1
 44
1
  0
MTEXT
  5
19E
100
AcDbEntity
  8
Layer 1
  6
ByLayer
 62
  256
370
   -1
100
AcDbMText
 10
4.91998291015625
 20
3.814995659722221
 30
0
 40
0.2
 41
7.855555513155181
 71
    7
 72
    1
  1
\C8;\c7697781;\FCIDFont+F1|b0|i0|c1;\H0.059000;\W1.000000;CS
  7
STANDARD
210
0
220
0
230
1
 50
0
 73
    1
 44
1
  0
MTEXT
  5
19F
100
AcDbEntity
  8
Layer 1
  6
ByLayer
 62
  256
370
   -1
100
AcDbMText
 10
5.218343098958333
 20
3.87002224392361
 30
0
 40
0.2
 41
8.055555555555625
 71
    7
 72
    1
  1
\C8;\c7697781;\FCIDFont+F1|b0|i0|c1;\H0.059000;\W1.000000;GND
  7
STANDARD
210
0
220
0
230
1
 50
0
 73
    1
 44
1
  0
MTEXT
  5
1A0
100
AcDbEntity
  8
Layer 1
  6
ByLayer
 62
  256
370
   -1
100
AcDbMText
 10
4.849995930989583
 20
3.914998372395833
 30
0
 40
0.2
 41
8.055555555555625
 71
    7
 72
    1
  1
\C8;\c7697781;\FCIDFont+F1|b0|i0|c1;\H0.059000;\W1.000000;GND
  7
STANDARD
210
0
220
0
230
1
 50
0
 73
    1
 44
1
  0
MTEXT
  5
1A1
100
AcDbEntity
  8
Layer 1
  6
ByLayer
 62
  256
370
   -1
100
AcDbMText
 10
5.218343098958333
 20
3.970024956597221
 30
0
 40
0.2
 41
8.03333333333339
 71
    7
 72
    1
  1
\C8;\c7697781;\FCIDFont+F1|b0|i0|c1;\H0.059000;\W1.000000;VCC
  7
STANDARD
210
0
220
0
230
1
 50
0
 73
    1
 44
1
  0
MTEXT
  5
1A2
100
AcDbEntity
  8
Layer 1
  6
ByLayer
 62
  256
370
   -1
100
AcDbMText
 10
4.859965006510416
 20
4.0150146484375
 30
0
 40
0.2
 41
8.03333333333339
 71
    7
 72
    1
  1
\C8;\c7697781;\FCIDFont+F1|b0|i0|c1;\H0.059000;\W1.000000;VCC
  7
STANDARD
210
0
220
0
230
1
 50
0
 73
    1
 44
1
  0
MTEXT
  5
1A3
100
AcDbEntity
  8
Layer 1
  6
ByLayer
 62
  256
370
   -1
100
AcDbMText
 10
5.218343098958333
 20
3.071668836805555
 30
0
 40
0.2
 41
8.500000000000055
 71
    7
 72
    1
  1
\C8;\c7697781;\FCIDFont+F1|b0|i0|c1;\H0.059000;\W1.000000;T_CLK
  7
STANDARD
210
0
220
0
230
1
 50
0
 73
    1
 44
1
  0
MTEXT
  5
1A4
100
AcDbEntity
  8
Layer 1
  6
ByLayer
 62
  256
370
   -1
100
AcDbMText
 10
4.774970160590277
 20
3.115003797743055
 30
0
 40
0.2
 41
8.500000000000055
 71
    7
 72
    1
  1
\C8;\c7697781;\FCIDFont+F1|b0|i0|c1;\H0.059000;\W1.000000;T_CKL
  7
STANDARD
210
0
220
0
230
1
 50
0
 73
    1
 44
1
  0
MTEXT
  5
1A5
100
AcDbEntity
  8
Layer 1
  6
ByLayer
 62
  256
370
   -1
100
AcDbMText
 10
5.218343098958333
 20
2.971706814236111
 30
0
 40
0.2
 41
8.344444402044072
 71
    7
 72
    1
  1
\C8;\c7697781;\FCIDFont+F1|b0|i0|c1;\H0.059000;\W1.000000;T_CS
  7
STANDARD
210
0
220
0
230
1
 50
0
 73
    1
 44
1
  0
MTEXT
  5
1A6
100
AcDbEntity
  8
Layer 1
  6
ByLayer
 62
  256
370
   -1
100
AcDbMText
 10
4.821641710069443
 20
3.015041775173611
 30
0
 40
0.2
 41
8.344444402044072
 71
    7
 72
    1
  1
\C8;\c7697781;\FCIDFont+F1|b0|i0|c1;\H0.059000;\W1.000000;T_CS
  7
STANDARD
210
0
220
0
230
1
 50
0
 73
    1
 44
1
  0
MTEXT
  5
1A7
100
AcDbEntity
  8
Layer 1
  6
ByLayer
 62
  256
370
   -1
100
AcDbMText
 10
5.218343098958333
 20
2.871676974826388
 30
0
 40
0.2
 41
8.433333333333401
 71
    7
 72
    1
  1
\C8;\c7697781;\FCIDFont+F1|b0|i0|c1;\H0.059000;\W1.000000;T_DIN
  7
STANDARD
210
0
220
0
230
1
 50
0
 73
    1
 44
1
  0
MTEXT
  5
1A8
100
AcDbEntity
  8
Layer 1
  6
ByLayer
 62
  256
370
   -1
100
AcDbMText
 10
4.7933349609375
 20
2.915011935763888
 30
0
 40
0.2
 41
8.433333333333401
 71
    7
 72
    1
  1
\C8;\c7697781;\FCIDFont+F1|b0|i0|c1;\H0.059000;\W1.000000;T_DIN
  7
STANDARD
210
0
220
0
230
1
 50
0
 73
    1
 44
1
  0
MTEXT
  5
1A9
100
AcDbEntity
  8
Layer 1
  6
ByLayer
 62
  256
370
   -1
100
AcDbMText
 10
5.218343098958333
 20
2.771660698784721
 30
0
 40
0.2
 41
8.366666666666735
 71
    7
 72
    1
  1
\C8;\c7697781;\FCIDFont+F1|b0|i0|c1;\H0.059000;\W1.000000;T_DO
  7
STANDARD
210
0
220
0
230
1
 50
0
 73
    1
 44
1
  0
MTEXT
  5
1AA
100
AcDbEntity
  8
Layer 1
  6
ByLayer
 62
  256
370
   -1
100
AcDbMText
 10
4.81167263454861
 20
2.814995659722221
 30
0
 40
0.2
 41
8.366666666666735
 71
    7
 72
    1
  1
\C8;\c7697781;\FCIDFont+F1|b0|i0|c1;\H0.059000;\W1.000000;T_DO
  7
STANDARD
210
0
220
0
230
1
 50
0
 73
    1
 44
1
  0
MTEXT
  5
1AB
100
AcDbEntity
  8
Layer 1
  6
ByLayer
 62
  256
370
   -1
100
AcDbMText
 10
5.218343098958333
 20
2.671685112847221
 30
0
 40
0.2
 41
8.455555555555611
 71
    7
 72
    1
  1
\C8;\c7697781;\FCIDFont+F1|b0|i0|c1;\H0.059000;\W1.000000;T_IRQ
  7
STANDARD
210
0
220
0
230
1
 50
0
 73
    1
 44
1
  0
MTEXT
  5
1AC
100
AcDbEntity
  8
Layer 1
  6
ByLayer
 62
  256
370
   -1
100
AcDbMText
 10
4.788323296440972
 20
2.715020073784721
 30
0
 40
0.2
 41
8.455555555555611
 71
    7
 72
    1
  1
\C8;\c7697781;\FCIDFont+F1|b0|i0|c1;\H0.059000;\W1.000000;T_IRQ
  7
STANDARD
210
0
220
0
230
1
 50
0
 73
    1
 44
1
  0
MTEXT
  5
1AD
100
AcDbEntity
  8
Layer 1
  6
ByLayer
 62
  256
370
   -1
100
AcDbMText
 10
9.033311631944445
 20
3.171698676215277
 30
0
 40
0.2
 41
8.611111026310333
 71
    7
 72
    1
  1
\C8;\c7697781;\FCIDFont+F1|b0|i0|c1;\H0.059000;\W1.000000;SD_SDI
  7
STANDARD
210
0
220
0
230
1
 50
0
 73
    1
 44
1
  0
MTEXT
  5
1AE
100
AcDbEntity
  8
Layer 1
  6
ByLayer
 62
  256
370
   -1
100
AcDbMText
 10
9.516655815972221
 20
3.215033637152777
 30
0
 40
0.2
 41
8.544444402044096
 71
    7
 72
    1
  1
\C8;\c7697781;\FCIDFont+F1|b0|i0|c1;\H0.059000;\W1.000000;SD_DO
  7
STANDARD
210
0
220
0
230
1
 50
0
 73
    1
 44
1
  0
MTEXT
  5
1AF
100
AcDbEntity
  8
Layer 1
  6
ByLayer
 62
  256
370
   -1
100
AcDbMText
 10
9.056654188368055
 20
3.271674262152777
 30
0
 40
0.2
 41
8.522222137421434
 71
    7
 72
    1
  1
\C8;\c7697781;\FCIDFont+F1|b0|i0|c1;\H0.059000;\W1.000000;SD_CS
  7
STANDARD
210
0
220
0
230
1
 50
0
 73
    1
 44
1
  0
MTEXT
  5
1B0
100
AcDbEntity
  8
Layer 1
  6
ByLayer
 62
  256
370
   -1
100
AcDbMText
 10
9.516655815972221
 20
3.315009223090277
 30
0
 40
0.2
 41
8.522222137421434
 71
    7
 72
    1
  1
\C8;\c7697781;\FCIDFont+F1|b0|i0|c1;\H0.059000;\W1.000000;SD_CS
  7
STANDARD
210
0
220
0
230
1
 50
0
 73
    1
 44
1
  0
MTEXT
  5
1B1
100
AcDbEntity
  8
Layer 1
  6
ByLayer
 62
  256
370
   -1
100
AcDbMText
 10
8.991631401909721
 20
3.071668836805555
 30
0
 40
0.2
 41
8.722222137421443
 71
    7
 72
    1
  1
\C8;\c7697781;\FCIDFont+F1|b0|i0|c1;\H0.059000;\W1.000000;SD_SDO
  7
STANDARD
210
0
220
0
230
1
 50
0
 73
    1
 44
1
  0
MTEXT
  5
1B2
100
AcDbEntity
  8
Layer 1
  6
ByLayer
 62
  256
370
   -1
100
AcDbMText
 10
9.516655815972221
 20
3.115003797743055
 30
0
 40
0.2
 41
8.699999915199209
 71
    7
 72
    1
  1
\C8;\c7697781;\FCIDFont+F1|b0|i0|c1;\H0.059000;\W1.000000;SD_SCK
  7
STANDARD
210
0
220
0
230
1
 50
0
 73
    1
 44
1
  0
MTEXT
  5
1B3
100
AcDbEntity
  8
Layer 1
  6
ByLayer
 62
  256
370
   -1
100
AcDbMText
 10
9.001641167534721
 20
2.971706814236111
 30
0
 40
0.2
 41
8.699999915199209
 71
    7
 72
    1
  1
\C8;\c7697781;\FCIDFont+F1|b0|i0|c1;\H0.059000;\W1.000000;SD_SCK
  7
STANDARD
210
0
220
0
230
1
 50
0
 73
    1
 44
1
  0
MTEXT
  5
1B4
100
AcDbEntity
  8
Layer 1
  6
ByLayer
 62
  256
370
   -1
100
AcDbMText
 10
9.516655815972221
 20
3.015041775173611
 30
0
 40
0.2
 41
8.433333290932985
 71
    7
 72
    1
  1
\C8;\c7697781;\FCIDFont+F1|b0|i0|c1;\H0.059000;\W1.000000;SD_DI
  7
STANDARD
210
0
220
0
230
1
 50
0
 73
    1
 44
1
  0
MTEXT
  5
1B5
100
AcDbEntity
  8
Layer 1
  6
ByLayer
 62
  256
370
   -1
100
AcDbMText
 10
6.926703559027777
 20
3.5516357421875
 30
0
 40
0.2
 41
9.722222179821848
 71
    7
 72
    1
  1
\C8;\c7697781;\FCIDFont+F1|b0|i0|c1;\H0.099121;\W1.000000;4" TFT DISPLAY
  7
STANDARD
210
0
220
0
230
1
 50
0
 73
    1
 44
1
  0
MTEXT
  5
1B6
100
AcDbEntity
  8
Layer 1
  6
ByLayer
 62
  256
370
   -1
100
AcDbMText
 10
4.32672119140625
 20
5.999959309895833
 30
0
 40
0.2
 41
8.58888888888897
 71
    7
 72
    1
  1
\C8;\c7697781;\FCIDFont+F1|b0|i0|c1;\H0.069621;\W1.000000;MPC9601
  7
STANDARD
210
0
220
0
230
1
 50
0
 73
    1
 44
1
  0
MTEXT
  5
1B7
100
AcDbEntity
  8
Layer 1
  6
ByLayer
 62
  256
370
   -1
100
AcDbMText
 10
5.413330078125
 20
6.691657172309027
 30
0
 40
0.2
 41
8.077777735377417
 71
    7
 72
    1
  1
\C8;\c7697781;\FCIDFont+F1|b0|i0|c1;\H0.059000;\W1.000000;SDA
  7
STANDARD
210
0
220
0
230
1
 50
90
 73
    1
 44
1
  0
MTEXT
  5
1B8
100
AcDbEntity
  8
Layer 1
  6
ByLayer
 62
  256
370
   -1
100
AcDbMText
 10
5.313300238715277
 20
6.691657172309027
 30
0
 40
0.2
 41
8.03333333333339
 71
    7
 72
    1
  1
\C8;\c7697781;\FCIDFont+F1|b0|i0|c1;\H0.059000;\W1.000000;VCC
  7
STANDARD
210
0
220
0
230
1
 50
90
 73
    1
 44
1
  0
MTEXT
  5
1B9
100
AcDbEntity
  8
Layer 1
  6
ByLayer
 62
  256
370
   -1
100
AcDbMText
 10
5.256666395399305
 20
6.321662055121527
 30
0
 40
0.2
 41
8.055555555555625
 71
    7
 72
    1
  1
\C8;\c7697781;\FCIDFont+F1|b0|i0|c1;\H0.059000;\W1.000000;GND
  7
STANDARD
210
0
220
0
230
1
 50
90
 73
    1
 44
1
  0
MTEXT
  5
1BA
100
AcDbEntity
  8
Layer 1
  6
ByLayer
 62
  256
370
   -1
100
AcDbMText
 10
5.65664333767361
 20
5.791673448350693
 30
0
 40
0.2
 41
8.122222179821849
 71
    7
 72
    1
  1
\C8;\c7697781;\FCIDFont+F1|b0|i0|c1;\H0.059000;\W1.000000;SCL1
  7
STANDARD
210
0
220
0
230
1
 50
90
 73
    1
 44
1
  0
MTEXT
  5
1BB
100
AcDbEntity
  8
Layer 1
  6
ByLayer
 62
  256
370
   -1
100
AcDbMText
 10
5.55666775173611
 20
5.791673448350693
 30
0
 40
0.2
 41
8.188888846488528
 71
    7
 72
    1
  1
\C8;\c7697781;\FCIDFont+F1|b0|i0|c1;\H0.059000;\W1.000000;SDA1
  7
STANDARD
210
0
220
0
230
1
 50
90
 73
    1
 44
1
  0
MTEXT
  5
1BC
100
AcDbEntity
  8
Layer 1
  6
ByLayer
 62
  256
370
   -1
100
AcDbMText
 10
5.4566650390625
 20
5.791673448350693
 30
0
 40
0.2
 41
8.144444444444501
 71
    7
 72
    1
  1
\C8;\c7697781;\FCIDFont+F1|b0|i0|c1;\H0.059000;\W1.000000;VCC1
  7
STANDARD
210
0
220
0
230
1
 50
90
 73
    1
 44
1
  0
MTEXT
  5
1BD
100
AcDbEntity
  8
Layer 1
  6
ByLayer
 62
  256
370
   -1
100
AcDbMText
 10
5.356635199652777
 20
5.791673448350693
 30
0
 40
0.2
 41
8.166666666666735
 71
    7
 72
    1
  1
\C8;\c7697781;\FCIDFont+F1|b0|i0|c1;\H0.059000;\W1.000000;GND1
  7
STANDARD
210
0
220
0
230
1
 50
90
 73
    1
 44
1
  0
MTEXT
  5
1BE
100
AcDbEntity
  8
Layer 1
  6
ByLayer
 62
  256
370
   -1
100
AcDbMText
 10
1.275037977430555
 20
3.021579318576388
 30
0
 40
0.2
 41
7.76666666666676
 71
    7
 72
    1
  1
\C8;\c7697781;\FCIDFont+F1|b0|i0|c1;\H0.069621;\W1.000000;J3
  7
STANDARD
210
0
220
0
230
1
 50
0
 73
    1
 44
1
  0
MTEXT
  5
1BF
100
AcDbEntity
  8
Layer 1
  6
ByLayer
 62
  256
370
   -1
100
AcDbMText
 10
1.289998372395833
 20
3.171698676215277
 30
0
 40
0.2
 41
7.633333333333389
 71
    7
 72
    1
  1
\C8;\c7697781;\FCIDFont+F1|b0|i0|c1;\H0.059000;\W1.000000;1
  7
STANDARD
210
0
220
0
230
1
 50
0
 73
    1
 44
1
  0
MTEXT
  5
1C0
100
AcDbEntity
  8
Layer 1
  6
ByLayer
 62
  256
370
   -1
100
AcDbMText
 10
1.441650390625
 20
3.215033637152777
 30
0
 40
0.2
 41
7.633333333333389
 71
    7
 72
    1
  1
\C8;\c7697781;\FCIDFont+F1|b0|i0|c1;\H0.059000;\W1.000000;1
  7
STANDARD
210
0
220
0
230
1
 50
0
 73
    1
 44
1
  0
MTEXT
  5
1C1
100
AcDbEntity
  8
Layer 1
  6
ByLayer
 62
  256
370
   -1
100
AcDbMText
 10
1.289998372395833
 20
3.271674262152777
 30
0
 40
0.2
 41
7.677777777777833
 71
    7
 72
    1
  1
\C8;\c7697781;\FCIDFont+F1|b0|i0|c1;\H0.059000;\W1.000000;2
  7
STANDARD
210
0
220
0
230
1
 50
0
 73
    1
 44
1
  0
MTEXT
  5
1C2
100
AcDbEntity
  8
Layer 1
  6
ByLayer
 62
  256
370
   -1
100
AcDbMText
 10
1.441650390625
 20
3.315009223090277
 30
0
 40
0.2
 41
7.677777777777833
 71
    7
 72
    1
  1
\C8;\c7697781;\FCIDFont+F1|b0|i0|c1;\H0.059000;\W1.000000;2
  7
STANDARD
210
0
220
0
230
1
 50
0
 73
    1
 44
1
  0
MTEXT
  5
1C3
100
AcDbEntity
  8
Layer 1
  6
ByLayer
 62
  256
370
   -1
100
AcDbMText
 10
1.275037977430555
 20
3.571587456597221
 30
0
 40
0.2
 41
7.78888888888897
 71
    7
 72
    1
  1
\C8;\c7697781;\FCIDFont+F1|b0|i0|c1;\H0.069621;\W1.000000;J4
  7
STANDARD
210
0
220
0
230
1
 50
0
 73
    1
 44
1
  0
MTEXT
  5
1C4
100
AcDbEntity
  8
Layer 1
  6
ByLayer
 62
  256
370
   -1
100
AcDbMText
 10
1.289998372395833
 20
3.671671549479166
 30
0
 40
0.2
 41
7.633333333333389
 71
    7
 72
    1
  1
\C8;\c7697781;\FCIDFont+F1|b0|i0|c1;\H0.059000;\W1.000000;1
  7
STANDARD
210
0
220
0
230
1
 50
0
 73
    1
 44
1
  0
MTEXT
  5
1C5
100
AcDbEntity
  8
Layer 1
  6
ByLayer
 62
  256
370
   -1
100
AcDbMText
 10
1.441650390625
 20
3.715006510416666
 30
0
 40
0.2
 41
7.633333333333389
 71
    7
 72
    1
  1
\C8;\c7697781;\FCIDFont+F1|b0|i0|c1;\H0.059000;\W1.000000;1
  7
STANDARD
210
0
220
0
230
1
 50
0
 73
    1
 44
1
  0
MTEXT
  5
1C6
100
AcDbEntity
  8
Layer 1
  6
ByLayer
 62
  256
370
   -1
100
AcDbMText
 10
1.289998372395833
 20
3.770033094618055
 30
0
 40
0.2
 41
7.677777777777833
 71
    7
 72
    1
  1
\C8;\c7697781;\FCIDFont+F1|b0|i0|c1;\H0.059000;\W1.000000;2
  7
STANDARD
210
0
220
0
230
1
 50
0
 73
    1
 44
1
  0
MTEXT
  5
1C7
100
AcDbEntity
  8
Layer 1
  6
ByLayer
 62
  256
370
   -1
100
AcDbMText
 10
1.441650390625
 20
3.814995659722221
 30
0
 40
0.2
 41
7.677777777777833
 71
    7
 72
    1
  1
\C8;\c7697781;\FCIDFont+F1|b0|i0|c1;\H0.059000;\W1.000000;2
  7
STANDARD
210
0
220
0
230
1
 50
0
 73
    1
 44
1
  0
MTEXT
  5
1C8
100
AcDbEntity
  8
Layer 1
  6
ByLayer
 62
  256
370
   -1
100
AcDbMText
 10
1.289998372395833
 20
3.87002224392361
 30
0
 40
0.2
 41
7.677777777777846
 71
    7
 72
    1
  1
\C8;\c7697781;\FCIDFont+F1|b0|i0|c1;\H0.059000;\W1.000000;3
  7
STANDARD
210
0
220
0
230
1
 50
0
 73
    1
 44
1
  0
MTEXT
  5
1C9
100
AcDbEntity
  8
Layer 1
  6
ByLayer
 62
  256
370
   -1
100
AcDbMText
 10
1.441650390625
 20
3.914998372395833
 30
0
 40
0.2
 41
7.677777777777846
 71
    7
 72
    1
  1
\C8;\c7697781;\FCIDFont+F1|b0|i0|c1;\H0.059000;\W1.000000;3
  7
STANDARD
210
0
220
0
230
1
 50
0
 73
    1
 44
1
  0
MTEXT
  5
1CA
100
AcDbEntity
  8
Layer 1
  6
ByLayer
 62
  256
370
   -1
100
AcDbMText
 10
1.289998372395833
 20
3.970024956597221
 30
0
 40
0.2
 41
7.700000000000055
 71
    7
 72
    1
  1
\C8;\c7697781;\FCIDFont+F1|b0|i0|c1;\H0.059000;\W1.000000;4
  7
STANDARD
210
0
220
0
230
1
 50
0
 73
    1
 44
1
  0
MTEXT
  5
1CB
100
AcDbEntity
  8
Layer 1
  6
ByLayer
 62
  256
370
   -1
100
AcDbMText
 10
1.441650390625
 20
4.0150146484375
 30
0
 40
0.2
 41
7.700000000000055
 71
    7
 72
    1
  1
\C8;\c7697781;\FCIDFont+F1|b0|i0|c1;\H0.059000;\W1.000000;4
  7
STANDARD
210
0
220
0
230
1
 50
0
 73
    1
 44
1
  0
MTEXT
  5
1CC
100
AcDbEntity
  8
Layer 1
  6
ByLayer
 62
  256
370
   -1
100
AcDbMText
 10
1.758355034722222
 20
3.176567925347221
 30
0
 40
0.2
 41
7.766666666666747
 71
    7
 72
    1
  1
\C8;\c7697781;\FCIDFont+F1|b0|i0|c1;\H0.069621;\W1.000000;D1
  7
STANDARD
210
0
220
0
230
1
 50
0
 73
    1
 44
1
  0
INSERT
  5
1CD
100
AcDbEntity
  8
Layer 1
  6
ByLayer
 62
  256
370
   -1
100
AcDbBlockReference
  2
Block_2
 10
0
 20
0
 30
0
 41
1
 42
1
 43
0
 50
0
 70
    1
 71
    1
 44
0
 45
0
  0
INSERT
  5
1CE
100
AcDbEntity
  8
Layer 1
  6
ByLayer
 62
  256
370
   -1
100
AcDbBlockReference
  2
Block_3
 10
0
 20
0
 30
0
 41
1
 42
1
 43
0
 50
0
 70
    1
 71
    1
 44
0
 45
0
  0
INSERT
  5
1CF
100
AcDbEntity
  8
Layer 1
  6
ByLayer
 62
  256
370
   -1
100
AcDbBlockReference
  2
Block_4
 10
0
 20
0
 30
0
 41
1
 42
1
 43
0
 50
0
 70
    1
 71
    1
 44
0
 45
0
  0
INSERT
  5
1D0
100
AcDbEntity
  8
Layer 1
  6
ByLayer
 62
  256
370
   -1
100
AcDbBlockReference
  2
Block_5
 10
0
 20
0
 30
0
 41
1
 42
1
 43
0
 50
0
 70
    1
 71
    1
 44
0
 45
0
  0
MTEXT
  5
1D1
100
AcDbEntity
  8
noname
  6
ByLayer
 62
  256
370
   -1
100
AcDbMText
 10
5.7967529296875
 20
5.94329833984375
 30
0
 40
0.2
 41
8.411111068710788
 71
    7
 72
    1
  1
\C8;\c7697781;\FCIDFont+F1|b0|i0|c1;\H0.069621;\W1.000000;DS3231
  7

210
0
220
0
230
1
 50
90
 73
    1
 44
1
  0
MTEXT
  5
1D2
100
AcDbEntity
  8
noname
  6
ByLayer
 62
  256
370
   -1
100
AcDbMText
 10
5.4566650390625
 20
6.336676703559027
 30
0
 40
0.2
 41
8.077777735377417
 71
    7
 72
    1
  1
\C8;\c7697781;\FCIDFont+F1|b0|i0|c1;\H0.059000;\W1.000000;SDA
  7

210
0
220
0
230
1
 50
90
 73
    1
 44
1
  0
MTEXT
  5
1D3
100
AcDbEntity
  8
noname
  6
ByLayer
 62
  256
370
   -1
100
AcDbMText
 10
5.756659613715277
 20
6.358323838975693
 30
0
 40
0.2
 41
8.01111111111118
 71
    7
 72
    1
  1
\C8;\c7697781;\FCIDFont+F1|b0|i0|c1;\H0.059000;\W1.000000;32K
  7

210
0
220
0
230
1
 50
90
 73
    1
 44
1
  0
MTEXT
  5
1D4
100
AcDbEntity
  8
noname
  6
ByLayer
 62
  256
370
   -1
100
AcDbMText
 10
4.113301595052083
 20
5.370001898871527
 30
0
 40
0.2
 41
7.966666666666722
 71
    7
 72
    1
  1
\C8;\c7697781;\FCIDFont+F1|b0|i0|c1;\H0.059000;\W1.000000;VIN
  7

210
0
220
0
230
1
 50
90
 73
    1
 44
1
  0
MTEXT
  5
1D5
100
AcDbEntity
  8
noname
  6
ByLayer
 62
  256
370
   -1
100
AcDbMText
 10
5.61330837673611
 20
5.399983723958333
 30
0
 40
0.2
 41
8.122222179821849
 71
    7
 72
    1
  1
\C8;\c7697781;\FCIDFont+F1|b0|i0|c1;\H0.059000;\W1.000000;SCL1
  7

210
0
220
0
230
1
 50
90
 73
    1
 44
1
  0
MTEXT
  5
1D6
100
AcDbEntity
  8
noname
  6
ByLayer
 62
  256
370
   -1
100
AcDbMText
 10
4.156636555989583
 20
5.691657172309027
 30
0
 40
0.2
 41
7.966666666666722
 71
    7
 72
    1
  1
\C8;\c7697781;\FCIDFont+F1|b0|i0|c1;\H0.059000;\W1.000000;VIN
  7

210
0
220
0
230
1
 50
90
 73
    1
 44
1
  0
MTEXT
  5
1D7
100
AcDbEntity
  8
noname
  6
ByLayer
 62
  256
370
   -1
100
AcDbMText
 10
4.213331434461805
 20
5.32333034939236
 30
0
 40
0.2
 41
8.055555555555625
 71
    7
 72
    1
  1
\C8;\c7697781;\FCIDFont+F1|b0|i0|c1;\H0.059000;\W1.000000;GND
  7
STANDARD
210
0
220
0
230
1
 50
90
 73
    1
 44
1
  0
MTEXT
  5
1D8
100
AcDbEntity
  8
noname
  6
ByLayer
 62
  256
370
   -1
100
AcDbMText
 10
4.55666775173611
 20
5.691657172309027
 30
0
 40
0.2
 41
7.833333333333389
 71
    7
 72
    1
  1
\C8;\c7697781;\FCIDFont+F1|b0|i0|c1;\H0.059000;\W1.000000;A1
  7
STANDARD
210
0
220
0
230
1
 50
90
 73
    1
 44
1
  0
MTEXT
  5
1D9
100
AcDbEntity
  8
noname
  6
ByLayer
 62
  256
370
   -1
100
AcDbMText
 10
4.456644694010416
 20
5.691657172309027
 30
0
 40
0.2
 41
8.077777735377417
 71
    7
 72
    1
  1
\C8;\c7697781;\FCIDFont+F1|b0|i0|c1;\H0.059000;\W1.000000;SDA
  7
STANDARD
210
0
220
0
230
1
 50
90
 73
    1
 44
1
  0
MTEXT
  5
1DA
100
AcDbEntity
  8
noname
  6
ByLayer
 62
  256
370
   -1
100
AcDbMText
 10
4.656636555989583
 20
5.691657172309027
 30
0
 40
0.2
 41
7.877777777777833
 71
    7
 72
    1
  1
\C8;\c7697781;\FCIDFont+F1|b0|i0|c1;\H0.059000;\W1.000000;A2
  7
STANDARD
210
0
220
0
230
1
 50
90
 73
    1
 44
1
  0
MTEXT
  5
1DB
100
AcDbEntity
  8
noname
  6
ByLayer
 62
  256
370
   -1
100
AcDbMText
 10
4.35662841796875
 20
5.691657172309027
 30
0
 40
0.2
 41
8.011111068710738
 71
    7
 72
    1
  1
\C8;\c7697781;\FCIDFont+F1|b0|i0|c1;\H0.059000;\W1.000000;SCL
  7
STANDARD
210
0
220
0
230
1
 50
90
 73
    1
 44
1
  0
MTEXT
  5
1DC
100
AcDbEntity
  8
noname
  6
ByLayer
 62
  256
370
   -1
100
AcDbMText
 10
4.256666395399305
 20
5.691657172309027
 30
0
 40
0.2
 41
8.055555555555625
 71
    7
 72
    1
  1
\C8;\c7697781;\FCIDFont+F1|b0|i0|c1;\H0.059000;\W1.000000;GND
  7
STANDARD
210
0
220
0
230
1
 50
90
 73
    1
 44
1
  0
MTEXT
  5
1DD
100
AcDbEntity
  8
noname
  6
ByLayer
 62
  256
370
   -1
100
AcDbMText
 10
4.756659613715277
 20
5.691657172309027
 30
0
 40
0.2
 41
7.877777777777846
 71
    7
 72
    1
  1
\C8;\c7697781;\FCIDFont+F1|b0|i0|c1;\H0.059000;\W1.000000;A3
  7
STANDARD
210
0
220
0
230
1
 50
90
 73
    1
 44
1
  0
MTEXT
  5
1DE
100
AcDbEntity
  8
noname
  6
ByLayer
 62
  256
370
   -1
100
AcDbMText
 10
4.85662841796875
 20
5.691657172309027
 30
0
 40
0.2
 41
7.900000000000055
 71
    7
 72
    1
  1
\C8;\c7697781;\FCIDFont+F1|b0|i0|c1;\H0.059000;\W1.000000;A4
  7
STANDARD
210
0
220
0
230
1
 50
90
 73
    1
 44
1
  0
MTEXT
  5
1DF
100
AcDbEntity
  8
noname
  6
ByLayer
 62
  256
370
   -1
100
AcDbMText
 10
4.81329345703125
 20
5.406670464409722
 30
0
 40
0.2
 41
7.900000000000055
 71
    7
 72
    1
  1
\C8;\c7697781;\FCIDFont+F1|b0|i0|c1;\H0.059000;\W1.000000;A4
  7
STANDARD
210
0
220
0
230
1
 50
90
 73
    1
 44
1
  0
MTEXT
  5
1E0
100
AcDbEntity
  8
noname
  6
ByLayer
 62
  256
370
   -1
100
AcDbMText
 10
4.956651475694443
 20
5.691657172309027
 30
0
 40
0.2
 41
8.255555555555636
 71
    7
 72
    1
  1
\C8;\c7697781;\FCIDFont+F1|b0|i0|c1;\H0.059000;\W1.000000;ADDR
  7
STANDARD
210
0
220
0
230
1
 50
90
 73
    1
 44
1
  0
MTEXT
  5
1E1
100
AcDbEntity
  8
noname
  6
ByLayer
 62
  256
370
   -1
100
AcDbMText
 10
4.913316514756943
 20
5.273335774739583
 30
0
 40
0.2
 41
8.255555555555636
 71
    7
 72
    1
  1
\C8;\c7697781;\FCIDFont+F1|b0|i0|c1;\H0.059000;\W1.000000;ADDR
  7
STANDARD
210
0
220
0
230
1
 50
90
 73
    1
 44
1
  0
MTEXT
  5
1E2
100
AcDbEntity
  8
noname
  6
ByLayer
 62
  256
370
   -1
100
AcDbMText
 10
4.51333279079861
 20
5.406670464409722
 30
0
 40
0.2
 41
7.833333333333389
 71
    7
 72
    1
  1
\C8;\c7697781;\FCIDFont+F1|b0|i0|c1;\H0.059000;\W1.000000;A1
  7
STANDARD
210
0
220
0
230
1
 50
90
 73
    1
 44
1
  0
MTEXT
  5
1E3
100
AcDbEntity
  8
noname
  6
ByLayer
 62
  256
370
   -1
100
AcDbMText
 10
4.413309733072916
 20
5.338338216145833
 30
0
 40
0.2
 41
8.077777735377417
 71
    7
 72
    1
  1
\C8;\c7697781;\FCIDFont+F1|b0|i0|c1;\H0.059000;\W1.000000;SDA
  7
STANDARD
210
0
220
0
230
1
 50
90
 73
    1
 44
1
  0
MTEXT
  5
1E4
100
AcDbEntity
  8
noname
  6
ByLayer
 62
  256
370
   -1
100
AcDbMText
 10
4.613301595052083
 20
5.406670464409722
 30
0
 40
0.2
 41
7.877777777777833
 71
    7
 72
    1
  1
\C8;\c7697781;\FCIDFont+F1|b0|i0|c1;\H0.059000;\W1.000000;A2
  7
STANDARD
210
0
220
0
230
1
 50
90
 73
    1
 44
1
  0
MTEXT
  5
1E5
100
AcDbEntity
  8
noname
  6
ByLayer
 62
  256
370
   -1
100
AcDbMText
 10
4.31329345703125
 20
5.3466796875
 30
0
 40
0.2
 41
8.011111068710738
 71
    7
 72
    1
  1
\C8;\c7697781;\FCIDFont+F1|b0|i0|c1;\H0.059000;\W1.000000;SCL
  7
STANDARD
210
0
220
0
230
1
 50
90
 73
    1
 44
1
  0
MTEXT
  5
1E6
100
AcDbEntity
  8
noname
  6
ByLayer
 62
  256
370
   -1
100
AcDbMText
 10
4.713324652777777
 20
5.406670464409722
 30
0
 40
0.2
 41
7.877777777777846
 71
    7
 72
    1
  1
\C8;\c7697781;\FCIDFont+F1|b0|i0|c1;\H0.059000;\W1.000000;A3
  7
STANDARD
210
0
220
0
230
1
 50
90
 73
    1
 44
1
  0
MTEXT
  5
1E7
100
AcDbEntity
  8
noname
  6
ByLayer
 62
  256
370
   -1
100
AcDbMText
 10
5.713324652777777
 20
6.691657172309027
 30
0
 40
0.2
 41
8.01111111111118
 71
    7
 72
    1
  1
\C8;\c7697781;\FCIDFont+F1|b0|i0|c1;\H0.059000;\W1.000000;32K
  7
STANDARD
210
0
220
0
230
1
 50
90
 73
    1
 44
1
  0
MTEXT
  5
1E8
100
AcDbEntity
  8
noname
  6
ByLayer
 62
  256
370
   -1
100
AcDbMText
 10
5.65664333767361
 20
6.303351508246527
 30
0
 40
0.2
 41
8.144444402044071
 71
    7
 72
    1
  1
\C8;\c7697781;\FCIDFont+F1|b0|i0|c1;\H0.059000;\W1.000000;SQW
  7
STANDARD
210
0
220
0
230
1
 50
90
 73
    1
 44
1
  0
MTEXT
  5
1E9
100
AcDbEntity
  8
noname
  6
ByLayer
 62
  256
370
   -1
100
AcDbMText
 10
5.61330837673611
 20
6.691657172309027
 30
0
 40
0.2
 41
8.144444402044071
 71
    7
 72
    1
  1
\C8;\c7697781;\FCIDFont+F1|b0|i0|c1;\H0.059000;\W1.000000;SQW
  7
STANDARD
210
0
220
0
230
1
 50
90
 73
    1
 44
1
  0
MTEXT
  5
1EA
100
AcDbEntity
  8
noname
  6
ByLayer
 62
  256
370
   -1
100
AcDbMText
 10
5.55666775173611
 20
6.345018174913193
 30
0
 40
0.2
 41
8.011111068710738
 71
    7
 72
    1
  1
\C8;\c7697781;\FCIDFont+F1|b0|i0|c1;\H0.059000;\W1.000000;SCL
  7
STANDARD
210
0
220
0
230
1
 50
90
 73
    1
 44
1
  0
MTEXT
  5
1EB
100
AcDbEntity
  8
noname
  6
ByLayer
 62
  256
370
   -1
100
AcDbMText
 10
5.51333279079861
 20
6.691657172309027
 30
0
 40
0.2
 41
8.011111068710738
 71
    7
 72
    1
  1
\C8;\c7697781;\FCIDFont+F1|b0|i0|c1;\H0.059000;\W1.000000;SCL
  7
STANDARD
210
0
220
0
230
1
 50
90
 73
    1
 44
1
  0
MTEXT
  5
1EC
100
AcDbEntity
  8
noname
  6
ByLayer
 62
  256
370
   -1
100
AcDbMText
 10
5.356635199652777
 20
6.331671820746527
 30
0
 40
0.2
 41
8.03333333333339
 71
    7
 72
    1
  1
\C8;\c7697781;\FCIDFont+F1|b0|i0|c1;\H0.059000;\W1.000000;VCC
  7
STANDARD
210
0
220
0
230
1
 50
90
 73
    1
 44
1
  0
MTEXT
  5
1ED
100
AcDbEntity
  8
noname
  6
ByLayer
 62
  256
370
   -1
100
AcDbMText
 10
5.213331434461805
 20
6.691657172309027
 30
0
 40
0.2
 41
8.055555555555625
 71
    7
 72
    1
  1
\C8;\c7697781;\FCIDFont+F1|b0|i0|c1;\H0.059000;\W1.000000;GND
  7
STANDARD
210
0
220
0
230
1
 50
90
 73
    1
 44
1
  0
MTEXT
  5
1EE
100
AcDbEntity
  8
noname
  6
ByLayer
 62
  256
370
   -1
100
AcDbMText
 10
5.51333279079861
 20
5.39168972439236
 30
0
 40
0.2
 41
8.188888846488528
 71
    7
 72
    1
  1
\C8;\c7697781;\FCIDFont+F1|b0|i0|c1;\H0.059000;\W1.000000;SDA1
  7
STANDARD
210
0
220
0
230
1
 50
90
 73
    1
 44
1
  0
MTEXT
  5
1EF
100
AcDbEntity
  8
noname
  6
ByLayer
 62
  256
370
   -1
100
AcDbMText
 10
5.413330078125
 20
5.38668484157986
 30
0
 40
0.2
 41
8.144444444444501
 71
    7
 72
    1
  1
\C8;\c7697781;\FCIDFont+F1|b0|i0|c1;\H0.059000;\W1.000000;VCC1
  7
STANDARD
210
0
220
0
230
1
 50
90
 73
    1
 44
1
  0
MTEXT
  5
1F0
100
AcDbEntity
  8
noname
  6
ByLayer
 62
  256
370
   -1
100
AcDbMText
 10
5.313300238715277
 20
5.376688639322916
 30
0
 40
0.2
 41
8.166666666666735
 71
    7
 72
    1
  1
\C8;\c7697781;\FCIDFont+F1|b0|i0|c1;\H0.059000;\W1.000000;GND1
  7
STANDARD
210
0
220
0
230
1
 50
90
 73
    1
 44
1
  0
INSERT
  5
1F1
100
AcDbEntity
  8
noname
  6
ByLayer
 62
  256
370
   -1
100
AcDbBlockReference
  2
Block_0
 10
0
 20
0
 30
0
 41
1
 42
1
 43
0
 50
0
 70
    1
 71
    1
 44
0
 45
0
  0
LINE
  5
1F2
100
AcDbEntity
  8
schematic
  6
ByLayer
 62
   30
420
16088080
370
   25
100
AcDbLine
 10
2.328333324856228
 20
5.1000001695421
 11
3.528333452012803
 21
5.1000001695421
  0
LINE
  5
1F3
100
AcDbEntity
  8
schematic
  6
ByLayer
 62
   30
420
16088080
370
   25
100
AcDbLine
 10
3.528333452012803
 20
5.1000001695421
 11
3.528333452012803
 21
3.101666768391926
  0
LINE
  5
1F4
100
AcDbEntity
  8
schematic
  6
ByLayer
 62
   30
420
16088080
370
   25
100
AcDbLine
 10
3.528333452012803
 20
3.101666768391926
 11
2.328333324856228
 21
3.101666768391926
  0
LINE
  5
1F5
100
AcDbEntity
  8
schematic
  6
ByLayer
 62
   30
420
16088080
370
   25
100
AcDbLine
 10
2.328333324856228
 20
3.101666768391926
 11
2.328333324856228
 21
5.1000001695421
  0
LINE
  5
1F6
100
AcDbEntity
  8
schematic
  6
ByLayer
 62
   30
420
16088080
370
   15
100
AcDbLine
 10
2.128333409627278
 20
5
 11
2.328333324856228
 21
5
  0
LINE
  5
1F7
100
AcDbEntity
  8
schematic
  6
ByLayer
 62
   30
420
16088080
370
   15
100
AcDbLine
 10
2.128333409627278
 20
4.899999830457899
 11
2.328333324856228
 21
4.899999830457899
  0
LINE
  5
1F8
100
AcDbEntity
  8
schematic
  6
ByLayer
 62
   30
420
16088080
370
   15
100
AcDbLine
 10
2.128333409627278
 20
4.799999660915798
 11
2.328333324856228
 21
4.799999660915798
  0
LINE
  5
1F9
100
AcDbEntity
  8
schematic
  6
ByLayer
 62
   30
420
16088080
370
   15
100
AcDbLine
 10
2.128333409627278
 20
4.7000003390842
 11
2.328333324856228
 21
4.7000003390842
  0
LINE
  5
1FA
100
AcDbEntity
  8
schematic
  6
ByLayer
 62
   30
420
16088080
370
   15
100
AcDbLine
 10
2.128333409627278
 20
4.6000001695421
 11
2.328333324856228
 21
4.6000001695421
  0
LINE
  5
1FB
100
AcDbEntity
  8
schematic
  6
ByLayer
 62
   30
420
16088080
370
   15
100
AcDbLine
 10
2.128333409627278
 20
4.5
 11
2.328333324856228
 21
4.5
  0
LINE
  5
1FC
100
AcDbEntity
  8
schematic
  6
ByLayer
 62
   30
420
16088080
370
   15
100
AcDbLine
 10
2.128333409627278
 20
4.399999830457899
 11
2.328333324856228
 21
4.399999830457899
  0
LINE
  5
1FD
100
AcDbEntity
  8
schematic
  6
ByLayer
 62
   30
420
16088080
370
   15
100
AcDbLine
 10
2.128333409627278
 20
4.299999660915798
 11
2.328333324856228
 21
4.299999660915798
  0
LINE
  5
1FE
100
AcDbEntity
  8
schematic
  6
ByLayer
 62
   30
420
16088080
370
   15
100
AcDbLine
 10
2.128333409627278
 20
4.2000003390842
 11
2.328333324856228
 21
4.2000003390842
  0
LINE
  5
1FF
100
AcDbEntity
  8
schematic
  6
ByLayer
 62
   30
420
16088080
370
   15
100
AcDbLine
 10
2.128333409627278
 20
4.1000001695421
 11
2.328333324856228
 21
4.1000001695421
  0
LINE
  5
200
100
AcDbEntity
  8
schematic
  6
ByLayer
 62
   30
420
16088080
370
   15
100
AcDbLine
 10
2.128333409627278
 20
4
 11
2.328333324856228
 21
4
  0
LINE
  5
201
100
AcDbEntity
  8
schematic
  6
ByLayer
 62
   30
420
16088080
370
   15
100
AcDbLine
 10
2.128333409627278
 20
3.899999830457899
 11
2.328333324856228
 21
3.899999830457899
  0
LINE
  5
202
100
AcDbEntity
  8
schematic
  6
ByLayer
 62
   30
420
16088080
370
   15
100
AcDbLine
 10
2.128333409627278
 20
3.801666683620876
 11
2.328333324856228
 21
3.801666683620876
  0
LINE
  5
203
100
AcDbEntity
  8
schematic
  6
ByLayer
 62
   30
420
16088080
370
   15
100
AcDbLine
 10
2.128333409627278
 20
3.701666514078775
 11
2.328333324856228
 21
3.701666514078775
  0
LINE
  5
204
100
AcDbEntity
  8
schematic
  6
ByLayer
 62
   30
420
16088080
370
   15
100
AcDbLine
 10
2.128333409627278
 20
3.601666768391926
 11
2.328333324856228
 21
3.601666768391926
  0
LINE
  5
205
100
AcDbEntity
  8
schematic
  6
ByLayer
 62
   30
420
16088080
370
   15
100
AcDbLine
 10
2.128333409627278
 20
3.501666598849826
 11
2.328333324856228
 21
3.501666598849826
  0
LINE
  5
206
100
AcDbEntity
  8
schematic
  6
ByLayer
 62
   30
420
16088080
370
   15
100
AcDbLine
 10
2.128333409627278
 20
3.401666429307725
 11
2.328333324856228
 21
3.401666429307725
  0
LINE
  5
207
100
AcDbEntity
  8
schematic
  6
ByLayer
 62
   30
420
16088080
370
   15
100
AcDbLine
 10
2.128333409627278
 20
3.301666683620876
 11
2.328333324856228
 21
3.301666683620876
  0
LINE
  5
208
100
AcDbEntity
  8
schematic
  6
ByLayer
 62
   30
420
16088080
370
   15
100
AcDbLine
 10
2.128333409627278
 20
3.201666514078775
 11
2.328333324856228
 21
3.201666514078775
  0
LINE
  5
209
100
AcDbEntity
  8
schematic
  6
ByLayer
 62
   30
420
16088080
370
   15
100
AcDbLine
 10
3.528333452012803
 20
3.161666870117187
 11
3.450000127156575
 21
3.201666514078775
  0
LINE
  5
20A
100
AcDbEntity
  8
schematic
  6
ByLayer
 62
   30
420
16088080
370
   15
100
AcDbLine
 10
3.450000127156575
 20
3.201666514078775
 11
3.528333452012803
 21
3.239999983045789
  0
LINE
  5
20B
100
AcDbEntity
  8
schematic
  6
ByLayer
 62
   30
420
16088080
370
   15
100
AcDbLine
 10
3.726666768391926
 20
3.201666514078775
 11
3.528333452012803
 21
3.201666514078775
  0
LINE
  5
20C
100
AcDbEntity
  8
schematic
  6
ByLayer
 62
   30
420
16088080
370
   15
100
AcDbLine
 10
3.726666768391926
 20
3.301666683620876
 11
3.528333452012803
 21
3.301666683620876
  0
LINE
  5
20D
100
AcDbEntity
  8
schematic
  6
ByLayer
 62
   30
420
16088080
370
   15
100
AcDbLine
 10
3.726666768391926
 20
3.401666429307725
 11
3.528333452012803
 21
3.401666429307725
  0
LINE
  5
20E
100
AcDbEntity
  8
schematic
  6
ByLayer
 62
   30
420
16088080
370
   15
100
AcDbLine
 10
3.726666768391926
 20
3.501666598849826
 11
3.528333452012803
 21
3.501666598849826
  0
LINE
  5
20F
100
AcDbEntity
  8
schematic
  6
ByLayer
 62
   30
420
16088080
370
   15
100
AcDbLine
 10
3.726666768391926
 20
3.601666768391926
 11
3.528333452012803
 21
3.601666768391926
  0
LINE
  5
210
100
AcDbEntity
  8
schematic
  6
ByLayer
 62
   30
420
16088080
370
   15
100
AcDbLine
 10
3.726666768391926
 20
3.701666514078775
 11
3.528333452012803
 21
3.701666514078775
  0
LINE
  5
211
100
AcDbEntity
  8
schematic
  6
ByLayer
 62
   30
420
16088080
370
   15
100
AcDbLine
 10
3.726666768391926
 20
3.801666683620876
 11
3.528333452012803
 21
3.801666683620876
  0
LINE
  5
212
100
AcDbEntity
  8
schematic
  6
ByLayer
 62
   30
420
16088080
370
   15
100
AcDbLine
 10
3.726666768391926
 20
3.899999830457899
 11
3.528333452012803
 21
3.899999830457899
  0
LINE
  5
213
100
AcDbEntity
  8
schematic
  6
ByLayer
 62
   30
420
16088080
370
   15
100
AcDbLine
 10
3.726666768391926
 20
4
 11
3.528333452012803
 21
4
  0
LINE
  5
214
100
AcDbEntity
  8
schematic
  6
ByLayer
 62
   30
420
16088080
370
   15
100
AcDbLine
 10
3.726666768391926
 20
4.1000001695421
 11
3.528333452012803
 21
4.1000001695421
  0
LINE
  5
215
100
AcDbEntity
  8
schematic
  6
ByLayer
 62
   30
420
16088080
370
   15
100
AcDbLine
 10
3.726666768391926
 20
4.2000003390842
 11
3.528333452012803
 21
4.2000003390842
  0
LINE
  5
216
100
AcDbEntity
  8
schematic
  6
ByLayer
 62
   30
420
16088080
370
   15
100
AcDbLine
 10
3.726666768391926
 20
4.299999660915798
 11
3.528333452012803
 21
4.299999660915798
  0
LINE
  5
217
100
AcDbEntity
  8
schematic
  6
ByLayer
 62
   30
420
16088080
370
   15
100
AcDbLine
 10
3.726666768391926
 20
4.399999830457899
 11
3.528333452012803
 21
4.399999830457899
  0
LINE
  5
218
100
AcDbEntity
  8
schematic
  6
ByLayer
 62
   30
420
16088080
370
   15
100
AcDbLine
 10
3.726666768391926
 20
4.5
 11
3.528333452012803
 21
4.5
  0
LINE
  5
219
100
AcDbEntity
  8
schematic
  6
ByLayer
 62
   30
420
16088080
370
   15
100
AcDbLine
 10
3.726666768391926
 20
4.6000001695421
 11
3.528333452012803
 21
4.6000001695421
  0
LINE
  5
21A
100
AcDbEntity
  8
schematic
  6
ByLayer
 62
   30
420
16088080
370
   15
100
AcDbLine
 10
3.726666768391926
 20
4.7000003390842
 11
3.528333452012803
 21
4.7000003390842
  0
LINE
  5
21B
100
AcDbEntity
  8
schematic
  6
ByLayer
 62
   30
420
16088080
370
   15
100
AcDbLine
 10
3.726666768391926
 20
4.799999660915798
 11
3.528333452012803
 21
4.799999660915798
  0
LINE
  5
21C
100
AcDbEntity
  8
schematic
  6
ByLayer
 62
   30
420
16088080
370
   15
100
AcDbLine
 10
3.726666768391926
 20
4.899999830457899
 11
3.528333452012803
 21
4.899999830457899
  0
LINE
  5
21D
100
AcDbEntity
  8
schematic
  6
ByLayer
 62
   30
420
16088080
370
   15
100
AcDbLine
 10
3.726666768391926
 20
5
 11
3.528333452012803
 21
5
  0
LINE
  5
21E
100
AcDbEntity
  8
schematic
  6
ByLayer
 62
   30
420
16088080
370
   15
100
AcDbLine
 10
5.126666598849825
 20
4.5
 11
9.424999660915798
 21
4.5
  0
LINE
  5
21F
100
AcDbEntity
  8
schematic
  6
ByLayer
 62
   30
420
16088080
370
   15
100
AcDbLine
 10
9.424999660915798
 20
4.5
 11
9.424999660915798
 21
2.101666768391926
  0
LINE
  5
220
100
AcDbEntity
  8
schematic
  6
ByLayer
 62
   30
420
16088080
370
   15
100
AcDbLine
 10
9.424999660915798
 20
2.101666768391926
 11
5.126666598849825
 21
2.101666768391926
  0
LINE
  5
221
100
AcDbEntity
  8
schematic
  6
ByLayer
 62
   30
420
16088080
370
   15
100
AcDbLine
 10
5.126666598849825
 20
2.101666768391926
 11
5.126666598849825
 21
4.5
  0
LINE
  5
222
100
AcDbEntity
  8
schematic
  6
ByLayer
 62
   30
420
16088080
370
   15
100
AcDbLine
 10
4.926666683620876
 20
3.301666683620876
 11
5.126666598849825
 21
3.301666683620876
  0
LINE
  5
223
100
AcDbEntity
  8
schematic
  6
ByLayer
 62
   30
420
16088080
370
   15
100
AcDbLine
 10
4.926666683620876
 20
3.201666514078775
 11
5.126666598849825
 21
3.201666514078775
  0
LINE
  5
224
100
AcDbEntity
  8
schematic
  6
ByLayer
 62
   30
420
16088080
370
   15
100
AcDbLine
 10
4.926666683620876
 20
3.401666429307725
 11
5.126666598849825
 21
3.401666429307725
  0
LINE
  5
225
100
AcDbEntity
  8
schematic
  6
ByLayer
 62
   30
420
16088080
370
   15
100
AcDbLine
 10
4.926666683620876
 20
3.501666598849826
 11
5.126666598849825
 21
3.501666598849826
  0
LINE
  5
226
100
AcDbEntity
  8
schematic
  6
ByLayer
 62
   30
420
16088080
370
   15
100
AcDbLine
 10
4.926666683620876
 20
3.601666768391926
 11
5.126666598849825
 21
3.601666768391926
  0
LINE
  5
227
100
AcDbEntity
  8
schematic
  6
ByLayer
 62
   30
420
16088080
370
   15
100
AcDbLine
 10
4.926666683620876
 20
3.701666514078775
 11
5.126666598849825
 21
3.701666514078775
  0
LINE
  5
228
100
AcDbEntity
  8
schematic
  6
ByLayer
 62
   30
420
16088080
370
   15
100
AcDbLine
 10
4.926666683620876
 20
3.801666683620876
 11
5.126666598849825
 21
3.801666683620876
  0
LINE
  5
229
100
AcDbEntity
  8
schematic
  6
ByLayer
 62
   30
420
16088080
370
   15
100
AcDbLine
 10
4.926666683620876
 20
3.899999830457899
 11
5.126666598849825
 21
3.899999830457899
  0
LINE
  5
22A
100
AcDbEntity
  8
schematic
  6
ByLayer
 62
   30
420
16088080
370
   15
100
AcDbLine
 10
4.926666683620876
 20
4
 11
5.126666598849825
 21
4
  0
LINE
  5
22B
100
AcDbEntity
  8
schematic
  6
ByLayer
 62
   30
420
16088080
370
   15
100
AcDbLine
 10
4.926666683620876
 20
3.101666768391926
 11
5.126666598849825
 21
3.101666768391926
  0
LINE
  5
22C
100
AcDbEntity
  8
schematic
  6
ByLayer
 62
   30
420
16088080
370
   15
100
AcDbLine
 10
4.926666683620876
 20
3.001666598849826
 11
5.126666598849825
 21
3.001666598849826
  0
LINE
  5
22D
100
AcDbEntity
  8
schematic
  6
ByLayer
 62
   30
420
16088080
370
   15
100
AcDbLine
 10
4.926666683620876
 20
2.901666429307725
 11
5.126666598849825
 21
2.901666429307725
  0
LINE
  5
22E
100
AcDbEntity
  8
schematic
  6
ByLayer
 62
   30
420
16088080
370
   15
100
AcDbLine
 10
4.926666683620876
 20
2.801667107476128
 11
5.126666598849825
 21
2.801667107476128
  0
LINE
  5
22F
100
AcDbEntity
  8
schematic
  6
ByLayer
 62
   30
420
16088080
370
   15
100
AcDbLine
 10
4.926666683620876
 20
2.701666514078775
 11
5.126666598849825
 21
2.701666514078775
  0
LINE
  5
230
100
AcDbEntity
  8
schematic
  6
ByLayer
 62
   30
420
16088080
370
   15
100
AcDbLine
 10
9.625
 20
3.201666514078775
 11
9.424999660915798
 21
3.201666514078775
  0
LINE
  5
231
100
AcDbEntity
  8
schematic
  6
ByLayer
 62
   30
420
16088080
370
   15
100
AcDbLine
 10
9.625
 20
3.301666683620876
 11
9.424999660915798
 21
3.301666683620876
  0
LINE
  5
232
100
AcDbEntity
  8
schematic
  6
ByLayer
 62
   30
420
16088080
370
   15
100
AcDbLine
 10
9.625
 20
3.101666768391926
 11
9.424999660915798
 21
3.101666768391926
  0
LINE
  5
233
100
AcDbEntity
  8
schematic
  6
ByLayer
 62
   30
420
16088080
370
   15
100
AcDbLine
 10
9.625
 20
3.001666598849826
 11
9.424999660915798
 21
3.001666598849826
  0
LINE
  5
234
100
AcDbEntity
  8
schematic
  6
ByLayer
 62
   30
420
16088080
370
   15
100
AcDbLine
 10
4.526666429307725
 20
5.399999830457899
 11
4.526666429307725
 21
5.6000001695421
  0
LINE
  5
235
100
AcDbEntity
  8
schematic
  6
ByLayer
 62
   30
420
16088080
370
   15
100
AcDbLine
 10
4.426666683620876
 20
5.399999830457899
 11
4.426666683620876
 21
5.6000001695421
  0
LINE
  5
236
100
AcDbEntity
  8
schematic
  6
ByLayer
 62
   30
420
16088080
370
   15
100
AcDbLine
 10
4.626666598849825
 20
5.399999830457899
 11
4.626666598849825
 21
5.6000001695421
  0
LINE
  5
237
100
AcDbEntity
  8
schematic
  6
ByLayer
 62
   30
420
16088080
370
   15
100
AcDbLine
 10
4.326666514078775
 20
5.399999830457899
 11
4.326666514078775
 21
5.6000001695421
  0
LINE
  5
238
100
AcDbEntity
  8
schematic
  6
ByLayer
 62
   30
420
16088080
370
   15
100
AcDbLine
 10
4.226666768391926
 20
5.399999830457899
 11
4.226666768391926
 21
5.6000001695421
  0
LINE
  5
239
100
AcDbEntity
  8
schematic
  6
ByLayer
 62
   30
420
16088080
370
   15
100
AcDbLine
 10
4.126666598849825
 20
5.399999830457899
 11
4.126666598849825
 21
5.6000001695421
  0
LINE
  5
23A
100
AcDbEntity
  8
schematic
  6
ByLayer
 62
   30
420
16088080
370
   15
100
AcDbLine
 10
4.726666768391926
 20
5.399999830457899
 11
4.726666768391926
 21
5.6000001695421
  0
LINE
  5
23B
100
AcDbEntity
  8
schematic
  6
ByLayer
 62
   30
420
16088080
370
   15
100
AcDbLine
 10
4.826666514078775
 20
5.399999830457899
 11
4.826666514078775
 21
5.6000001695421
  0
LINE
  5
23C
100
AcDbEntity
  8
schematic
  6
ByLayer
 62
   30
420
16088080
370
   15
100
AcDbLine
 10
4.926666683620876
 20
5.399999830457899
 11
4.926666683620876
 21
5.6000001695421
  0
LINE
  5
23D
100
AcDbEntity
  8
schematic
  6
ByLayer
 62
   30
420
16088080
370
   15
100
AcDbLine
 10
4.026666429307725
 20
5.6000001695421
 11
5.026666429307725
 21
5.6000001695421
  0
LINE
  5
23E
100
AcDbEntity
  8
schematic
  6
ByLayer
 62
   30
420
16088080
370
   15
100
AcDbLine
 10
5.026666429307725
 20
5.6000001695421
 11
5.026666429307725
 21
6.199999915228949
  0
LINE
  5
23F
100
AcDbEntity
  8
schematic
  6
ByLayer
 62
   30
420
16088080
370
   15
100
AcDbLine
 10
5.026666429307725
 20
6.199999915228949
 11
4.026666429307725
 21
6.199999915228949
  0
LINE
  5
240
100
AcDbEntity
  8
schematic
  6
ByLayer
 62
   30
420
16088080
370
   15
100
AcDbLine
 10
4.026666429307725
 20
6.199999915228949
 11
4.026666429307725
 21
5.6000001695421
  0
LINE
  5
241
100
AcDbEntity
  8
schematic
  6
ByLayer
 62
   30
420
16088080
370
   15
100
AcDbLine
 10
5.726666768391926
 20
6.800000084771049
 11
5.726666768391926
 21
6.6000001695421
  0
LINE
  5
242
100
AcDbEntity
  8
schematic
  6
ByLayer
 62
   30
420
16088080
370
   15
100
AcDbLine
 10
5.626666598849825
 20
6.800000084771049
 11
5.626666598849825
 21
6.6000001695421
  0
LINE
  5
243
100
AcDbEntity
  8
schematic
  6
ByLayer
 62
   30
420
16088080
370
   15
100
AcDbLine
 10
5.526666429307725
 20
6.800000084771049
 11
5.526666429307725
 21
6.6000001695421
  0
LINE
  5
244
100
AcDbEntity
  8
schematic
  6
ByLayer
 62
   30
420
16088080
370
   15
100
AcDbLine
 10
5.426667107476128
 20
6.800000084771049
 11
5.426667107476128
 21
6.6000001695421
  0
LINE
  5
245
100
AcDbEntity
  8
schematic
  6
ByLayer
 62
   30
420
16088080
370
   15
100
AcDbLine
 10
5.326666514078775
 20
6.800000084771049
 11
5.326666514078775
 21
6.6000001695421
  0
LINE
  5
246
100
AcDbEntity
  8
schematic
  6
ByLayer
 62
   30
420
16088080
370
   15
100
AcDbLine
 10
5.226666768391926
 20
6.800000084771049
 11
5.226666768391926
 21
6.6000001695421
  0
LINE
  5
247
100
AcDbEntity
  8
schematic
  6
ByLayer
 62
   30
420
16088080
370
   15
100
AcDbLine
 10
5.626666598849825
 20
5.5
 11
5.626666598849825
 21
5.7000003390842
  0
LINE
  5
248
100
AcDbEntity
  8
schematic
  6
ByLayer
 62
   30
420
16088080
370
   15
100
AcDbLine
 10
5.526666429307725
 20
5.5
 11
5.526666429307725
 21
5.7000003390842
  0
LINE
  5
249
100
AcDbEntity
  8
schematic
  6
ByLayer
 62
   30
420
16088080
370
   15
100
AcDbLine
 10
5.426667107476128
 20
5.5
 11
5.426667107476128
 21
5.7000003390842
  0
LINE
  5
24A
100
AcDbEntity
  8
schematic
  6
ByLayer
 62
   30
420
16088080
370
   15
100
AcDbLine
 10
5.326666514078775
 20
5.5
 11
5.326666514078775
 21
5.7000003390842
  0
LINE
  5
24B
100
AcDbEntity
  8
schematic
  6
ByLayer
 62
   30
420
16088080
370
   15
100
AcDbLine
 10
5.826666514078775
 20
6.6000001695421
 11
5.126666598849825
 21
6.6000001695421
  0
LINE
  5
24C
100
AcDbEntity
  8
schematic
  6
ByLayer
 62
   30
420
16088080
370
   15
100
AcDbLine
 10
5.126666598849825
 20
6.6000001695421
 11
5.126666598849825
 21
5.7000003390842
  0
LINE
  5
24D
100
AcDbEntity
  8
schematic
  6
ByLayer
 62
   30
420
16088080
370
   15
100
AcDbLine
 10
5.126666598849825
 20
5.7000003390842
 11
5.826666514078775
 21
5.7000003390842
  0
LINE
  5
24E
100
AcDbEntity
  8
schematic
  6
ByLayer
 62
   30
420
16088080
370
   15
100
AcDbLine
 10
5.826666514078775
 20
5.7000003390842
 11
5.826666514078775
 21
6.6000001695421
  0
LINE
  5
24F
100
AcDbEntity
  8
schematic
  6
ByLayer
 62
   30
420
16088080
370
   15
100
AcDbLine
 10
1.52833334604899
 20
3.201666514078775
 11
1.428333282470703
 21
3.201666514078775
  0
LINE
  5
250
100
AcDbEntity
  8
schematic
  6
ByLayer
 62
   30
420
16088080
370
   15
100
AcDbLine
 10
1.52833334604899
 20
3.301666683620876
 11
1.428333282470703
 21
3.301666683620876
  0
LINE
  5
251
100
AcDbEntity
  8
schematic
  6
ByLayer
 62
   30
420
16088080
370
   15
100
AcDbLine
 10
1.428333282470703
 20
3.401666429307725
 11
1.428333282470703
 21
3.101666768391926
  0
LINE
  5
252
100
AcDbEntity
  8
schematic
  6
ByLayer
 62
   30
420
16088080
370
   15
100
AcDbLine
 10
1.428333282470703
 20
3.101666768391926
 11
1.228333367241753
 21
3.101666768391926
  0
LINE
  5
253
100
AcDbEntity
  8
schematic
  6
ByLayer
 62
   30
420
16088080
370
   15
100
AcDbLine
 10
1.228333367241753
 20
3.101666768391926
 11
1.228333367241753
 21
3.401666429307725
  0
LINE
  5
254
100
AcDbEntity
  8
schematic
  6
ByLayer
 62
   30
420
16088080
370
   15
100
AcDbLine
 10
1.228333367241753
 20
3.401666429307725
 11
1.428333282470703
 21
3.401666429307725
  0
LINE
  5
255
100
AcDbEntity
  8
schematic
  6
ByLayer
 62
   30
420
16088080
370
   15
100
AcDbLine
 10
1.428333282470703
 20
3.651666429307725
 11
1.228333367241753
 21
3.651666429307725
  0
LINE
  5
256
100
AcDbEntity
  8
schematic
  6
ByLayer
 62
   30
420
16088080
370
   15
100
AcDbLine
 10
1.228333367241753
 20
3.651666429307725
 11
1.228333367241753
 21
4.049999660915798
  0
LINE
  5
257
100
AcDbEntity
  8
schematic
  6
ByLayer
 62
   30
420
16088080
370
   15
100
AcDbLine
 10
1.228333367241753
 20
4.049999660915798
 11
1.428333282470703
 21
4.049999660915798
  0
LINE
  5
258
100
AcDbEntity
  8
schematic
  6
ByLayer
 62
   30
420
16088080
370
   15
100
AcDbLine
 10
1.428333282470703
 20
4.049999660915798
 11
1.428333282470703
 21
3.651666429307725
  0
LINE
  5
259
100
AcDbEntity
  8
schematic
  6
ByLayer
 62
   30
420
16088080
370
   15
100
AcDbLine
 10
1.52833334604899
 20
3.701666514078775
 11
1.428333282470703
 21
3.701666514078775
  0
LINE
  5
25A
100
AcDbEntity
  8
schematic
  6
ByLayer
 62
   30
420
16088080
370
   15
100
AcDbLine
 10
1.52833334604899
 20
3.801666683620876
 11
1.428333282470703
 21
3.801666683620876
  0
LINE
  5
25B
100
AcDbEntity
  8
schematic
  6
ByLayer
 62
   30
420
16088080
370
   15
100
AcDbLine
 10
1.52833334604899
 20
3.899999830457899
 11
1.428333282470703
 21
3.899999830457899
  0
LINE
  5
25C
100
AcDbEntity
  8
schematic
  6
ByLayer
 62
   30
420
16088080
370
   15
100
AcDbLine
 10
1.52833334604899
 20
4
 11
1.428333282470703
 21
4
  0
LINE
  5
25D
100
AcDbEntity
  8
schematic
  6
ByLayer
 62
   30
420
16088080
370
   25
100
AcDbLine
 10
1.778333452012803
 20
3.051667107476128
 11
1.878333409627278
 21
3.101666768391926
  0
LINE
  5
25E
100
AcDbEntity
  8
schematic
  6
ByLayer
 62
   30
420
16088080
370
   25
100
AcDbLine
 10
1.878333409627278
 20
3.101666768391926
 11
1.778333452012803
 21
3.151666429307725
  0
LINE
  5
25F
100
AcDbEntity
  8
schematic
  6
ByLayer
 62
   30
420
16088080
370
   25
100
AcDbLine
 10
1.878333409627278
 20
3.151666429307725
 11
1.878333409627278
 21
3.101666768391926
  0
LINE
  5
260
100
AcDbEntity
  8
schematic
  6
ByLayer
 62
   30
420
16088080
370
   25
100
AcDbLine
 10
1.778333452012803
 20
3.151666429307725
 11
1.778333452012803
 21
3.101666768391926
  0
LINE
  5
261
100
AcDbEntity
  8
schematic
  6
ByLayer
 62
   30
420
16088080
370
   25
100
AcDbLine
 10
1.778333452012803
 20
3.101666768391926
 11
1.778333452012803
 21
3.051667107476128
  0
LINE
  5
262
100
AcDbEntity
  8
schematic
  6
ByLayer
 62
   30
420
16088080
370
   25
100
AcDbLine
 10
1.878333409627278
 20
3.101666768391926
 11
1.878333409627278
 21
3.051667107476128
  0
LINE
  5
263
100
AcDbEntity
  8
schematic
  6
ByLayer
 62
   30
420
16088080
370
   25
100
AcDbLine
 10
1.878333409627278
 20
3.051667107476128
 11
1.853333367241753
 21
3.051667107476128
  0
LINE
  5
264
100
AcDbEntity
  8
schematic
  6
ByLayer
 62
   30
420
16088080
370
   25
100
AcDbLine
 10
1.778333452012803
 20
3.101666768391926
 11
1.728333367241753
 21
3.101666768391926
  0
LINE
  5
265
100
AcDbEntity
  8
schematic
  6
ByLayer
 62
   30
420
16088080
370
   25
100
AcDbLine
 10
1.878333409627278
 20
3.101666768391926
 11
1.928333282470703
 21
3.101666768391926
  0
LINE
  5
266
100
AcDbEntity
  8
schematic
  6
ByLayer
 62
  134
420
37522
370
   15
100
AcDbLine
 10
1.52833334604899
 20
3.301666683620876
 11
1.928333282470703
 21
3.301666683620876
  0
LINE
  5
267
100
AcDbEntity
  8
schematic
  6
ByLayer
 62
  134
420
37522
370
   15
100
AcDbLine
 10
1.928333282470703
 20
3.301666683620876
 11
1.928333282470703
 21
3.701666514078775
  0
LINE
  5
268
100
AcDbEntity
  8
schematic
  6
ByLayer
 62
  134
420
37522
370
   15
100
AcDbLine
 10
1.928333282470703
 20
3.701666514078775
 11
2.128333409627278
 21
3.701666514078775
  0
LINE
  5
269
100
AcDbEntity
  8
schematic
  6
ByLayer
 62
  134
420
37522
370
   15
100
AcDbLine
 10
1.52833334604899
 20
3.701666514078775
 11
1.928333282470703
 21
3.701666514078775
  0
SPLINE
  5
26A
100
AcDbEntity
  8
schematic
  6
ByLayer
 62
  256
370
   -1
100
AcDbSpline
210
0
220
0
230
0
 70
   11
 71
    3
 72
   17
 73
   13
 74
    0
 42
1e-07
 43
1e-07
 40
0
 40
0
 40
0
 40
0
 40
1
 40
1
 40
1
 40
2
 40
2
 40
2
 40
3
 40
3
 40
3
 40
4
 40
4
 40
4
 40
4
 10
1.948333316379123
 20
3.701666514078775
 30
0
 10
1.948333316379123
 20
3.689999898274739
 30
0
 10
1.939999898274739
 20
3.681666904025607
 30
0
 10
1.928333070543077
 20
3.681666904025607
 30
0
 10
1.91666645473904
 20
3.681666904025607
 30
0
 10
1.908333248562282
 20
3.689999898274739
 30
0
 10
1.908333248562282
 20
3.701666514078775
 30
0
 10
1.908333248562282
 20
3.713333553738063
 30
0
 10
1.91666645473904
 20
3.721666547987195
 30
0
 10
1.928333070543077
 20
3.721666547987195
 30
0
 10
1.939999898274739
 20
3.721666547987195
 30
0
 10
1.948333316379123
 20
3.713333553738063
 30
0
 10
1.948333316379123
 20
3.701666514078775
 30
0
  0
SPLINE
  5
26B
100
AcDbEntity
  8
schematic
  6
ByLayer
 62
  134
420
37522
370
    5
100
AcDbSpline
210
0
220
0
230
0
 70
   11
 71
    3
 72
   17
 73
   13
 74
    0
 42
1e-07
 43
1e-07
 40
0
 40
0
 40
0
 40
0
 40
1
 40
1
 40
1
 40
2
 40
2
 40
2
 40
3
 40
3
 40
3
 40
4
 40
4
 40
4
 40
4
 10
1.948333316379123
 20
3.701666514078775
 30
0
 10
1.948333316379123
 20
3.689999898274739
 30
0
 10
1.939999898274739
 20
3.681666904025607
 30
0
 10
1.928333070543077
 20
3.681666904025607
 30
0
 10
1.91666645473904
 20
3.681666904025607
 30
0
 10
1.908333248562282
 20
3.689999898274739
 30
0
 10
1.908333248562282
 20
3.701666514078775
 30
0
 10
1.908333248562282
 20
3.713333553738063
 30
0
 10
1.91666645473904
 20
3.721666547987195
 30
0
 10
1.928333070543077
 20
3.721666547987195
 30
0
 10
1.939999898274739
 20
3.721666547987195
 30
0
 10
1.948333316379123
 20
3.713333553738063
 30
0
 10
1.948333316379123
 20
3.701666514078775
 30
0
  0
LINE
  5
26C
100
AcDbEntity
  8
schematic
  6
ByLayer
 62
  134
420
37522
370
   15
100
AcDbLine
 10
1.52833334604899
 20
3.801666683620876
 11
2.128333409627278
 21
3.801666683620876
  0
LINE
  5
26D
100
AcDbEntity
  8
schematic
  6
ByLayer
 62
  134
420
37522
370
   15
100
AcDbLine
 10
1.52833334604899
 20
3.899999830457899
 11
2.128333409627278
 21
3.899999830457899
  0
LINE
  5
26E
100
AcDbEntity
  8
schematic
  6
ByLayer
 62
  134
420
37522
370
   15
100
AcDbLine
 10
1.52833334604899
 20
4
 11
1.928333282470703
 21
4
  0
LINE
  5
26F
100
AcDbEntity
  8
schematic
  6
ByLayer
 62
  134
420
37522
370
   15
100
AcDbLine
 10
1.928333282470703
 20
4
 11
1.928333282470703
 21
4.1000001695421
  0
LINE
  5
270
100
AcDbEntity
  8
schematic
  6
ByLayer
 62
  134
420
37522
370
   15
100
AcDbLine
 10
1.928333282470703
 20
4.1000001695421
 11
2.128333409627278
 21
4.1000001695421
  0
LINE
  5
271
100
AcDbEntity
  8
schematic
  6
ByLayer
 62
  134
420
37522
370
   15
100
AcDbLine
 10
3.726666768391926
 20
5
 11
4.226666768391926
 21
5
  0
LINE
  5
272
100
AcDbEntity
  8
schematic
  6
ByLayer
 62
  134
420
37522
370
   15
100
AcDbLine
 10
4.226666768391926
 20
5
 11
4.626666598849825
 21
5
  0
LINE
  5
273
100
AcDbEntity
  8
schematic
  6
ByLayer
 62
  134
420
37522
370
   15
100
AcDbLine
 10
4.226666768391926
 20
5
 11
4.226666768391926
 21
5.399999830457899
  0
LINE
  5
274
100
AcDbEntity
  8
schematic
  6
ByLayer
 62
  134
420
37522
370
   15
100
AcDbLine
 10
5.326666514078775
 20
5.5
 11
5.326666514078775
 21
5
  0
LINE
  5
275
100
AcDbEntity
  8
schematic
  6
ByLayer
 62
  134
420
37522
370
   15
100
AcDbLine
 10
5.326666514078775
 20
5
 11
4.626666598849825
 21
5
  0
LINE
  5
276
100
AcDbEntity
  8
schematic
  6
ByLayer
 62
  134
420
37522
370
   15
100
AcDbLine
 10
4.926666683620876
 20
3.899999830457899
 11
4.626666598849825
 21
3.899999830457899
  0
LINE
  5
277
100
AcDbEntity
  8
schematic
  6
ByLayer
 62
  134
420
37522
370
   15
100
AcDbLine
 10
4.626666598849825
 20
3.899999830457899
 11
4.626666598849825
 21
5
  0
SPLINE
  5
278
100
AcDbEntity
  8
schematic
  6
ByLayer
 62
  256
370
   -1
100
AcDbSpline
210
0
220
0
230
0
 70
   11
 71
    3
 72
   17
 73
   13
 74
    0
 42
1e-07
 43
1e-07
 40
0
 40
0
 40
0
 40
0
 40
1
 40
1
 40
1
 40
2
 40
2
 40
2
 40
3
 40
3
 40
3
 40
4
 40
4
 40
4
 40
4
 10
4.246666802300347
 20
5
 30
0
 10
4.246666802300347
 20
4.988333384195962
 30
0
 10
4.238332960340711
 20
4.979999966091579
 30
0
 10
4.226666344536675
 20
4.979999966091579
 30
0
 10
4.214999728732638
 20
4.979999966091579
 30
0
 10
4.206666310628254
 20
4.988333384195962
 30
0
 10
4.206666310628254
 20
5
 30
0
 10
4.206666310628254
 20
5.011667039659287
 30
0
 10
4.214999728732638
 20
5.020000033908419
 30
0
 10
4.226666344536675
 20
5.020000033908419
 30
0
 10
4.238332960340711
 20
5.020000033908419
 30
0
 10
4.246666802300347
 20
5.011667039659287
 30
0
 10
4.246666802300347
 20
5
 30
0
  0
SPLINE
  5
279
100
AcDbEntity
  8
schematic
  6
ByLayer
 62
  134
420
37522
370
    5
100
AcDbSpline
210
0
220
0
230
0
 70
   11
 71
    3
 72
   17
 73
   13
 74
    0
 42
1e-07
 43
1e-07
 40
0
 40
0
 40
0
 40
0
 40
1
 40
1
 40
1
 40
2
 40
2
 40
2
 40
3
 40
3
 40
3
 40
4
 40
4
 40
4
 40
4
 10
4.246666802300347
 20
5
 30
0
 10
4.246666802300347
 20
4.988333384195962
 30
0
 10
4.238332960340711
 20
4.979999966091579
 30
0
 10
4.226666344536675
 20
4.979999966091579
 30
0
 10
4.214999728732638
 20
4.979999966091579
 30
0
 10
4.206666310628254
 20
4.988333384195962
 30
0
 10
4.206666310628254
 20
5
 30
0
 10
4.206666310628254
 20
5.011667039659287
 30
0
 10
4.214999728732638
 20
5.020000033908419
 30
0
 10
4.226666344536675
 20
5.020000033908419
 30
0
 10
4.238332960340711
 20
5.020000033908419
 30
0
 10
4.246666802300347
 20
5.011667039659287
 30
0
 10
4.246666802300347
 20
5
 30
0
  0
SPLINE
  5
27A
100
AcDbEntity
  8
schematic
  6
ByLayer
 62
  256
370
   -1
100
AcDbSpline
210
0
220
0
230
0
 70
   11
 71
    3
 72
   17
 73
   13
 74
    0
 42
1e-07
 43
1e-07
 40
0
 40
0
 40
0
 40
0
 40
1
 40
1
 40
1
 40
2
 40
2
 40
2
 40
3
 40
3
 40
3
 40
4
 40
4
 40
4
 40
4
 10
4.646666632758246
 20
5
 30
0
 10
4.646666632758246
 20
4.988333384195962
 30
0
 10
4.63833279079861
 20
4.979999966091579
 30
0
 10
4.626666598849825
 20
4.979999966091579
 30
0
 10
4.614999559190537
 20
4.979999966091579
 30
0
 10
4.606666141086154
 20
4.988333384195962
 30
0
 10
4.606666141086154
 20
5
 30
0
 10
4.606666141086154
 20
5.011667039659287
 30
0
 10
4.614999559190537
 20
5.020000033908419
 30
0
 10
4.626666598849825
 20
5.020000033908419
 30
0
 10
4.63833279079861
 20
5.020000033908419
 30
0
 10
4.646666632758246
 20
5.011667039659287
 30
0
 10
4.646666632758246
 20
5
 30
0
  0
SPLINE
  5
27B
100
AcDbEntity
  8
schematic
  6
ByLayer
 62
  134
420
37522
370
    5
100
AcDbSpline
210
0
220
0
230
0
 70
   11
 71
    3
 72
   17
 73
   13
 74
    0
 42
1e-07
 43
1e-07
 40
0
 40
0
 40
0
 40
0
 40
1
 40
1
 40
1
 40
2
 40
2
 40
2
 40
3
 40
3
 40
3
 40
4
 40
4
 40
4
 40
4
 10
4.646666632758246
 20
5
 30
0
 10
4.646666632758246
 20
4.988333384195962
 30
0
 10
4.63833279079861
 20
4.979999966091579
 30
0
 10
4.626666598849825
 20
4.979999966091579
 30
0
 10
4.614999559190537
 20
4.979999966091579
 30
0
 10
4.606666141086154
 20
4.988333384195962
 30
0
 10
4.606666141086154
 20
5
 30
0
 10
4.606666141086154
 20
5.011667039659287
 30
0
 10
4.614999559190537
 20
5.020000033908419
 30
0
 10
4.626666598849825
 20
5.020000033908419
 30
0
 10
4.63833279079861
 20
5.020000033908419
 30
0
 10
4.646666632758246
 20
5.011667039659287
 30
0
 10
4.646666632758246
 20
5
 30
0
  0
LINE
  5
27C
100
AcDbEntity
  8
schematic
  6
ByLayer
 62
  134
420
37522
370
   15
100
AcDbLine
 10
2.128333409627278
 20
5
 11
1.928333282470703
 21
5
  0
LINE
  5
27D
100
AcDbEntity
  8
schematic
  6
ByLayer
 62
  134
420
37522
370
   15
100
AcDbLine
 10
1.928333282470703
 20
5
 11
1.928333282470703
 21
5.2000003390842
  0
LINE
  5
27E
100
AcDbEntity
  8
schematic
  6
ByLayer
 62
  134
420
37522
370
   15
100
AcDbLine
 10
1.928333282470703
 20
5.2000003390842
 11
4.126666598849825
 21
5.2000003390842
  0
LINE
  5
27F
100
AcDbEntity
  8
schematic
  6
ByLayer
 62
  134
420
37522
370
   15
100
AcDbLine
 10
4.126666598849825
 20
5.2000003390842
 11
4.726666768391926
 21
5.2000003390842
  0
LINE
  5
280
100
AcDbEntity
  8
schematic
  6
ByLayer
 62
  134
420
37522
370
   15
100
AcDbLine
 10
4.126666598849825
 20
5.2000003390842
 11
4.126666598849825
 21
5.399999830457899
  0
LINE
  5
281
100
AcDbEntity
  8
schematic
  6
ByLayer
 62
  134
420
37522
370
   15
100
AcDbLine
 10
4.726666768391926
 20
5.2000003390842
 11
5.426667107476128
 21
5.2000003390842
  0
LINE
  5
282
100
AcDbEntity
  8
schematic
  6
ByLayer
 62
  134
420
37522
370
   15
100
AcDbLine
 10
5.426667107476128
 20
5.2000003390842
 11
5.426667107476128
 21
5.5
  0
LINE
  5
283
100
AcDbEntity
  8
schematic
  6
ByLayer
 62
  134
420
37522
370
   15
100
AcDbLine
 10
4.926666683620876
 20
3.301666683620876
 11
4.726666768391926
 21
3.301666683620876
  0
LINE
  5
284
100
AcDbEntity
  8
schematic
  6
ByLayer
 62
  134
420
37522
370
   15
100
AcDbLine
 10
4.726666768391926
 20
3.301666683620876
 11
4.726666768391926
 21
4
  0
LINE
  5
285
100
AcDbEntity
  8
schematic
  6
ByLayer
 62
  134
420
37522
370
   15
100
AcDbLine
 10
4.726666768391926
 20
4
 11
4.726666768391926
 21
5.2000003390842
  0
LINE
  5
286
100
AcDbEntity
  8
schematic
  6
ByLayer
 62
  134
420
37522
370
   15
100
AcDbLine
 10
4.926666683620876
 20
4
 11
4.726666768391926
 21
4
  0
SPLINE
  5
287
100
AcDbEntity
  8
schematic
  6
ByLayer
 62
  256
370
   -1
100
AcDbSpline
210
0
220
0
230
0
 70
   11
 71
    3
 72
   17
 73
   13
 74
    0
 42
1e-07
 43
1e-07
 40
0
 40
0
 40
0
 40
0
 40
1
 40
1
 40
1
 40
2
 40
2
 40
2
 40
3
 40
3
 40
3
 40
4
 40
4
 40
4
 40
4
 10
4.146666632758246
 20
5.2000003390842
 30
0
 10
4.146666632758246
 20
5.188333299424912
 30
0
 10
4.13833279079861
 20
5.180000305175781
 30
0
 10
4.126666598849825
 20
5.180000305175781
 30
0
 10
4.114999559190538
 20
5.180000305175781
 30
0
 10
4.106666141086154
 20
5.188333299424912
 30
0
 10
4.106666141086154
 20
5.2000003390842
 30
0
 10
4.106666141086154
 20
5.211666954888237
 30
0
 10
4.114999559190538
 20
5.220000372992621
 30
0
 10
4.126666598849825
 20
5.220000372992621
 30
0
 10
4.13833279079861
 20
5.220000372992621
 30
0
 10
4.146666632758246
 20
5.211666954888237
 30
0
 10
4.146666632758246
 20
5.2000003390842
 30
0
  0
SPLINE
  5
288
100
AcDbEntity
  8
schematic
  6
ByLayer
 62
  134
420
37522
370
    5
100
AcDbSpline
210
0
220
0
230
0
 70
   11
 71
    3
 72
   17
 73
   13
 74
    0
 42
1e-07
 43
1e-07
 40
0
 40
0
 40
0
 40
0
 40
1
 40
1
 40
1
 40
2
 40
2
 40
2
 40
3
 40
3
 40
3
 40
4
 40
4
 40
4
 40
4
 10
4.146666632758246
 20
5.2000003390842
 30
0
 10
4.146666632758246
 20
5.188333299424912
 30
0
 10
4.13833279079861
 20
5.180000305175781
 30
0
 10
4.126666598849825
 20
5.180000305175781
 30
0
 10
4.114999559190538
 20
5.180000305175781
 30
0
 10
4.106666141086154
 20
5.188333299424912
 30
0
 10
4.106666141086154
 20
5.2000003390842
 30
0
 10
4.106666141086154
 20
5.211666954888237
 30
0
 10
4.114999559190538
 20
5.220000372992621
 30
0
 10
4.126666598849825
 20
5.220000372992621
 30
0
 10
4.13833279079861
 20
5.220000372992621
 30
0
 10
4.146666632758246
 20
5.211666954888237
 30
0
 10
4.146666632758246
 20
5.2000003390842
 30
0
  0
SPLINE
  5
289
100
AcDbEntity
  8
schematic
  6
ByLayer
 62
  256
370
   -1
100
AcDbSpline
210
0
220
0
230
0
 70
   11
 71
    3
 72
   17
 73
   13
 74
    0
 42
1e-07
 43
1e-07
 40
0
 40
0
 40
0
 40
0
 40
1
 40
1
 40
1
 40
2
 40
2
 40
2
 40
3
 40
3
 40
3
 40
4
 40
4
 40
4
 40
4
 10
4.746666802300347
 20
5.2000003390842
 30
0
 10
4.746666802300347
 20
5.188333299424912
 30
0
 10
4.738332960340711
 20
5.180000305175781
 30
0
 10
4.726666344536675
 20
5.180000305175781
 30
0
 10
4.714999728732638
 20
5.180000305175781
 30
0
 10
4.706666310628254
 20
5.188333299424912
 30
0
 10
4.706666310628254
 20
5.2000003390842
 30
0
 10
4.706666310628254
 20
5.211666954888237
 30
0
 10
4.714999728732638
 20
5.220000372992621
 30
0
 10
4.726666344536675
 20
5.220000372992621
 30
0
 10
4.738332960340711
 20
5.220000372992621
 30
0
 10
4.746666802300347
 20
5.211666954888237
 30
0
 10
4.746666802300347
 20
5.2000003390842
 30
0
  0
SPLINE
  5
28A
100
AcDbEntity
  8
schematic
  6
ByLayer
 62
  134
420
37522
370
    5
100
AcDbSpline
210
0
220
0
230
0
 70
   11
 71
    3
 72
   17
 73
   13
 74
    0
 42
1e-07
 43
1e-07
 40
0
 40
0
 40
0
 40
0
 40
1
 40
1
 40
1
 40
2
 40
2
 40
2
 40
3
 40
3
 40
3
 40
4
 40
4
 40
4
 40
4
 10
4.746666802300347
 20
5.2000003390842
 30
0
 10
4.746666802300347
 20
5.188333299424912
 30
0
 10
4.738332960340711
 20
5.180000305175781
 30
0
 10
4.726666344536675
 20
5.180000305175781
 30
0
 10
4.714999728732638
 20
5.180000305175781
 30
0
 10
4.706666310628254
 20
5.188333299424912
 30
0
 10
4.706666310628254
 20
5.2000003390842
 30
0
 10
4.706666310628254
 20
5.211666954888237
 30
0
 10
4.714999728732638
 20
5.220000372992621
 30
0
 10
4.726666344536675
 20
5.220000372992621
 30
0
 10
4.738332960340711
 20
5.220000372992621
 30
0
 10
4.746666802300347
 20
5.211666954888237
 30
0
 10
4.746666802300347
 20
5.2000003390842
 30
0
  0
SPLINE
  5
28B
100
AcDbEntity
  8
schematic
  6
ByLayer
 62
  256
370
   -1
100
AcDbSpline
210
0
220
0
230
0
 70
   11
 71
    3
 72
   17
 73
   13
 74
    0
 42
1e-07
 43
1e-07
 40
0
 40
0
 40
0
 40
0
 40
1
 40
1
 40
1
 40
2
 40
2
 40
2
 40
3
 40
3
 40
3
 40
4
 40
4
 40
4
 40
4
 10
4.746666802300347
 20
4
 30
0
 10
4.746666802300347
 20
3.988333384195963
 30
0
 10
4.738332960340711
 20
3.979999966091579
 30
0
 10
4.726666344536675
 20
3.979999966091579
 30
0
 10
4.714999728732638
 20
3.979999966091579
 30
0
 10
4.706666310628254
 20
3.988333384195963
 30
0
 10
4.706666310628254
 20
4
 30
0
 10
4.706666310628254
 20
4.011667039659288
 30
0
 10
4.714999728732638
 20
4.020000033908419
 30
0
 10
4.726666344536675
 20
4.020000033908419
 30
0
 10
4.738332960340711
 20
4.020000033908419
 30
0
 10
4.746666802300347
 20
4.011667039659288
 30
0
 10
4.746666802300347
 20
4
 30
0
  0
SPLINE
  5
28C
100
AcDbEntity
  8
schematic
  6
ByLayer
 62
  134
420
37522
370
    5
100
AcDbSpline
210
0
220
0
230
0
 70
   11
 71
    3
 72
   17
 73
   13
 74
    0
 42
1e-07
 43
1e-07
 40
0
 40
0
 40
0
 40
0
 40
1
 40
1
 40
1
 40
2
 40
2
 40
2
 40
3
 40
3
 40
3
 40
4
 40
4
 40
4
 40
4
 10
4.746666802300347
 20
4
 30
0
 10
4.746666802300347
 20
3.988333384195963
 30
0
 10
4.738332960340711
 20
3.979999966091579
 30
0
 10
4.726666344536675
 20
3.979999966091579
 30
0
 10
4.714999728732638
 20
3.979999966091579
 30
0
 10
4.706666310628254
 20
3.988333384195963
 30
0
 10
4.706666310628254
 20
4
 30
0
 10
4.706666310628254
 20
4.011667039659288
 30
0
 10
4.714999728732638
 20
4.020000033908419
 30
0
 10
4.726666344536675
 20
4.020000033908419
 30
0
 10
4.738332960340711
 20
4.020000033908419
 30
0
 10
4.746666802300347
 20
4.011667039659288
 30
0
 10
4.746666802300347
 20
4
 30
0
  0
LINE
  5
28D
100
AcDbEntity
  8
schematic
  6
ByLayer
 62
  134
420
37522
370
   15
100
AcDbLine
 10
1.52833334604899
 20
3.201666514078775
 11
1.728333367241753
 21
3.201666514078775
  0
LINE
  5
28E
100
AcDbEntity
  8
schematic
  6
ByLayer
 62
  134
420
37522
370
   15
100
AcDbLine
 10
1.728333367241753
 20
3.201666514078775
 11
1.728333367241753
 21
3.101666768391926
  0
LINE
  5
28F
100
AcDbEntity
  8
schematic
  6
ByLayer
 62
  134
420
37522
370
   15
100
AcDbLine
 10
1.928333282470703
 20
3.101666768391926
 11
1.928333282470703
 21
3.201666514078775
  0
LINE
  5
290
100
AcDbEntity
  8
schematic
  6
ByLayer
 62
  134
420
37522
370
   15
100
AcDbLine
 10
1.928333282470703
 20
3.201666514078775
 11
2.128333409627278
 21
3.201666514078775
  0
LINE
  5
291
100
AcDbEntity
  8
schematic
  6
ByLayer
 62
  134
420
37522
370
   15
100
AcDbLine
 10
3.726666768391926
 20
4.799999660915798
 11
4.326666514078775
 21
4.799999660915798
  0
LINE
  5
292
100
AcDbEntity
  8
schematic
  6
ByLayer
 62
  134
420
37522
370
   15
100
AcDbLine
 10
4.326666514078775
 20
4.799999660915798
 11
4.326666514078775
 21
5.399999830457899
  0
LINE
  5
293
100
AcDbEntity
  8
schematic
  6
ByLayer
 62
  134
420
37522
370
   15
100
AcDbLine
 10
5.626666598849825
 20
5.5
 11
5.626666598849825
 21
4.799999660915798
  0
LINE
  5
294
100
AcDbEntity
  8
schematic
  6
ByLayer
 62
  134
420
37522
370
   15
100
AcDbLine
 10
5.626666598849825
 20
4.799999660915798
 11
4.326666514078775
 21
4.799999660915798
  0
SPLINE
  5
295
100
AcDbEntity
  8
schematic
  6
ByLayer
 62
  256
370
   -1
100
AcDbSpline
210
0
220
0
230
0
 70
   11
 71
    3
 72
   17
 73
   13
 74
    0
 42
1e-07
 43
1e-07
 40
0
 40
0
 40
0
 40
0
 40
1
 40
1
 40
1
 40
2
 40
2
 40
2
 40
3
 40
3
 40
3
 40
4
 40
4
 40
4
 40
4
 10
4.346666547987195
 20
4.799999660915798
 30
0
 10
4.346666547987195
 20
4.788333468967013
 30
0
 10
4.338333129882812
 20
4.780000050862629
 30
0
 10
4.326666514078775
 20
4.780000050862629
 30
0
 10
4.314999898274739
 20
4.780000050862629
 30
0
 10
4.306666480170355
 20
4.788333468967013
 30
0
 10
4.306666480170355
 20
4.799999660915798
 30
0
 10
4.306666480170355
 20
4.811666700575086
 30
0
 10
4.314999898274739
 20
4.82000011867947
 30
0
 10
4.326666514078775
 20
4.82000011867947
 30
0
 10
4.338333129882812
 20
4.82000011867947
 30
0
 10
4.346666547987195
 20
4.811666700575086
 30
0
 10
4.346666547987195
 20
4.799999660915798
 30
0
  0
SPLINE
  5
296
100
AcDbEntity
  8
schematic
  6
ByLayer
 62
  134
420
37522
370
    5
100
AcDbSpline
210
0
220
0
230
0
 70
   11
 71
    3
 72
   17
 73
   13
 74
    0
 42
1e-07
 43
1e-07
 40
0
 40
0
 40
0
 40
0
 40
1
 40
1
 40
1
 40
2
 40
2
 40
2
 40
3
 40
3
 40
3
 40
4
 40
4
 40
4
 40
4
 10
4.346666547987195
 20
4.799999660915798
 30
0
 10
4.346666547987195
 20
4.788333468967013
 30
0
 10
4.338333129882812
 20
4.780000050862629
 30
0
 10
4.326666514078775
 20
4.780000050862629
 30
0
 10
4.314999898274739
 20
4.780000050862629
 30
0
 10
4.306666480170355
 20
4.788333468967013
 30
0
 10
4.306666480170355
 20
4.799999660915798
 30
0
 10
4.306666480170355
 20
4.811666700575086
 30
0
 10
4.314999898274739
 20
4.82000011867947
 30
0
 10
4.326666514078775
 20
4.82000011867947
 30
0
 10
4.338333129882812
 20
4.82000011867947
 30
0
 10
4.346666547987195
 20
4.811666700575086
 30
0
 10
4.346666547987195
 20
4.799999660915798
 30
0
  0
LINE
  5
297
100
AcDbEntity
  8
schematic
  6
ByLayer
 62
  134
420
37522
370
   15
100
AcDbLine
 10
3.726666768391926
 20
4.5
 11
4.426666683620876
 21
4.5
  0
LINE
  5
298
100
AcDbEntity
  8
schematic
  6
ByLayer
 62
  134
420
37522
370
   15
100
AcDbLine
 10
4.426666683620876
 20
4.5
 11
4.426666683620876
 21
4.7000003390842
  0
LINE
  5
299
100
AcDbEntity
  8
schematic
  6
ByLayer
 62
  134
420
37522
370
   15
100
AcDbLine
 10
4.426666683620876
 20
4.7000003390842
 11
4.426666683620876
 21
5.399999830457899
  0
LINE
  5
29A
100
AcDbEntity
  8
schematic
  6
ByLayer
 62
  134
420
37522
370
   15
100
AcDbLine
 10
5.526666429307725
 20
5.5
 11
5.526666429307725
 21
4.7000003390842
  0
LINE
  5
29B
100
AcDbEntity
  8
schematic
  6
ByLayer
 62
  134
420
37522
370
   15
100
AcDbLine
 10
5.526666429307725
 20
4.7000003390842
 11
4.426666683620876
 21
4.7000003390842
  0
SPLINE
  5
29C
100
AcDbEntity
  8
schematic
  6
ByLayer
 62
  256
370
   -1
100
AcDbSpline
210
0
220
0
230
0
 70
   11
 71
    3
 72
   17
 73
   13
 74
    0
 42
1e-07
 43
1e-07
 40
0
 40
0
 40
0
 40
0
 40
1
 40
1
 40
1
 40
2
 40
2
 40
2
 40
3
 40
3
 40
3
 40
4
 40
4
 40
4
 40
4
 10
4.446666717529296
 20
4.7000003390842
 30
0
 10
4.446666717529296
 20
4.688333299424912
 30
0
 10
4.438333299424913
 20
4.680000305175781
 30
0
 10
4.426666683620876
 20
4.680000305175781
 30
0
 10
4.41500006781684
 20
4.680000305175781
 30
0
 10
4.406666225857204
 20
4.688333299424912
 30
0
 10
4.406666225857204
 20
4.7000003390842
 30
0
 10
4.406666225857204
 20
4.711666954888237
 30
0
 10
4.41500006781684
 20
4.720000372992621
 30
0
 10
4.426666683620876
 20
4.720000372992621
 30
0
 10
4.438333299424913
 20
4.720000372992621
 30
0
 10
4.446666717529296
 20
4.711666954888237
 30
0
 10
4.446666717529296
 20
4.7000003390842
 30
0
  0
SPLINE
  5
29D
100
AcDbEntity
  8
schematic
  6
ByLayer
 62
  134
420
37522
370
    5
100
AcDbSpline
210
0
220
0
230
0
 70
   11
 71
    3
 72
   17
 73
   13
 74
    0
 42
1e-07
 43
1e-07
 40
0
 40
0
 40
0
 40
0
 40
1
 40
1
 40
1
 40
2
 40
2
 40
2
 40
3
 40
3
 40
3
 40
4
 40
4
 40
4
 40
4
 10
4.446666717529296
 20
4.7000003390842
 30
0
 10
4.446666717529296
 20
4.688333299424912
 30
0
 10
4.438333299424913
 20
4.680000305175781
 30
0
 10
4.426666683620876
 20
4.680000305175781
 30
0
 10
4.41500006781684
 20
4.680000305175781
 30
0
 10
4.406666225857204
 20
4.688333299424912
 30
0
 10
4.406666225857204
 20
4.7000003390842
 30
0
 10
4.406666225857204
 20
4.711666954888237
 30
0
 10
4.41500006781684
 20
4.720000372992621
 30
0
 10
4.426666683620876
 20
4.720000372992621
 30
0
 10
4.438333299424913
 20
4.720000372992621
 30
0
 10
4.446666717529296
 20
4.711666954888237
 30
0
 10
4.446666717529296
 20
4.7000003390842
 30
0
  0
LINE
  5
29E
100
AcDbEntity
  8
schematic
  6
ByLayer
 62
  134
420
37522
370
   15
100
AcDbLine
 10
4.926666683620876
 20
3.501666598849826
 11
4.326666514078775
 21
3.501666598849826
  0
LINE
  5
29F
100
AcDbEntity
  8
schematic
  6
ByLayer
 62
  134
420
37522
370
   15
100
AcDbLine
 10
4.326666514078775
 20
3.501666598849826
 11
4.326666514078775
 21
1.501666598849826
  0
LINE
  5
2A0
100
AcDbEntity
  8
schematic
  6
ByLayer
 62
  134
420
37522
370
   15
100
AcDbLine
 10
4.326666514078775
 20
1.501666598849826
 11
10.22499932183159
 21
1.501666598849826
  0
LINE
  5
2A1
100
AcDbEntity
  8
schematic
  6
ByLayer
 62
  134
420
37522
370
   15
100
AcDbLine
 10
10.22499932183159
 20
1.501666598849826
 11
10.22499932183159
 21
3.101666768391926
  0
LINE
  5
2A2
100
AcDbEntity
  8
schematic
  6
ByLayer
 62
  134
420
37522
370
   15
100
AcDbLine
 10
10.22499932183159
 20
3.101666768391926
 11
9.625
 21
3.101666768391926
  0
LINE
  5
2A3
100
AcDbEntity
  8
schematic
  6
ByLayer
 62
  134
420
37522
370
   15
100
AcDbLine
 10
4.326666514078775
 20
3.501666598849826
 11
4.326666514078775
 21
4.2000003390842
  0
LINE
  5
2A4
100
AcDbEntity
  8
schematic
  6
ByLayer
 62
  134
420
37522
370
   15
100
AcDbLine
 10
4.326666514078775
 20
4.2000003390842
 11
4.226666768391926
 21
4.2000003390842
  0
LINE
  5
2A5
100
AcDbEntity
  8
schematic
  6
ByLayer
 62
  134
420
37522
370
   15
100
AcDbLine
 10
4.226666768391926
 20
4.2000003390842
 11
4.226666768391926
 21
4.899999830457899
  0
LINE
  5
2A6
100
AcDbEntity
  8
schematic
  6
ByLayer
 62
  134
420
37522
370
   15
100
AcDbLine
 10
4.226666768391926
 20
4.899999830457899
 11
3.726666768391926
 21
4.899999830457899
  0
SPLINE
  5
2A7
100
AcDbEntity
  8
schematic
  6
ByLayer
 62
  256
370
   -1
100
AcDbSpline
210
0
220
0
230
0
 70
   11
 71
    3
 72
   17
 73
   13
 74
    0
 42
1e-07
 43
1e-07
 40
0
 40
0
 40
0
 40
0
 40
1
 40
1
 40
1
 40
2
 40
2
 40
2
 40
3
 40
3
 40
3
 40
4
 40
4
 40
4
 40
4
 10
4.346666547987195
 20
3.501666598849826
 30
0
 10
4.346666547987195
 20
3.489999983045789
 30
0
 10
4.338333129882812
 20
3.481666988796657
 30
0
 10
4.326666514078775
 20
3.481666988796657
 30
0
 10
4.314999898274739
 20
3.481666988796657
 30
0
 10
4.306666480170355
 20
3.489999983045789
 30
0
 10
4.306666480170355
 20
3.501666598849826
 30
0
 10
4.306666480170355
 20
3.513333638509114
 30
0
 10
4.314999898274739
 20
3.521666632758246
 30
0
 10
4.326666514078775
 20
3.521666632758246
 30
0
 10
4.338333129882812
 20
3.521666632758246
 30
0
 10
4.346666547987195
 20
3.513333638509114
 30
0
 10
4.346666547987195
 20
3.501666598849826
 30
0
  0
SPLINE
  5
2A8
100
AcDbEntity
  8
schematic
  6
ByLayer
 62
  134
420
37522
370
    5
100
AcDbSpline
210
0
220
0
230
0
 70
   11
 71
    3
 72
   17
 73
   13
 74
    0
 42
1e-07
 43
1e-07
 40
0
 40
0
 40
0
 40
0
 40
1
 40
1
 40
1
 40
2
 40
2
 40
2
 40
3
 40
3
 40
3
 40
4
 40
4
 40
4
 40
4
 10
4.346666547987195
 20
3.501666598849826
 30
0
 10
4.346666547987195
 20
3.489999983045789
 30
0
 10
4.338333129882812
 20
3.481666988796657
 30
0
 10
4.326666514078775
 20
3.481666988796657
 30
0
 10
4.314999898274739
 20
3.481666988796657
 30
0
 10
4.306666480170355
 20
3.489999983045789
 30
0
 10
4.306666480170355
 20
3.501666598849826
 30
0
 10
4.306666480170355
 20
3.513333638509114
 30
0
 10
4.314999898274739
 20
3.521666632758246
 30
0
 10
4.326666514078775
 20
3.521666632758246
 30
0
 10
4.338333129882812
 20
3.521666632758246
 30
0
 10
4.346666547987195
 20
3.513333638509114
 30
0
 10
4.346666547987195
 20
3.501666598849826
 30
0
  0
LINE
  5
2A9
100
AcDbEntity
  8
schematic
  6
ByLayer
 62
  134
420
37522
370
   15
100
AcDbLine
 10
4.926666683620876
 20
3.401666429307725
 11
4.426666683620876
 21
3.401666429307725
  0
LINE
  5
2AA
100
AcDbEntity
  8
schematic
  6
ByLayer
 62
  134
420
37522
370
   15
100
AcDbLine
 10
4.426666683620876
 20
3.401666429307725
 11
4.426666683620876
 21
1.601666768391926
  0
LINE
  5
2AB
100
AcDbEntity
  8
schematic
  6
ByLayer
 62
  134
420
37522
370
   15
100
AcDbLine
 10
4.426666683620876
 20
1.601666768391926
 11
10.125
 21
1.601666768391926
  0
LINE
  5
2AC
100
AcDbEntity
  8
schematic
  6
ByLayer
 62
  134
420
37522
370
   15
100
AcDbLine
 10
10.125
 20
1.601666768391926
 11
10.125
 21
3.001666598849826
  0
LINE
  5
2AD
100
AcDbEntity
  8
schematic
  6
ByLayer
 62
  134
420
37522
370
   15
100
AcDbLine
 10
10.125
 20
3.001666598849826
 11
9.625
 21
3.001666598849826
  0
LINE
  5
2AE
100
AcDbEntity
  8
schematic
  6
ByLayer
 62
  134
420
37522
370
   15
100
AcDbLine
 10
4.426666683620876
 20
3.401666429307725
 11
3.926666683620876
 21
3.401666429307725
  0
LINE
  5
2AF
100
AcDbEntity
  8
schematic
  6
ByLayer
 62
  134
420
37522
370
   15
100
AcDbLine
 10
3.926666683620876
 20
3.401666429307725
 11
3.926666683620876
 21
4.2000003390842
  0
LINE
  5
2B0
100
AcDbEntity
  8
schematic
  6
ByLayer
 62
  134
420
37522
370
   15
100
AcDbLine
 10
3.926666683620876
 20
4.2000003390842
 11
3.726666768391926
 21
4.2000003390842
  0
SPLINE
  5
2B1
100
AcDbEntity
  8
schematic
  6
ByLayer
 62
  256
370
   -1
100
AcDbSpline
210
0
220
0
230
0
 70
   11
 71
    3
 72
   17
 73
   13
 74
    0
 42
1e-07
 43
1e-07
 40
0
 40
0
 40
0
 40
0
 40
1
 40
1
 40
1
 40
2
 40
2
 40
2
 40
3
 40
3
 40
3
 40
4
 40
4
 40
4
 40
4
 10
4.446666717529296
 20
3.401666429307725
 30
0
 10
4.446666717529296
 20
3.39000023735894
 30
0
 10
4.438333299424913
 20
3.381666819254557
 30
0
 10
4.426666683620876
 20
3.381666819254557
 30
0
 10
4.41500006781684
 20
3.381666819254557
 30
0
 10
4.406666225857204
 20
3.39000023735894
 30
0
 10
4.406666225857204
 20
3.401666429307725
 30
0
 10
4.406666225857204
 20
3.413333468967013
 30
0
 10
4.41500006781684
 20
3.421666887071397
 30
0
 10
4.426666683620876
 20
3.421666887071397
 30
0
 10
4.438333299424913
 20
3.421666887071397
 30
0
 10
4.446666717529296
 20
3.413333468967013
 30
0
 10
4.446666717529296
 20
3.401666429307725
 30
0
  0
SPLINE
  5
2B2
100
AcDbEntity
  8
schematic
  6
ByLayer
 62
  134
420
37522
370
    5
100
AcDbSpline
210
0
220
0
230
0
 70
   11
 71
    3
 72
   17
 73
   13
 74
    0
 42
1e-07
 43
1e-07
 40
0
 40
0
 40
0
 40
0
 40
1
 40
1
 40
1
 40
2
 40
2
 40
2
 40
3
 40
3
 40
3
 40
4
 40
4
 40
4
 40
4
 10
4.446666717529296
 20
3.401666429307725
 30
0
 10
4.446666717529296
 20
3.39000023735894
 30
0
 10
4.438333299424913
 20
3.381666819254557
 30
0
 10
4.426666683620876
 20
3.381666819254557
 30
0
 10
4.41500006781684
 20
3.381666819254557
 30
0
 10
4.406666225857204
 20
3.39000023735894
 30
0
 10
4.406666225857204
 20
3.401666429307725
 30
0
 10
4.406666225857204
 20
3.413333468967013
 30
0
 10
4.41500006781684
 20
3.421666887071397
 30
0
 10
4.426666683620876
 20
3.421666887071397
 30
0
 10
4.438333299424913
 20
3.421666887071397
 30
0
 10
4.446666717529296
 20
3.413333468967013
 30
0
 10
4.446666717529296
 20
3.401666429307725
 30
0
  0
LINE
  5
2B3
100
AcDbEntity
  8
schematic
  6
ByLayer
 62
  134
420
37522
370
   15
100
AcDbLine
 10
4.926666683620876
 20
3.201666514078775
 11
4.526666429307725
 21
3.201666514078775
  0
LINE
  5
2B4
100
AcDbEntity
  8
schematic
  6
ByLayer
 62
  134
420
37522
370
   15
100
AcDbLine
 10
4.526666429307725
 20
3.201666514078775
 11
4.526666429307725
 21
1.701666514078775
  0
LINE
  5
2B5
100
AcDbEntity
  8
schematic
  6
ByLayer
 62
  134
420
37522
370
   15
100
AcDbLine
 10
4.526666429307725
 20
1.701666514078775
 11
10.0250006781684
 21
1.701666514078775
  0
LINE
  5
2B6
100
AcDbEntity
  8
schematic
  6
ByLayer
 62
  134
420
37522
370
   15
100
AcDbLine
 10
10.0250006781684
 20
1.701666514078775
 11
10.0250006781684
 21
3.201666514078775
  0
LINE
  5
2B7
100
AcDbEntity
  8
schematic
  6
ByLayer
 62
  134
420
37522
370
   15
100
AcDbLine
 10
10.0250006781684
 20
3.201666514078775
 11
9.625
 21
3.201666514078775
  0
LINE
  5
2B8
100
AcDbEntity
  8
schematic
  6
ByLayer
 62
  134
420
37522
370
   15
100
AcDbLine
 10
3.726666768391926
 20
4.299999660915798
 11
4.526666429307725
 21
4.299999660915798
  0
LINE
  5
2B9
100
AcDbEntity
  8
schematic
  6
ByLayer
 62
  134
420
37522
370
   15
100
AcDbLine
 10
4.526666429307725
 20
4.299999660915798
 11
4.526666429307725
 21
3.201666514078775
  0
SPLINE
  5
2BA
100
AcDbEntity
  8
schematic
  6
ByLayer
 62
  256
370
   -1
100
AcDbSpline
210
0
220
0
230
0
 70
   11
 71
    3
 72
   17
 73
   13
 74
    0
 42
1e-07
 43
1e-07
 40
0
 40
0
 40
0
 40
0
 40
1
 40
1
 40
1
 40
2
 40
2
 40
2
 40
3
 40
3
 40
3
 40
4
 40
4
 40
4
 40
4
 10
4.546666887071396
 20
3.201666514078775
 30
0
 10
4.546666887071396
 20
3.189999898274739
 30
0
 10
4.538333468967013
 20
3.181666904025607
 30
0
 10
4.526666429307725
 20
3.181666904025607
 30
0
 10
4.515000237358941
 20
3.181666904025607
 30
0
 10
4.506666395399305
 20
3.189999898274739
 30
0
 10
4.506666395399305
 20
3.201666514078775
 30
0
 10
4.506666395399305
 20
3.213333553738063
 30
0
 10
4.515000237358941
 20
3.221666547987195
 30
0
 10
4.526666429307725
 20
3.221666547987195
 30
0
 10
4.538333468967013
 20
3.221666547987195
 30
0
 10
4.546666887071396
 20
3.213333553738063
 30
0
 10
4.546666887071396
 20
3.201666514078775
 30
0
  0
SPLINE
  5
2BB
100
AcDbEntity
  8
schematic
  6
ByLayer
 62
  134
420
37522
370
    5
100
AcDbSpline
210
0
220
0
230
0
 70
   11
 71
    3
 72
   17
 73
   13
 74
    0
 42
1e-07
 43
1e-07
 40
0
 40
0
 40
0
 40
0
 40
1
 40
1
 40
1
 40
2
 40
2
 40
2
 40
3
 40
3
 40
3
 40
4
 40
4
 40
4
 40
4
 10
4.546666887071396
 20
3.201666514078775
 30
0
 10
4.546666887071396
 20
3.189999898274739
 30
0
 10
4.538333468967013
 20
3.181666904025607
 30
0
 10
4.526666429307725
 20
3.181666904025607
 30
0
 10
4.515000237358941
 20
3.181666904025607
 30
0
 10
4.506666395399305
 20
3.189999898274739
 30
0
 10
4.506666395399305
 20
3.201666514078775
 30
0
 10
4.506666395399305
 20
3.213333553738063
 30
0
 10
4.515000237358941
 20
3.221666547987195
 30
0
 10
4.526666429307725
 20
3.221666547987195
 30
0
 10
4.538333468967013
 20
3.221666547987195
 30
0
 10
4.546666887071396
 20
3.213333553738063
 30
0
 10
4.546666887071396
 20
3.201666514078775
 30
0
  0
LINE
  5
2BC
100
AcDbEntity
  8
schematic
  6
ByLayer
 62
  134
420
37522
370
   15
100
AcDbLine
 10
3.726666768391926
 20
3.501666598849826
 11
4.126666598849825
 21
3.501666598849826
  0
LINE
  5
2BD
100
AcDbEntity
  8
schematic
  6
ByLayer
 62
  134
420
37522
370
   15
100
AcDbLine
 10
4.126666598849825
 20
3.501666598849826
 11
4.126666598849825
 21
3.801666683620876
  0
LINE
  5
2BE
100
AcDbEntity
  8
schematic
  6
ByLayer
 62
  134
420
37522
370
   15
100
AcDbLine
 10
4.126666598849825
 20
3.801666683620876
 11
4.926666683620876
 21
3.801666683620876
  0
LINE
  5
2BF
100
AcDbEntity
  8
schematic
  6
ByLayer
 62
  134
420
37522
370
   15
100
AcDbLine
 10
3.726666768391926
 20
3.801666683620876
 11
4.026666429307725
 21
3.801666683620876
  0
LINE
  5
2C0
100
AcDbEntity
  8
schematic
  6
ByLayer
 62
  134
420
37522
370
   15
100
AcDbLine
 10
4.026666429307725
 20
3.801666683620876
 11
4.026666429307725
 21
3.701666514078775
  0
LINE
  5
2C1
100
AcDbEntity
  8
schematic
  6
ByLayer
 62
  134
420
37522
370
   15
100
AcDbLine
 10
4.926666683620876
 20
3.701666514078775
 11
4.026666429307725
 21
3.701666514078775
  0
LINE
  5
2C2
100
AcDbEntity
  8
schematic
  6
ByLayer
 62
  134
420
37522
370
   15
100
AcDbLine
 10
3.726666768391926
 20
3.601666768391926
 11
4.926666683620876
 21
3.601666768391926
  0
LINE
  5
2C3
100
AcDbEntity
  8
schematic
  6
ByLayer
 62
  134
420
37522
370
   15
100
AcDbLine
 10
3.726666768391926
 20
4.1000001695421
 11
4.226666768391926
 21
4.1000001695421
  0
ENDSEC
  0
SECTION
  2
OBJECTS
  0
DICTIONARY
  5
C
330
0
100
AcDbDictionary
281
    1
  3
ACAD_GROUP
350
D
  0
DICTIONARY
  5
D
330
C
100
AcDbDictionary
281
    1
  0
PLOTSETTINGS
  5
2C4
100
AcDbPlotSettings
  6
1x1
 40
0
 41
0
 42
0
 43
0
  0
ENDSEC
  0
EOF
